G04 #@! TF.GenerationSoftware,KiCad,Pcbnew,8.0.4*
G04 #@! TF.CreationDate,2024-08-07T22:07:56-04:00*
G04 #@! TF.ProjectId,steno,7374656e-6f2e-46b6-9963-61645f706362,1*
G04 #@! TF.SameCoordinates,Original*
G04 #@! TF.FileFunction,Legend,Top*
G04 #@! TF.FilePolarity,Positive*
%FSLAX46Y46*%
G04 Gerber Fmt 4.6, Leading zero omitted, Abs format (unit mm)*
G04 Created by KiCad (PCBNEW 8.0.4) date 2024-08-07 22:07:56*
%MOMM*%
%LPD*%
G01*
G04 APERTURE LIST*
G04 Aperture macros list*
%AMRoundRect*
0 Rectangle with rounded corners*
0 $1 Rounding radius*
0 $2 $3 $4 $5 $6 $7 $8 $9 X,Y pos of 4 corners*
0 Add a 4 corners polygon primitive as box body*
4,1,4,$2,$3,$4,$5,$6,$7,$8,$9,$2,$3,0*
0 Add four circle primitives for the rounded corners*
1,1,$1+$1,$2,$3*
1,1,$1+$1,$4,$5*
1,1,$1+$1,$6,$7*
1,1,$1+$1,$8,$9*
0 Add four rect primitives between the rounded corners*
20,1,$1+$1,$2,$3,$4,$5,0*
20,1,$1+$1,$4,$5,$6,$7,0*
20,1,$1+$1,$6,$7,$8,$9,0*
20,1,$1+$1,$8,$9,$2,$3,0*%
%AMFreePoly0*
4,1,28,0.178017,0.779942,0.347107,0.720775,0.498792,0.625465,0.625465,0.498792,0.720775,0.347107,0.779942,0.178017,0.800000,0.000000,0.779942,-0.178017,0.720775,-0.347107,0.625465,-0.498792,0.498792,-0.625465,0.347107,-0.720775,0.178017,-0.779942,0.000000,-0.800000,-2.200000,-0.800000,-2.205014,-0.794986,-2.244504,-0.794986,-2.324698,-0.756366,-2.380194,-0.686777,-2.400000,-0.600000,
-2.400000,0.600000,-2.380194,0.686777,-2.324698,0.756366,-2.244504,0.794986,-2.205014,0.794986,-2.200000,0.800000,0.000000,0.800000,0.178017,0.779942,0.178017,0.779942,$1*%
%AMFreePoly1*
4,1,28,0.605014,0.794986,0.644504,0.794986,0.724698,0.756366,0.780194,0.686777,0.800000,0.600000,0.800000,-0.600000,0.780194,-0.686777,0.724698,-0.756366,0.644504,-0.794986,0.605014,-0.794986,0.600000,-0.800000,0.000000,-0.800000,-0.178017,-0.779942,-0.347107,-0.720775,-0.498792,-0.625465,-0.625465,-0.498792,-0.720775,-0.347107,-0.779942,-0.178017,-0.800000,0.000000,-0.779942,0.178017,
-0.720775,0.347107,-0.625465,0.498792,-0.498792,0.625465,-0.347107,0.720775,-0.178017,0.779942,0.000000,0.800000,0.600000,0.800000,0.605014,0.794986,0.605014,0.794986,$1*%
%AMFreePoly2*
4,1,29,0.605014,0.794986,0.644504,0.794986,0.724698,0.756366,0.780194,0.686777,0.800000,0.600000,0.800000,-0.600000,0.780194,-0.686777,0.724698,-0.756366,0.644504,-0.794986,0.605014,-0.794986,0.600000,-0.800000,0.000000,-0.800000,-1.600000,-0.800000,-1.778017,-0.779942,-1.947107,-0.720775,-2.098792,-0.625465,-2.225465,-0.498792,-2.320775,-0.347107,-2.379942,-0.178017,-2.400000,0.000000,
-2.379942,0.178017,-2.320775,0.347107,-2.225465,0.498792,-2.098792,0.625465,-1.947107,0.720775,-1.778017,0.779942,-1.600000,0.800000,0.600000,0.800000,0.605014,0.794986,0.605014,0.794986,$1*%
%AMFreePoly3*
4,1,28,0.178017,0.779942,0.347107,0.720775,0.498792,0.625465,0.625465,0.498792,0.720775,0.347107,0.779942,0.178017,0.800000,0.000000,0.779942,-0.178017,0.720775,-0.347107,0.625465,-0.498792,0.498792,-0.625465,0.347107,-0.720775,0.178017,-0.779942,0.000000,-0.800000,-0.600000,-0.800000,-0.605014,-0.794986,-0.644504,-0.794986,-0.724698,-0.756366,-0.780194,-0.686777,-0.800000,-0.600000,
-0.800000,0.600000,-0.780194,0.686777,-0.724698,0.756366,-0.644504,0.794986,-0.605014,0.794986,-0.600000,0.800000,0.000000,0.800000,0.178017,0.779942,0.178017,0.779942,$1*%
%AMFreePoly4*
4,1,29,1.778017,0.779942,1.947107,0.720775,2.098792,0.625465,2.225465,0.498792,2.320775,0.347107,2.379942,0.178017,2.400000,0.000000,2.379942,-0.178017,2.320775,-0.347107,2.225465,-0.498792,2.098792,-0.625465,1.947107,-0.720775,1.778017,-0.779942,1.600000,-0.800000,0.000000,-0.800000,-0.600000,-0.800000,-0.605014,-0.794986,-0.644504,-0.794986,-0.724698,-0.756366,-0.780194,-0.686777,
-0.800000,-0.600000,-0.800000,0.600000,-0.780194,0.686777,-0.724698,0.756366,-0.644504,0.794986,-0.605014,0.794986,-0.600000,0.800000,1.600000,0.800000,1.778017,0.779942,1.778017,0.779942,$1*%
G04 Aperture macros list end*
%ADD10C,0.125000*%
%ADD11C,0.800000*%
%ADD12C,1.700000*%
%ADD13C,4.000000*%
%ADD14C,2.200000*%
%ADD15C,3.600000*%
%ADD16C,5.600000*%
%ADD17C,1.850000*%
%ADD18RoundRect,0.200000X-0.600000X-0.600000X0.600000X-0.600000X0.600000X0.600000X-0.600000X0.600000X0*%
%ADD19FreePoly0,0.000000*%
%ADD20C,1.600000*%
%ADD21RoundRect,0.800000X-0.800000X-0.000010X0.800000X-0.000010X0.800000X0.000010X-0.800000X0.000010X0*%
%ADD22FreePoly1,0.000000*%
%ADD23FreePoly2,0.000000*%
%ADD24FreePoly3,0.000000*%
%ADD25FreePoly4,0.000000*%
G04 APERTURE END LIST*
D10*
G36*
X115259578Y-119770000D02*
G01*
X115259578Y-116706217D01*
X115669906Y-116706217D01*
X115707030Y-117174187D01*
X115844712Y-117012294D01*
X116003866Y-116878569D01*
X116167184Y-116781444D01*
X116355209Y-116703016D01*
X116557167Y-116654588D01*
X116706472Y-116643691D01*
X116914018Y-116658590D01*
X117111159Y-116710969D01*
X117285067Y-116813398D01*
X117354204Y-116882072D01*
X117460851Y-117049283D01*
X117527998Y-117252940D01*
X117554660Y-117467391D01*
X117556437Y-117545436D01*
X117556437Y-119770000D01*
X117074790Y-119770000D01*
X117074790Y-117915708D01*
X117070634Y-117715204D01*
X117055007Y-117515455D01*
X117039619Y-117412568D01*
X116972149Y-117221813D01*
X116895028Y-117132177D01*
X116711235Y-117054935D01*
X116556996Y-117042295D01*
X116353425Y-117071227D01*
X116222871Y-117124361D01*
X116049302Y-117235464D01*
X115944435Y-117328548D01*
X115814225Y-117474256D01*
X115742201Y-117574745D01*
X115742201Y-119770000D01*
X115259578Y-119770000D01*
G37*
G36*
X119848412Y-115268115D02*
G01*
X120038242Y-115314754D01*
X120104379Y-115366789D01*
X120196471Y-115547801D01*
X120201099Y-115608101D01*
X120146694Y-115803007D01*
X120104379Y-115856252D01*
X119924494Y-115949675D01*
X119848412Y-115955903D01*
X119657590Y-115904423D01*
X119598308Y-115856252D01*
X119506716Y-115678932D01*
X119500610Y-115608101D01*
X119555565Y-115418874D01*
X119598308Y-115366789D01*
X119775628Y-115274282D01*
X119848412Y-115268115D01*
G37*
G36*
X120233339Y-116706217D02*
G01*
X120233339Y-119371395D01*
X121086235Y-119371395D01*
X121086235Y-119770000D01*
X118816730Y-119770000D01*
X118816730Y-119371395D01*
X119750715Y-119371395D01*
X119750715Y-117104822D01*
X118846040Y-117104822D01*
X118846040Y-116706217D01*
X120233339Y-116706217D01*
G37*
G36*
X123512055Y-119433921D02*
G01*
X123717892Y-119417821D01*
X123910419Y-119369521D01*
X123935084Y-119360648D01*
X124124616Y-119275163D01*
X124298517Y-119167208D01*
X124533967Y-119487655D01*
X124360078Y-119606711D01*
X124175522Y-119696859D01*
X124057205Y-119740690D01*
X123867165Y-119792976D01*
X123663008Y-119825261D01*
X123512055Y-119832526D01*
X123295167Y-119820314D01*
X123094888Y-119783677D01*
X122889426Y-119713266D01*
X122744155Y-119637131D01*
X122577454Y-119514076D01*
X122434555Y-119365827D01*
X122315458Y-119192385D01*
X122259578Y-119085143D01*
X122186915Y-118899213D01*
X122135014Y-118698018D01*
X122103873Y-118481557D01*
X122093655Y-118279633D01*
X122093492Y-118249832D01*
X122101440Y-118053570D01*
X122129986Y-117840606D01*
X122179292Y-117639732D01*
X122249359Y-117450947D01*
X122259578Y-117428199D01*
X122352573Y-117256069D01*
X122479819Y-117085340D01*
X122631021Y-116938878D01*
X122745132Y-116854717D01*
X122935026Y-116752707D01*
X123121857Y-116690059D01*
X123325662Y-116653789D01*
X123517917Y-116643691D01*
X123729389Y-116655918D01*
X123930763Y-116692601D01*
X124122040Y-116753738D01*
X124303219Y-116839330D01*
X124474299Y-116949376D01*
X124529082Y-116991493D01*
X124293632Y-117343203D01*
X124121660Y-117225955D01*
X123925808Y-117127219D01*
X123730689Y-117066098D01*
X123536302Y-117042589D01*
X123512055Y-117042295D01*
X123303133Y-117066175D01*
X123116004Y-117137813D01*
X122950667Y-117257211D01*
X122868231Y-117344180D01*
X122757955Y-117514112D01*
X122679187Y-117723000D01*
X122636110Y-117937735D01*
X122618388Y-118145532D01*
X122616172Y-118257648D01*
X122625034Y-118478268D01*
X122651618Y-118674845D01*
X122705033Y-118873798D01*
X122795616Y-119061102D01*
X122868231Y-119156461D01*
X123021460Y-119290585D01*
X123196482Y-119380814D01*
X123393297Y-119427147D01*
X123512055Y-119433921D01*
G37*
G36*
X126968946Y-116658907D02*
G01*
X127175942Y-116704553D01*
X127360956Y-116780631D01*
X127549023Y-116907850D01*
X127686409Y-117049862D01*
X127707170Y-117076489D01*
X127818396Y-117249093D01*
X127906610Y-117442304D01*
X127971811Y-117656123D01*
X128008567Y-117850048D01*
X128029342Y-118058285D01*
X128034455Y-118235177D01*
X128027303Y-118434772D01*
X128001611Y-118650285D01*
X127957236Y-118852366D01*
X127894175Y-119041013D01*
X127884979Y-119063649D01*
X127790242Y-119253672D01*
X127673094Y-119419274D01*
X127533535Y-119560456D01*
X127446319Y-119628339D01*
X127272671Y-119727042D01*
X127078157Y-119793443D01*
X126862778Y-119827541D01*
X126734107Y-119832526D01*
X126504694Y-119817207D01*
X126297126Y-119771251D01*
X126111402Y-119694658D01*
X125947522Y-119587428D01*
X125805488Y-119449561D01*
X125762997Y-119396796D01*
X125650775Y-119223403D01*
X125561771Y-119030020D01*
X125495986Y-118816647D01*
X125458901Y-118623567D01*
X125437940Y-118416604D01*
X125432810Y-118242016D01*
X125949599Y-118242016D01*
X125956502Y-118458801D01*
X125977213Y-118653398D01*
X126018827Y-118852384D01*
X126089398Y-119042817D01*
X126145970Y-119141807D01*
X126288203Y-119295852D01*
X126468218Y-119392843D01*
X126662534Y-119431354D01*
X126734107Y-119433921D01*
X126938074Y-119410737D01*
X127128813Y-119330595D01*
X127281770Y-119193209D01*
X127320289Y-119140830D01*
X127415687Y-118950455D01*
X127474275Y-118739322D01*
X127505303Y-118522224D01*
X127516867Y-118312102D01*
X127517638Y-118237131D01*
X127510768Y-118019351D01*
X127490160Y-117823964D01*
X127448753Y-117624317D01*
X127378534Y-117433471D01*
X127322243Y-117334410D01*
X127181422Y-117180365D01*
X127003201Y-117083374D01*
X126810826Y-117044863D01*
X126739968Y-117042295D01*
X126535219Y-117065557D01*
X126343069Y-117145966D01*
X126188127Y-117283811D01*
X126148901Y-117336364D01*
X126052558Y-117526498D01*
X125993391Y-117737936D01*
X125962055Y-117955703D01*
X125950377Y-118166694D01*
X125949599Y-118242016D01*
X125432810Y-118242016D01*
X125432781Y-118241039D01*
X125439933Y-118040256D01*
X125465625Y-117823613D01*
X125510001Y-117620647D01*
X125573061Y-117431359D01*
X125582257Y-117408660D01*
X125677543Y-117218001D01*
X125795241Y-117052691D01*
X125935349Y-116912728D01*
X126022871Y-116845924D01*
X126197696Y-116748165D01*
X126393540Y-116682400D01*
X126610405Y-116648628D01*
X126739968Y-116643691D01*
X126968946Y-116658907D01*
G37*
D11*
G36*
X130079257Y-119220942D02*
G01*
X130283932Y-119202868D01*
X130444644Y-119148646D01*
X130575619Y-118998620D01*
X130584351Y-118930781D01*
X130529640Y-118765673D01*
X130365678Y-118656785D01*
X130319592Y-118637690D01*
X130127617Y-118571011D01*
X129934268Y-118512988D01*
X129860415Y-118492121D01*
X129660624Y-118429717D01*
X129459216Y-118344623D01*
X129282536Y-118243764D01*
X129178489Y-118167766D01*
X129039900Y-118015992D01*
X128952641Y-117825674D01*
X128917993Y-117621431D01*
X128915684Y-117546413D01*
X128936933Y-117349187D01*
X129011637Y-117148619D01*
X129140128Y-116970618D01*
X129255670Y-116864487D01*
X129445019Y-116746517D01*
X129641654Y-116670943D01*
X129833194Y-116626705D01*
X130045960Y-116601426D01*
X130239480Y-116594842D01*
X130437072Y-116601742D01*
X130643599Y-116626000D01*
X130853495Y-116673436D01*
X130950715Y-116705240D01*
X131131989Y-116780059D01*
X131312878Y-116875803D01*
X131474372Y-116985631D01*
X131112892Y-117531758D01*
X130941441Y-117435961D01*
X130758771Y-117358865D01*
X130704518Y-117340272D01*
X130513326Y-117291518D01*
X130307232Y-117269580D01*
X130265858Y-117268953D01*
X130054755Y-117287732D01*
X129871799Y-117381163D01*
X129829152Y-117506357D01*
X129884839Y-117641179D01*
X130058801Y-117742585D01*
X130095865Y-117757438D01*
X130287107Y-117823872D01*
X130477662Y-117882674D01*
X130550157Y-117903984D01*
X130744552Y-117964865D01*
X130935817Y-118038389D01*
X131065021Y-118098401D01*
X131238288Y-118208544D01*
X131381600Y-118358510D01*
X131405007Y-118392470D01*
X131487820Y-118575808D01*
X131521892Y-118768974D01*
X131526151Y-118878025D01*
X131506784Y-119077483D01*
X131440740Y-119272424D01*
X131327826Y-119441737D01*
X131176680Y-119584613D01*
X131012426Y-119690859D01*
X130822604Y-119774589D01*
X130802215Y-119781723D01*
X130613171Y-119836506D01*
X130414236Y-119873360D01*
X130205408Y-119892285D01*
X130085118Y-119895052D01*
X129870307Y-119886992D01*
X129668440Y-119862812D01*
X129456813Y-119816341D01*
X129303541Y-119766092D01*
X129120809Y-119686588D01*
X128936443Y-119583204D01*
X128771732Y-119463983D01*
X128726151Y-119425129D01*
X129183374Y-118899518D01*
X129347932Y-119011263D01*
X129530443Y-119105430D01*
X129585886Y-119129106D01*
X129776185Y-119188566D01*
X129980350Y-119217713D01*
X130079257Y-119220942D01*
G37*
G36*
X135044225Y-119607822D02*
G01*
X134873576Y-119705863D01*
X134689665Y-119784175D01*
X134612404Y-119811032D01*
X134414430Y-119862232D01*
X134217264Y-119888406D01*
X134044783Y-119895052D01*
X133831388Y-119884130D01*
X133609775Y-119843778D01*
X133417614Y-119773694D01*
X133234065Y-119657190D01*
X133156716Y-119584375D01*
X133030199Y-119414687D01*
X132939829Y-119217278D01*
X132890408Y-119021804D01*
X132868663Y-118805107D01*
X132867533Y-118739295D01*
X132867533Y-117331479D01*
X132226640Y-117331479D01*
X132226640Y-116706217D01*
X132867533Y-116706217D01*
X132867533Y-116037969D01*
X133774162Y-115926594D01*
X133774162Y-116706217D01*
X134756996Y-116706217D01*
X134668091Y-117331479D01*
X133774162Y-117331479D01*
X133774162Y-118720732D01*
X133800052Y-118916127D01*
X133877721Y-119047041D01*
X134055255Y-119130999D01*
X134207938Y-119144738D01*
X134407311Y-119128329D01*
X134502006Y-119106636D01*
X134687386Y-119035928D01*
X134742341Y-119006985D01*
X135044225Y-119607822D01*
G37*
G36*
X137302006Y-116593133D02*
G01*
X137498377Y-116629036D01*
X137701778Y-116698039D01*
X137847156Y-116772651D01*
X138016047Y-116893655D01*
X138162218Y-117041242D01*
X138285668Y-117215414D01*
X138344435Y-117323663D01*
X138421798Y-117512402D01*
X138477058Y-117719092D01*
X138507279Y-117914673D01*
X138520576Y-118123997D01*
X138521266Y-118186329D01*
X138516381Y-118358276D01*
X138503681Y-118519476D01*
X136528245Y-118519476D01*
X136566129Y-118713732D01*
X136645176Y-118905609D01*
X136772488Y-119057787D01*
X136948783Y-119163423D01*
X137138423Y-119213134D01*
X137260973Y-119220942D01*
X137466626Y-119203845D01*
X137665439Y-119152554D01*
X137857170Y-119071709D01*
X138030263Y-118975066D01*
X138041573Y-118967906D01*
X138405984Y-119473000D01*
X138247481Y-119592095D01*
X138067505Y-119695490D01*
X137885258Y-119775861D01*
X137685838Y-119838716D01*
X137492165Y-119875381D01*
X137285046Y-119893189D01*
X137188677Y-119895052D01*
X136968093Y-119884907D01*
X136763683Y-119854473D01*
X136549879Y-119794847D01*
X136357202Y-119708721D01*
X136312334Y-119683049D01*
X136146860Y-119566606D01*
X136003123Y-119430258D01*
X135881123Y-119274003D01*
X135780862Y-119097843D01*
X135703070Y-118904769D01*
X135647505Y-118697773D01*
X135614166Y-118476856D01*
X135603226Y-118272133D01*
X135603053Y-118242016D01*
X135611281Y-118045100D01*
X135623409Y-117956741D01*
X136516521Y-117956741D01*
X137637107Y-117956741D01*
X137623159Y-117757416D01*
X137574432Y-117552984D01*
X137507170Y-117411591D01*
X137365479Y-117271342D01*
X137177648Y-117211435D01*
X137090980Y-117206427D01*
X136895407Y-117240647D01*
X136726121Y-117353261D01*
X136697261Y-117385212D01*
X136595792Y-117565787D01*
X136539907Y-117773742D01*
X136516521Y-117956741D01*
X135623409Y-117956741D01*
X135640834Y-117829785D01*
X135691881Y-117624850D01*
X135764421Y-117430295D01*
X135775000Y-117406706D01*
X135871354Y-117227737D01*
X135987491Y-117067941D01*
X136123412Y-116927318D01*
X136279117Y-116805868D01*
X136454422Y-116707561D01*
X136648168Y-116637341D01*
X136860354Y-116595209D01*
X137061143Y-116581384D01*
X137090980Y-116581165D01*
X137302006Y-116593133D01*
G37*
G36*
X139184630Y-119770000D02*
G01*
X139184630Y-116706217D01*
X139976954Y-116706217D01*
X140039480Y-117047180D01*
X140182514Y-116899067D01*
X140344607Y-116770404D01*
X140470324Y-116696448D01*
X140665596Y-116621807D01*
X140864166Y-116586681D01*
X140988119Y-116581165D01*
X141194251Y-116600253D01*
X141392469Y-116666237D01*
X141558249Y-116779352D01*
X141601657Y-116822477D01*
X141720153Y-116992569D01*
X141789276Y-117178608D01*
X141822850Y-117395867D01*
X141826361Y-117502449D01*
X141826361Y-119770000D01*
X140918754Y-119770000D01*
X140918754Y-117764277D01*
X140908596Y-117561191D01*
X140857205Y-117367627D01*
X140685598Y-117259225D01*
X140625663Y-117255275D01*
X140434195Y-117300067D01*
X140351134Y-117350041D01*
X140196833Y-117487248D01*
X140091259Y-117610893D01*
X140091259Y-119770000D01*
X139184630Y-119770000D01*
G37*
G36*
X144147629Y-116604613D02*
G01*
X144358899Y-116639708D01*
X144552584Y-116700326D01*
X144728683Y-116786467D01*
X144749459Y-116799030D01*
X144922918Y-116926945D01*
X145071802Y-117080981D01*
X145196111Y-117261138D01*
X145254553Y-117372512D01*
X145331062Y-117565097D01*
X145385712Y-117773558D01*
X145415598Y-117968985D01*
X145428748Y-118176567D01*
X145429431Y-118238108D01*
X145419890Y-118472338D01*
X145391268Y-118690206D01*
X145343564Y-118891711D01*
X145276779Y-119076854D01*
X145171450Y-119277427D01*
X145038642Y-119454438D01*
X144881541Y-119604178D01*
X144702595Y-119722937D01*
X144501804Y-119810716D01*
X144279169Y-119867513D01*
X144076953Y-119891179D01*
X143948342Y-119895052D01*
X143736719Y-119884438D01*
X143540266Y-119852596D01*
X143324546Y-119786364D01*
X143130671Y-119689563D01*
X142958640Y-119562195D01*
X142856088Y-119460300D01*
X142723613Y-119285074D01*
X142618547Y-119085463D01*
X142551929Y-118900492D01*
X142504344Y-118698586D01*
X142475794Y-118479746D01*
X142466277Y-118243970D01*
X142466355Y-118242016D01*
X143402215Y-118242016D01*
X143408620Y-118454093D01*
X143431625Y-118663149D01*
X143477503Y-118855860D01*
X143536060Y-118989399D01*
X143668673Y-119139314D01*
X143864861Y-119215289D01*
X143948342Y-119220942D01*
X144150548Y-119182728D01*
X144314572Y-119056103D01*
X144359647Y-118989399D01*
X144435850Y-118795928D01*
X144474670Y-118586628D01*
X144491401Y-118362046D01*
X144493492Y-118236154D01*
X144487088Y-118028646D01*
X144464083Y-117823436D01*
X144418205Y-117633302D01*
X144359647Y-117500495D01*
X144227668Y-117350580D01*
X144031800Y-117274606D01*
X143948342Y-117268953D01*
X143745976Y-117307489D01*
X143581417Y-117435182D01*
X143536060Y-117502449D01*
X143459858Y-117694745D01*
X143421037Y-117900336D01*
X143404307Y-118119544D01*
X143402215Y-118242016D01*
X142466355Y-118242016D01*
X142474692Y-118034011D01*
X142499937Y-117835833D01*
X142549396Y-117623769D01*
X142620837Y-117427092D01*
X142642132Y-117380327D01*
X142740195Y-117204961D01*
X142873580Y-117032197D01*
X143031386Y-116885400D01*
X143150157Y-116801960D01*
X143324607Y-116711346D01*
X143515788Y-116646622D01*
X143723700Y-116607787D01*
X143919347Y-116595045D01*
X143948342Y-116594842D01*
X144147629Y-116604613D01*
G37*
%LPC*%
D12*
X182880000Y-98425000D03*
D13*
X177800000Y-98425000D03*
D12*
X172720000Y-98425000D03*
D14*
X175260000Y-103505000D03*
X181610000Y-100965000D03*
D12*
X240030000Y-79375000D03*
D13*
X234950000Y-79375000D03*
D12*
X229870000Y-79375000D03*
D14*
X232410000Y-84455000D03*
X238760000Y-81915000D03*
D12*
X259080000Y-98425000D03*
D13*
X254000000Y-98425000D03*
D12*
X248920000Y-98425000D03*
D14*
X251460000Y-103505000D03*
X257810000Y-100965000D03*
D12*
X30480000Y-98425000D03*
D13*
X25400000Y-98425000D03*
D12*
X20320000Y-98425000D03*
D14*
X22860000Y-103505000D03*
X29210000Y-100965000D03*
D12*
X201930000Y-79375000D03*
D13*
X196850000Y-79375000D03*
D12*
X191770000Y-79375000D03*
D14*
X194310000Y-84455000D03*
X200660000Y-81915000D03*
D12*
X68580000Y-79375000D03*
D13*
X63500000Y-79375000D03*
D12*
X58420000Y-79375000D03*
D14*
X60960000Y-84455000D03*
X67310000Y-81915000D03*
D12*
X87630000Y-79375000D03*
D13*
X82550000Y-79375000D03*
D12*
X77470000Y-79375000D03*
D14*
X80010000Y-84455000D03*
X86360000Y-81915000D03*
D12*
X163830000Y-136525000D03*
D13*
X158750000Y-136525000D03*
D12*
X153670000Y-136525000D03*
D14*
X156210000Y-141605000D03*
X162560000Y-139065000D03*
D12*
X259080000Y-79375000D03*
D13*
X254000000Y-79375000D03*
D12*
X248920000Y-79375000D03*
D14*
X251460000Y-84455000D03*
X257810000Y-81915000D03*
D12*
X68580000Y-98425000D03*
D13*
X63500000Y-98425000D03*
D12*
X58420000Y-98425000D03*
D14*
X60960000Y-103505000D03*
X67310000Y-100965000D03*
D12*
X49530000Y-79375000D03*
D13*
X44450000Y-79375000D03*
D12*
X39370000Y-79375000D03*
D14*
X41910000Y-84455000D03*
X48260000Y-81915000D03*
D12*
X220980000Y-98425000D03*
D13*
X215900000Y-98425000D03*
D12*
X210820000Y-98425000D03*
D14*
X213360000Y-103505000D03*
X219710000Y-100965000D03*
D12*
X240030000Y-98425000D03*
D13*
X234950000Y-98425000D03*
D12*
X229870000Y-98425000D03*
D14*
X232410000Y-103505000D03*
X238760000Y-100965000D03*
D12*
X158750000Y-83820000D03*
D13*
X158750000Y-88900000D03*
D12*
X158750000Y-93980000D03*
D14*
X163830000Y-91440000D03*
X161290000Y-85090000D03*
D12*
X201930000Y-98425000D03*
D13*
X196850000Y-98425000D03*
D12*
X191770000Y-98425000D03*
D14*
X194310000Y-103505000D03*
X200660000Y-100965000D03*
D12*
X101600000Y-93980000D03*
D13*
X101600000Y-88900000D03*
D12*
X101600000Y-83820000D03*
D14*
X96520000Y-86360000D03*
X99060000Y-92710000D03*
D12*
X230505000Y-60325000D03*
D13*
X225425000Y-60325000D03*
D12*
X220345000Y-60325000D03*
D14*
X222885000Y-65405000D03*
X229235000Y-62865000D03*
D12*
X87630000Y-136525000D03*
D13*
X82550000Y-136525000D03*
D12*
X77470000Y-136525000D03*
D14*
X80010000Y-141605000D03*
X86360000Y-139065000D03*
D12*
X182880000Y-79375000D03*
D13*
X177800000Y-79375000D03*
D12*
X172720000Y-79375000D03*
D14*
X175260000Y-84455000D03*
X181610000Y-81915000D03*
D12*
X30480000Y-79375000D03*
D13*
X25400000Y-79375000D03*
D12*
X20320000Y-79375000D03*
D14*
X22860000Y-84455000D03*
X29210000Y-81915000D03*
D12*
X106680000Y-136525000D03*
D13*
X101600000Y-136525000D03*
D12*
X96520000Y-136525000D03*
D14*
X99060000Y-141605000D03*
X105410000Y-139065000D03*
D12*
X192405000Y-60325000D03*
D13*
X187325000Y-60325000D03*
D12*
X182245000Y-60325000D03*
D14*
X184785000Y-65405000D03*
X191135000Y-62865000D03*
D12*
X220980000Y-79375000D03*
D13*
X215900000Y-79375000D03*
D12*
X210820000Y-79375000D03*
D14*
X213360000Y-84455000D03*
X219710000Y-81915000D03*
D12*
X182880000Y-136525000D03*
D13*
X177800000Y-136525000D03*
D12*
X172720000Y-136525000D03*
D14*
X175260000Y-141605000D03*
X181610000Y-139065000D03*
D12*
X87630000Y-98425000D03*
D13*
X82550000Y-98425000D03*
D12*
X77470000Y-98425000D03*
D14*
X80010000Y-103505000D03*
X86360000Y-100965000D03*
D12*
X40005000Y-60325000D03*
D13*
X34925000Y-60325000D03*
D12*
X29845000Y-60325000D03*
D14*
X32385000Y-65405000D03*
X38735000Y-62865000D03*
D12*
X49530000Y-98425000D03*
D13*
X44450000Y-98425000D03*
D12*
X39370000Y-98425000D03*
D14*
X41910000Y-103505000D03*
X48260000Y-100965000D03*
D12*
X78105000Y-60325000D03*
D13*
X73025000Y-60325000D03*
D12*
X67945000Y-60325000D03*
D14*
X70485000Y-65405000D03*
X76835000Y-62865000D03*
D15*
X254000000Y-136525000D03*
D16*
X254000000Y-136525000D03*
D15*
X22225000Y-60325000D03*
D16*
X22225000Y-60325000D03*
D15*
X196850000Y-136525000D03*
D16*
X196850000Y-136525000D03*
D15*
X254000000Y-60325000D03*
D16*
X254000000Y-60325000D03*
D15*
X158750000Y-60325000D03*
D16*
X158750000Y-60325000D03*
D15*
X25400000Y-136525000D03*
D16*
X25400000Y-136525000D03*
D14*
X127450000Y-52835000D03*
D17*
X127750000Y-55865000D03*
X132600000Y-55865000D03*
D14*
X132900000Y-52835000D03*
D18*
X121285000Y-52705000D03*
D19*
X121285000Y-52705000D03*
D20*
X121285000Y-55245000D03*
D21*
X120485000Y-55245000D03*
D22*
X121285000Y-57785000D03*
D23*
X121285000Y-57785000D03*
D20*
X121285000Y-60325000D03*
D21*
X120485000Y-60325000D03*
D20*
X121285000Y-62865000D03*
D21*
X120485000Y-62865000D03*
D20*
X121285000Y-65405000D03*
D21*
X120485000Y-65405000D03*
D20*
X121285000Y-67945000D03*
D21*
X120485000Y-67945000D03*
D22*
X121285000Y-70485000D03*
D23*
X121285000Y-70485000D03*
D20*
X121285000Y-73025000D03*
D21*
X120485000Y-73025000D03*
D20*
X121285000Y-75565000D03*
D21*
X120485000Y-75565000D03*
D20*
X121285000Y-78105000D03*
D21*
X120485000Y-78105000D03*
D20*
X121285000Y-80645000D03*
D21*
X120485000Y-80645000D03*
D22*
X121285000Y-83185000D03*
D23*
X121285000Y-83185000D03*
D20*
X121285000Y-85725000D03*
D21*
X120485000Y-85725000D03*
D20*
X121285000Y-88265000D03*
D21*
X120485000Y-88265000D03*
D20*
X121285000Y-90805000D03*
D21*
X120485000Y-90805000D03*
D20*
X121285000Y-93345000D03*
D21*
X120485000Y-93345000D03*
D22*
X121285000Y-95885000D03*
D23*
X121285000Y-95885000D03*
D20*
X121285000Y-98425000D03*
D21*
X120485000Y-98425000D03*
D20*
X121285000Y-100965000D03*
D21*
X120485000Y-100965000D03*
D20*
X139065000Y-100965000D03*
D21*
X139865000Y-100965000D03*
D20*
X139065000Y-98425000D03*
D21*
X139865000Y-98425000D03*
D24*
X139065000Y-95885000D03*
D25*
X139065000Y-95885000D03*
D20*
X139065000Y-93345000D03*
D21*
X139865000Y-93345000D03*
D20*
X139065000Y-90805000D03*
D21*
X139865000Y-90805000D03*
D20*
X139065000Y-88265000D03*
D21*
X139865000Y-88265000D03*
D20*
X139065000Y-85725000D03*
D21*
X139865000Y-85725000D03*
D24*
X139065000Y-83185000D03*
D25*
X139065000Y-83185000D03*
D20*
X139065000Y-80645000D03*
D21*
X139865000Y-80645000D03*
D20*
X139065000Y-78105000D03*
D21*
X139865000Y-78105000D03*
D20*
X139065000Y-75565000D03*
D21*
X139865000Y-75565000D03*
D20*
X139065000Y-73025000D03*
D21*
X139865000Y-73025000D03*
D24*
X139065000Y-70485000D03*
D25*
X139065000Y-70485000D03*
D20*
X139065000Y-67945000D03*
D21*
X139865000Y-67945000D03*
D20*
X139065000Y-65405000D03*
D21*
X139865000Y-65405000D03*
D20*
X139065000Y-62865000D03*
D21*
X139865000Y-62865000D03*
D20*
X139065000Y-60325000D03*
D21*
X139865000Y-60325000D03*
D24*
X139065000Y-57785000D03*
D25*
X139065000Y-57785000D03*
D20*
X139065000Y-55245000D03*
D21*
X139865000Y-55245000D03*
D20*
X139065000Y-52705000D03*
D21*
X139865000Y-52705000D03*
D15*
X117475000Y-136525000D03*
D16*
X117475000Y-136525000D03*
D15*
X101600000Y-60325000D03*
D16*
X101600000Y-60325000D03*
D15*
X63500000Y-136525000D03*
D16*
X63500000Y-136525000D03*
D15*
X142875000Y-136525000D03*
D16*
X142875000Y-136525000D03*
%LPD*%
M02*
