M48
; DRILL file {KiCad 8.0.4} date 2024-08-07T22:08:13-0400
; FORMAT={-:-/ absolute / metric / decimal}
; #@! TF.CreationDate,2024-08-07T22:08:13-04:00
; #@! TF.GenerationSoftware,Kicad,Pcbnew,8.0.4
; #@! TF.FileFunction,Plated,1,2,PTH
FMAT,2
METRIC
; #@! TA.AperFunction,Plated,PTH,ComponentDrill
T1C1.000
; #@! TA.AperFunction,Plated,PTH,ComponentDrill
T2C1.500
; #@! TA.AperFunction,Plated,PTH,ComponentDrill
T3C3.200
%
G90
G05
T1
X121.285Y-52.705
X121.285Y-55.245
X121.285Y-57.785
X121.285Y-60.325
X121.285Y-62.865
X121.285Y-65.405
X121.285Y-67.945
X121.285Y-70.485
X121.285Y-73.025
X121.285Y-75.565
X121.285Y-78.105
X121.285Y-80.645
X121.285Y-83.185
X121.285Y-85.725
X121.285Y-88.265
X121.285Y-90.805
X121.285Y-93.345
X121.285Y-95.885
X121.285Y-98.425
X121.285Y-100.965
X139.065Y-52.705
X139.065Y-55.245
X139.065Y-57.785
X139.065Y-60.325
X139.065Y-62.865
X139.065Y-65.405
X139.065Y-67.945
X139.065Y-70.485
X139.065Y-73.025
X139.065Y-75.565
X139.065Y-78.105
X139.065Y-80.645
X139.065Y-83.185
X139.065Y-85.725
X139.065Y-88.265
X139.065Y-90.805
X139.065Y-93.345
X139.065Y-95.885
X139.065Y-98.425
X139.065Y-100.965
T2
X22.86Y-84.455
X22.86Y-103.505
X29.21Y-81.915
X29.21Y-100.965
X32.385Y-65.405
X38.735Y-62.865
X41.91Y-84.455
X41.91Y-103.505
X48.26Y-81.915
X48.26Y-100.965
X60.96Y-84.455
X60.96Y-103.505
X67.31Y-81.915
X67.31Y-100.965
X70.485Y-65.405
X76.835Y-62.865
X80.01Y-84.455
X80.01Y-103.505
X80.01Y-141.605
X86.36Y-81.915
X86.36Y-100.965
X86.36Y-139.065
X96.52Y-86.36
X99.06Y-92.71
X99.06Y-141.605
X105.41Y-139.065
X156.21Y-141.605
X161.29Y-85.09
X162.56Y-139.065
X163.83Y-91.44
X175.26Y-84.455
X175.26Y-103.505
X175.26Y-141.605
X181.61Y-81.915
X181.61Y-100.965
X181.61Y-139.065
X184.785Y-65.405
X191.135Y-62.865
X194.31Y-84.455
X194.31Y-103.505
X200.66Y-81.915
X200.66Y-100.965
X213.36Y-84.455
X213.36Y-103.505
X219.71Y-81.915
X219.71Y-100.965
X222.885Y-65.405
X229.235Y-62.865
X232.41Y-84.455
X232.41Y-103.505
X238.76Y-81.915
X238.76Y-100.965
X251.46Y-84.455
X251.46Y-103.505
X257.81Y-81.915
X257.81Y-100.965
T3
X22.225Y-60.325
X25.4Y-136.525
X63.5Y-136.525
X101.6Y-60.325
X117.475Y-136.525
X142.875Y-136.525
X158.75Y-60.325
X196.85Y-136.525
X254.0Y-60.325
X254.0Y-136.525
M30
