M48
; DRILL file {KiCad 8.0.4} date 2024-08-07T22:08:13-0400
; FORMAT={-:-/ absolute / metric / decimal}
; #@! TF.CreationDate,2024-08-07T22:08:13-04:00
; #@! TF.GenerationSoftware,Kicad,Pcbnew,8.0.4
; #@! TF.FileFunction,NonPlated,1,2,NPTH
FMAT,2
METRIC
; #@! TA.AperFunction,NonPlated,NPTH,ComponentDrill
T1C1.700
; #@! TA.AperFunction,NonPlated,NPTH,ComponentDrill
T2C1.850
; #@! TA.AperFunction,NonPlated,NPTH,ComponentDrill
T3C2.200
; #@! TA.AperFunction,NonPlated,NPTH,ComponentDrill
T4C4.000
%
G90
G05
T1
X20.32Y-79.375
X20.32Y-98.425
X29.845Y-60.325
X30.48Y-79.375
X30.48Y-98.425
X39.37Y-79.375
X39.37Y-98.425
X40.005Y-60.325
X49.53Y-79.375
X49.53Y-98.425
X58.42Y-79.375
X58.42Y-98.425
X67.945Y-60.325
X68.58Y-79.375
X68.58Y-98.425
X77.47Y-79.375
X77.47Y-98.425
X77.47Y-136.525
X78.105Y-60.325
X87.63Y-79.375
X87.63Y-98.425
X87.63Y-136.525
X96.52Y-136.525
X101.6Y-83.82
X101.6Y-93.98
X106.68Y-136.525
X153.67Y-136.525
X158.75Y-83.82
X158.75Y-93.98
X163.83Y-136.525
X172.72Y-79.375
X172.72Y-98.425
X172.72Y-136.525
X182.245Y-60.325
X182.88Y-79.375
X182.88Y-98.425
X182.88Y-136.525
X191.77Y-79.375
X191.77Y-98.425
X192.405Y-60.325
X201.93Y-79.375
X201.93Y-98.425
X210.82Y-79.375
X210.82Y-98.425
X220.345Y-60.325
X220.98Y-79.375
X220.98Y-98.425
X229.87Y-79.375
X229.87Y-98.425
X230.505Y-60.325
X240.03Y-79.375
X240.03Y-98.425
X248.92Y-79.375
X248.92Y-98.425
X259.08Y-79.375
X259.08Y-98.425
T2
X127.75Y-55.865
X132.6Y-55.865
T3
X127.45Y-52.835
X132.9Y-52.835
T4
X25.4Y-79.375
X25.4Y-98.425
X34.925Y-60.325
X44.45Y-79.375
X44.45Y-98.425
X63.5Y-79.375
X63.5Y-98.425
X73.025Y-60.325
X82.55Y-79.375
X82.55Y-98.425
X82.55Y-136.525
X101.6Y-88.9
X101.6Y-136.525
X158.75Y-88.9
X158.75Y-136.525
X177.8Y-79.375
X177.8Y-98.425
X177.8Y-136.525
X187.325Y-60.325
X196.85Y-79.375
X196.85Y-98.425
X215.9Y-79.375
X215.9Y-98.425
X225.425Y-60.325
X234.95Y-79.375
X234.95Y-98.425
X254.0Y-79.375
X254.0Y-98.425
M30
