G04 #@! TF.GenerationSoftware,KiCad,Pcbnew,8.0.4*
G04 #@! TF.CreationDate,2024-08-07T22:07:56-04:00*
G04 #@! TF.ProjectId,steno,7374656e-6f2e-46b6-9963-61645f706362,1*
G04 #@! TF.SameCoordinates,Original*
G04 #@! TF.FileFunction,Legend,Bot*
G04 #@! TF.FilePolarity,Positive*
%FSLAX46Y46*%
G04 Gerber Fmt 4.6, Leading zero omitted, Abs format (unit mm)*
G04 Created by KiCad (PCBNEW 8.0.4) date 2024-08-07 22:07:56*
%MOMM*%
%LPD*%
G01*
G04 APERTURE LIST*
G04 Aperture macros list*
%AMRoundRect*
0 Rectangle with rounded corners*
0 $1 Rounding radius*
0 $2 $3 $4 $5 $6 $7 $8 $9 X,Y pos of 4 corners*
0 Add a 4 corners polygon primitive as box body*
4,1,4,$2,$3,$4,$5,$6,$7,$8,$9,$2,$3,0*
0 Add four circle primitives for the rounded corners*
1,1,$1+$1,$2,$3*
1,1,$1+$1,$4,$5*
1,1,$1+$1,$6,$7*
1,1,$1+$1,$8,$9*
0 Add four rect primitives between the rounded corners*
20,1,$1+$1,$2,$3,$4,$5,0*
20,1,$1+$1,$4,$5,$6,$7,0*
20,1,$1+$1,$6,$7,$8,$9,0*
20,1,$1+$1,$8,$9,$2,$3,0*%
%AMFreePoly0*
4,1,28,0.605014,0.794986,0.644504,0.794986,0.724698,0.756366,0.780194,0.686777,0.800000,0.600000,0.800000,-0.600000,0.780194,-0.686777,0.724698,-0.756366,0.644504,-0.794986,0.605014,-0.794986,0.600000,-0.800000,0.000000,-0.800000,-0.178017,-0.779942,-0.347107,-0.720775,-0.498792,-0.625465,-0.625465,-0.498792,-0.720775,-0.347107,-0.779942,-0.178017,-0.800000,0.000000,-0.779942,0.178017,
-0.720775,0.347107,-0.625465,0.498792,-0.498792,0.625465,-0.347107,0.720775,-0.178017,0.779942,0.000000,0.800000,0.600000,0.800000,0.605014,0.794986,0.605014,0.794986,$1*%
%AMFreePoly1*
4,1,28,0.178017,0.779942,0.347107,0.720775,0.498792,0.625465,0.625465,0.498792,0.720775,0.347107,0.779942,0.178017,0.800000,0.000000,0.779942,-0.178017,0.720775,-0.347107,0.625465,-0.498792,0.498792,-0.625465,0.347107,-0.720775,0.178017,-0.779942,0.000000,-0.800000,-0.600000,-0.800000,-0.605014,-0.794986,-0.644504,-0.794986,-0.724698,-0.756366,-0.780194,-0.686777,-0.800000,-0.600000,
-0.800000,0.600000,-0.780194,0.686777,-0.724698,0.756366,-0.644504,0.794986,-0.605014,0.794986,-0.600000,0.800000,0.000000,0.800000,0.178017,0.779942,0.178017,0.779942,$1*%
G04 Aperture macros list end*
%ADD10C,0.125000*%
%ADD11C,0.800000*%
%ADD12C,0.150000*%
%ADD13C,0.010000*%
%ADD14C,1.700000*%
%ADD15C,4.000000*%
%ADD16C,2.200000*%
%ADD17C,3.600000*%
%ADD18C,5.600000*%
%ADD19C,1.850000*%
%ADD20RoundRect,0.200000X-0.600000X-0.600000X0.600000X-0.600000X0.600000X0.600000X-0.600000X0.600000X0*%
%ADD21C,1.600000*%
%ADD22FreePoly0,0.000000*%
%ADD23FreePoly1,0.000000*%
G04 APERTURE END LIST*
D10*
G36*
X130346946Y-121853108D02*
G01*
X130896981Y-123385000D01*
X131176883Y-123385000D01*
X131722522Y-121853108D01*
X131467044Y-121853108D01*
X131029360Y-123162739D01*
X130597051Y-121853108D01*
X130346946Y-121853108D01*
G37*
G36*
X128689025Y-123185697D02*
G01*
X128689025Y-123385000D01*
X129830616Y-123385000D01*
X129830616Y-123185697D01*
X129343596Y-123185697D01*
X129343596Y-121671392D01*
X129797399Y-121946409D01*
X129901935Y-121774951D01*
X129313310Y-121384162D01*
X129102284Y-121384162D01*
X129102284Y-123185697D01*
X128689025Y-123185697D01*
G37*
D11*
G36*
X130270742Y-119220942D02*
G01*
X130066067Y-119202868D01*
X129905355Y-119148646D01*
X129774380Y-118998620D01*
X129765648Y-118930781D01*
X129820359Y-118765673D01*
X129984321Y-118656785D01*
X130030407Y-118637690D01*
X130222382Y-118571011D01*
X130415731Y-118512988D01*
X130489584Y-118492121D01*
X130689375Y-118429717D01*
X130890783Y-118344623D01*
X131067463Y-118243764D01*
X131171510Y-118167766D01*
X131310099Y-118015992D01*
X131397358Y-117825674D01*
X131432006Y-117621431D01*
X131434315Y-117546413D01*
X131413066Y-117349187D01*
X131338362Y-117148619D01*
X131209871Y-116970618D01*
X131094329Y-116864487D01*
X130904980Y-116746517D01*
X130708345Y-116670943D01*
X130516805Y-116626705D01*
X130304039Y-116601426D01*
X130110519Y-116594842D01*
X129912927Y-116601742D01*
X129706400Y-116626000D01*
X129496504Y-116673436D01*
X129399284Y-116705240D01*
X129218010Y-116780059D01*
X129037121Y-116875803D01*
X128875627Y-116985631D01*
X129237107Y-117531758D01*
X129408558Y-117435961D01*
X129591228Y-117358865D01*
X129645481Y-117340272D01*
X129836673Y-117291518D01*
X130042767Y-117269580D01*
X130084141Y-117268953D01*
X130295244Y-117287732D01*
X130478200Y-117381163D01*
X130520847Y-117506357D01*
X130465160Y-117641179D01*
X130291198Y-117742585D01*
X130254134Y-117757438D01*
X130062892Y-117823872D01*
X129872337Y-117882674D01*
X129799842Y-117903984D01*
X129605447Y-117964865D01*
X129414182Y-118038389D01*
X129284978Y-118098401D01*
X129111711Y-118208544D01*
X128968399Y-118358510D01*
X128944992Y-118392470D01*
X128862179Y-118575808D01*
X128828107Y-118768974D01*
X128823848Y-118878025D01*
X128843215Y-119077483D01*
X128909259Y-119272424D01*
X129022173Y-119441737D01*
X129173319Y-119584613D01*
X129337573Y-119690859D01*
X129527395Y-119774589D01*
X129547784Y-119781723D01*
X129736828Y-119836506D01*
X129935763Y-119873360D01*
X130144591Y-119892285D01*
X130264881Y-119895052D01*
X130479692Y-119886992D01*
X130681559Y-119862812D01*
X130893186Y-119816341D01*
X131046458Y-119766092D01*
X131229190Y-119686588D01*
X131413556Y-119583204D01*
X131578267Y-119463983D01*
X131623848Y-119425129D01*
X131166625Y-118899518D01*
X131002067Y-119011263D01*
X130819556Y-119105430D01*
X130764113Y-119129106D01*
X130573814Y-119188566D01*
X130369649Y-119217713D01*
X130270742Y-119220942D01*
G37*
G36*
X125305774Y-119607822D02*
G01*
X125476423Y-119705863D01*
X125660334Y-119784175D01*
X125737595Y-119811032D01*
X125935569Y-119862232D01*
X126132735Y-119888406D01*
X126305216Y-119895052D01*
X126518611Y-119884130D01*
X126740224Y-119843778D01*
X126932385Y-119773694D01*
X127115934Y-119657190D01*
X127193283Y-119584375D01*
X127319800Y-119414687D01*
X127410170Y-119217278D01*
X127459591Y-119021804D01*
X127481336Y-118805107D01*
X127482466Y-118739295D01*
X127482466Y-117331479D01*
X128123359Y-117331479D01*
X128123359Y-116706217D01*
X127482466Y-116706217D01*
X127482466Y-116037969D01*
X126575837Y-115926594D01*
X126575837Y-116706217D01*
X125593003Y-116706217D01*
X125681908Y-117331479D01*
X126575837Y-117331479D01*
X126575837Y-118720732D01*
X126549947Y-118916127D01*
X126472278Y-119047041D01*
X126294744Y-119130999D01*
X126142061Y-119144738D01*
X125942688Y-119128329D01*
X125847993Y-119106636D01*
X125662613Y-119035928D01*
X125607658Y-119006985D01*
X125305774Y-119607822D01*
G37*
G36*
X123288856Y-116581384D02*
G01*
X123489645Y-116595209D01*
X123701831Y-116637341D01*
X123895577Y-116707561D01*
X124070882Y-116805868D01*
X124226587Y-116927318D01*
X124362508Y-117067941D01*
X124478645Y-117227737D01*
X124574999Y-117406706D01*
X124585578Y-117430295D01*
X124658118Y-117624850D01*
X124709165Y-117829785D01*
X124738718Y-118045100D01*
X124746946Y-118242016D01*
X124746773Y-118272133D01*
X124735833Y-118476856D01*
X124702494Y-118697773D01*
X124646929Y-118904769D01*
X124569137Y-119097843D01*
X124468876Y-119274003D01*
X124346876Y-119430258D01*
X124203139Y-119566606D01*
X124037665Y-119683049D01*
X123992797Y-119708721D01*
X123800120Y-119794847D01*
X123586316Y-119854473D01*
X123381906Y-119884907D01*
X123161322Y-119895052D01*
X123064953Y-119893189D01*
X122857834Y-119875381D01*
X122664161Y-119838716D01*
X122464741Y-119775861D01*
X122282494Y-119695490D01*
X122102518Y-119592095D01*
X121944015Y-119473000D01*
X122308426Y-118967906D01*
X122319736Y-118975066D01*
X122492829Y-119071709D01*
X122684560Y-119152554D01*
X122883373Y-119203845D01*
X123089026Y-119220942D01*
X123211576Y-119213134D01*
X123401216Y-119163423D01*
X123577511Y-119057787D01*
X123704823Y-118905609D01*
X123783870Y-118713732D01*
X123821754Y-118519476D01*
X121846318Y-118519476D01*
X121833618Y-118358276D01*
X121828733Y-118186329D01*
X121829423Y-118123997D01*
X121840048Y-117956741D01*
X122712892Y-117956741D01*
X123833478Y-117956741D01*
X123810092Y-117773742D01*
X123754207Y-117565787D01*
X123652738Y-117385212D01*
X123623878Y-117353261D01*
X123454592Y-117240647D01*
X123259019Y-117206427D01*
X123172351Y-117211435D01*
X122984520Y-117271342D01*
X122842829Y-117411591D01*
X122775567Y-117552984D01*
X122726840Y-117757416D01*
X122712892Y-117956741D01*
X121840048Y-117956741D01*
X121842720Y-117914673D01*
X121872941Y-117719092D01*
X121928201Y-117512402D01*
X122005564Y-117323663D01*
X122064331Y-117215414D01*
X122187781Y-117041242D01*
X122333952Y-116893655D01*
X122502843Y-116772651D01*
X122648221Y-116698039D01*
X122851622Y-116629036D01*
X123047993Y-116593133D01*
X123259019Y-116581165D01*
X123288856Y-116581384D01*
G37*
G36*
X121165369Y-119770000D02*
G01*
X121165369Y-116706217D01*
X120373045Y-116706217D01*
X120310519Y-117047180D01*
X120167485Y-116899067D01*
X120005392Y-116770404D01*
X119879675Y-116696448D01*
X119684403Y-116621807D01*
X119485833Y-116586681D01*
X119361880Y-116581165D01*
X119155748Y-116600253D01*
X118957530Y-116666237D01*
X118791750Y-116779352D01*
X118748342Y-116822477D01*
X118629846Y-116992569D01*
X118560723Y-117178608D01*
X118527149Y-117395867D01*
X118523638Y-117502449D01*
X118523638Y-119770000D01*
X119431245Y-119770000D01*
X119431245Y-117764277D01*
X119441403Y-117561191D01*
X119492794Y-117367627D01*
X119664401Y-117259225D01*
X119724336Y-117255275D01*
X119915804Y-117300067D01*
X119998865Y-117350041D01*
X120153166Y-117487248D01*
X120258740Y-117610893D01*
X120258740Y-119770000D01*
X121165369Y-119770000D01*
G37*
G36*
X116430652Y-116595045D02*
G01*
X116626299Y-116607787D01*
X116834211Y-116646622D01*
X117025392Y-116711346D01*
X117199842Y-116801960D01*
X117318613Y-116885400D01*
X117476419Y-117032197D01*
X117609804Y-117204961D01*
X117707867Y-117380327D01*
X117729162Y-117427092D01*
X117800603Y-117623769D01*
X117850062Y-117835833D01*
X117875307Y-118034011D01*
X117883722Y-118243970D01*
X117874205Y-118479746D01*
X117845655Y-118698586D01*
X117798070Y-118900492D01*
X117731452Y-119085463D01*
X117626386Y-119285074D01*
X117493911Y-119460300D01*
X117391359Y-119562195D01*
X117219328Y-119689563D01*
X117025453Y-119786364D01*
X116809733Y-119852596D01*
X116613280Y-119884438D01*
X116401657Y-119895052D01*
X116273046Y-119891179D01*
X116070830Y-119867513D01*
X115848195Y-119810716D01*
X115647404Y-119722937D01*
X115468458Y-119604178D01*
X115311357Y-119454438D01*
X115178549Y-119277427D01*
X115073220Y-119076854D01*
X115006435Y-118891711D01*
X114958731Y-118690206D01*
X114930109Y-118472338D01*
X114920568Y-118238108D01*
X114920590Y-118236154D01*
X115856507Y-118236154D01*
X115858598Y-118362046D01*
X115875329Y-118586628D01*
X115914149Y-118795928D01*
X115990352Y-118989399D01*
X116035427Y-119056103D01*
X116199451Y-119182728D01*
X116401657Y-119220942D01*
X116485138Y-119215289D01*
X116681326Y-119139314D01*
X116813939Y-118989399D01*
X116872496Y-118855860D01*
X116918374Y-118663149D01*
X116941379Y-118454093D01*
X116947784Y-118242016D01*
X116945692Y-118119544D01*
X116928962Y-117900336D01*
X116890141Y-117694745D01*
X116813939Y-117502449D01*
X116768582Y-117435182D01*
X116604023Y-117307489D01*
X116401657Y-117268953D01*
X116318199Y-117274606D01*
X116122331Y-117350580D01*
X115990352Y-117500495D01*
X115931794Y-117633302D01*
X115885916Y-117823436D01*
X115862911Y-118028646D01*
X115856507Y-118236154D01*
X114920590Y-118236154D01*
X114921251Y-118176567D01*
X114934401Y-117968985D01*
X114964287Y-117773558D01*
X115018937Y-117565097D01*
X115095446Y-117372512D01*
X115153888Y-117261138D01*
X115278197Y-117080981D01*
X115427081Y-116926945D01*
X115600540Y-116799030D01*
X115621316Y-116786467D01*
X115797415Y-116700326D01*
X115991100Y-116639708D01*
X116202370Y-116604613D01*
X116401657Y-116594842D01*
X116430652Y-116595045D01*
G37*
D10*
G36*
X145090421Y-119770000D02*
G01*
X145090421Y-116706217D01*
X144680093Y-116706217D01*
X144642969Y-117174187D01*
X144505287Y-117012294D01*
X144346133Y-116878569D01*
X144182815Y-116781444D01*
X143994790Y-116703016D01*
X143792832Y-116654588D01*
X143643527Y-116643691D01*
X143435981Y-116658590D01*
X143238840Y-116710969D01*
X143064932Y-116813398D01*
X142995795Y-116882072D01*
X142889148Y-117049283D01*
X142822001Y-117252940D01*
X142795339Y-117467391D01*
X142793562Y-117545436D01*
X142793562Y-119770000D01*
X143275209Y-119770000D01*
X143275209Y-117915708D01*
X143279365Y-117715204D01*
X143294992Y-117515455D01*
X143310380Y-117412568D01*
X143377850Y-117221813D01*
X143454971Y-117132177D01*
X143638764Y-117054935D01*
X143793003Y-117042295D01*
X143996574Y-117071227D01*
X144127128Y-117124361D01*
X144300697Y-117235464D01*
X144405564Y-117328548D01*
X144535774Y-117474256D01*
X144607798Y-117574745D01*
X144607798Y-119770000D01*
X145090421Y-119770000D01*
G37*
G36*
X140501587Y-115268115D02*
G01*
X140311757Y-115314754D01*
X140245620Y-115366789D01*
X140153528Y-115547801D01*
X140148900Y-115608101D01*
X140203305Y-115803007D01*
X140245620Y-115856252D01*
X140425505Y-115949675D01*
X140501587Y-115955903D01*
X140692409Y-115904423D01*
X140751691Y-115856252D01*
X140843283Y-115678932D01*
X140849389Y-115608101D01*
X140794434Y-115418874D01*
X140751691Y-115366789D01*
X140574371Y-115274282D01*
X140501587Y-115268115D01*
G37*
G36*
X140116660Y-116706217D02*
G01*
X140116660Y-119371395D01*
X139263764Y-119371395D01*
X139263764Y-119770000D01*
X141533269Y-119770000D01*
X141533269Y-119371395D01*
X140599284Y-119371395D01*
X140599284Y-117104822D01*
X141503959Y-117104822D01*
X141503959Y-116706217D01*
X140116660Y-116706217D01*
G37*
G36*
X136837944Y-119433921D02*
G01*
X136632107Y-119417821D01*
X136439580Y-119369521D01*
X136414915Y-119360648D01*
X136225383Y-119275163D01*
X136051482Y-119167208D01*
X135816032Y-119487655D01*
X135989921Y-119606711D01*
X136174477Y-119696859D01*
X136292794Y-119740690D01*
X136482834Y-119792976D01*
X136686991Y-119825261D01*
X136837944Y-119832526D01*
X137054832Y-119820314D01*
X137255111Y-119783677D01*
X137460573Y-119713266D01*
X137605844Y-119637131D01*
X137772545Y-119514076D01*
X137915444Y-119365827D01*
X138034541Y-119192385D01*
X138090421Y-119085143D01*
X138163084Y-118899213D01*
X138214985Y-118698018D01*
X138246126Y-118481557D01*
X138256344Y-118279633D01*
X138256507Y-118249832D01*
X138248559Y-118053570D01*
X138220013Y-117840606D01*
X138170707Y-117639732D01*
X138100640Y-117450947D01*
X138090421Y-117428199D01*
X137997426Y-117256069D01*
X137870180Y-117085340D01*
X137718978Y-116938878D01*
X137604867Y-116854717D01*
X137414973Y-116752707D01*
X137228142Y-116690059D01*
X137024337Y-116653789D01*
X136832082Y-116643691D01*
X136620610Y-116655918D01*
X136419236Y-116692601D01*
X136227959Y-116753738D01*
X136046780Y-116839330D01*
X135875700Y-116949376D01*
X135820917Y-116991493D01*
X136056367Y-117343203D01*
X136228339Y-117225955D01*
X136424191Y-117127219D01*
X136619310Y-117066098D01*
X136813697Y-117042589D01*
X136837944Y-117042295D01*
X137046866Y-117066175D01*
X137233995Y-117137813D01*
X137399332Y-117257211D01*
X137481768Y-117344180D01*
X137592044Y-117514112D01*
X137670812Y-117723000D01*
X137713889Y-117937735D01*
X137731611Y-118145532D01*
X137733827Y-118257648D01*
X137724965Y-118478268D01*
X137698381Y-118674845D01*
X137644966Y-118873798D01*
X137554383Y-119061102D01*
X137481768Y-119156461D01*
X137328539Y-119290585D01*
X137153517Y-119380814D01*
X136956702Y-119427147D01*
X136837944Y-119433921D01*
G37*
G36*
X133739594Y-116648628D02*
G01*
X133956459Y-116682400D01*
X134152303Y-116748165D01*
X134327128Y-116845924D01*
X134414650Y-116912728D01*
X134554758Y-117052691D01*
X134672456Y-117218001D01*
X134767742Y-117408660D01*
X134776938Y-117431359D01*
X134839998Y-117620647D01*
X134884374Y-117823613D01*
X134910066Y-118040256D01*
X134917218Y-118241039D01*
X134912059Y-118416604D01*
X134891098Y-118623567D01*
X134854013Y-118816647D01*
X134788228Y-119030020D01*
X134699224Y-119223403D01*
X134587002Y-119396796D01*
X134544511Y-119449561D01*
X134402477Y-119587428D01*
X134238597Y-119694658D01*
X134052873Y-119771251D01*
X133845305Y-119817207D01*
X133615892Y-119832526D01*
X133487221Y-119827541D01*
X133271842Y-119793443D01*
X133077328Y-119727042D01*
X132903680Y-119628339D01*
X132816464Y-119560456D01*
X132676905Y-119419274D01*
X132559757Y-119253672D01*
X132465020Y-119063649D01*
X132455824Y-119041013D01*
X132392763Y-118852366D01*
X132348388Y-118650285D01*
X132322696Y-118434772D01*
X132315614Y-118237131D01*
X132832361Y-118237131D01*
X132833132Y-118312102D01*
X132844696Y-118522224D01*
X132875724Y-118739322D01*
X132934312Y-118950455D01*
X133029710Y-119140830D01*
X133068229Y-119193209D01*
X133221186Y-119330595D01*
X133411925Y-119410737D01*
X133615892Y-119433921D01*
X133687465Y-119431354D01*
X133881781Y-119392843D01*
X134061796Y-119295852D01*
X134204029Y-119141807D01*
X134260601Y-119042817D01*
X134331172Y-118852384D01*
X134372786Y-118653398D01*
X134393497Y-118458801D01*
X134400400Y-118242016D01*
X134399622Y-118166694D01*
X134387944Y-117955703D01*
X134356608Y-117737936D01*
X134297441Y-117526498D01*
X134201098Y-117336364D01*
X134161872Y-117283811D01*
X134006930Y-117145966D01*
X133814780Y-117065557D01*
X133610031Y-117042295D01*
X133539173Y-117044863D01*
X133346798Y-117083374D01*
X133168577Y-117180365D01*
X133027756Y-117334410D01*
X132971465Y-117433471D01*
X132901246Y-117624317D01*
X132859839Y-117823964D01*
X132839231Y-118019351D01*
X132832361Y-118237131D01*
X132315614Y-118237131D01*
X132315544Y-118235177D01*
X132320657Y-118058285D01*
X132341432Y-117850048D01*
X132378188Y-117656123D01*
X132443389Y-117442304D01*
X132531603Y-117249093D01*
X132642829Y-117076489D01*
X132663590Y-117049862D01*
X132800976Y-116907850D01*
X132989043Y-116780631D01*
X133174057Y-116704553D01*
X133381053Y-116658907D01*
X133610031Y-116643691D01*
X133739594Y-116648628D01*
G37*
D12*
X179609523Y-106706200D02*
X179466666Y-106753819D01*
X179466666Y-106753819D02*
X179228571Y-106753819D01*
X179228571Y-106753819D02*
X179133333Y-106706200D01*
X179133333Y-106706200D02*
X179085714Y-106658580D01*
X179085714Y-106658580D02*
X179038095Y-106563342D01*
X179038095Y-106563342D02*
X179038095Y-106468104D01*
X179038095Y-106468104D02*
X179085714Y-106372866D01*
X179085714Y-106372866D02*
X179133333Y-106325247D01*
X179133333Y-106325247D02*
X179228571Y-106277628D01*
X179228571Y-106277628D02*
X179419047Y-106230009D01*
X179419047Y-106230009D02*
X179514285Y-106182390D01*
X179514285Y-106182390D02*
X179561904Y-106134771D01*
X179561904Y-106134771D02*
X179609523Y-106039533D01*
X179609523Y-106039533D02*
X179609523Y-105944295D01*
X179609523Y-105944295D02*
X179561904Y-105849057D01*
X179561904Y-105849057D02*
X179514285Y-105801438D01*
X179514285Y-105801438D02*
X179419047Y-105753819D01*
X179419047Y-105753819D02*
X179180952Y-105753819D01*
X179180952Y-105753819D02*
X179038095Y-105801438D01*
X178704761Y-105753819D02*
X178466666Y-106753819D01*
X178466666Y-106753819D02*
X178276190Y-106039533D01*
X178276190Y-106039533D02*
X178085714Y-106753819D01*
X178085714Y-106753819D02*
X177847619Y-105753819D01*
X177514285Y-105849057D02*
X177466666Y-105801438D01*
X177466666Y-105801438D02*
X177371428Y-105753819D01*
X177371428Y-105753819D02*
X177133333Y-105753819D01*
X177133333Y-105753819D02*
X177038095Y-105801438D01*
X177038095Y-105801438D02*
X176990476Y-105849057D01*
X176990476Y-105849057D02*
X176942857Y-105944295D01*
X176942857Y-105944295D02*
X176942857Y-106039533D01*
X176942857Y-106039533D02*
X176990476Y-106182390D01*
X176990476Y-106182390D02*
X177561904Y-106753819D01*
X177561904Y-106753819D02*
X176942857Y-106753819D01*
X176323809Y-105753819D02*
X176228571Y-105753819D01*
X176228571Y-105753819D02*
X176133333Y-105801438D01*
X176133333Y-105801438D02*
X176085714Y-105849057D01*
X176085714Y-105849057D02*
X176038095Y-105944295D01*
X176038095Y-105944295D02*
X175990476Y-106134771D01*
X175990476Y-106134771D02*
X175990476Y-106372866D01*
X175990476Y-106372866D02*
X176038095Y-106563342D01*
X176038095Y-106563342D02*
X176085714Y-106658580D01*
X176085714Y-106658580D02*
X176133333Y-106706200D01*
X176133333Y-106706200D02*
X176228571Y-106753819D01*
X176228571Y-106753819D02*
X176323809Y-106753819D01*
X176323809Y-106753819D02*
X176419047Y-106706200D01*
X176419047Y-106706200D02*
X176466666Y-106658580D01*
X176466666Y-106658580D02*
X176514285Y-106563342D01*
X176514285Y-106563342D02*
X176561904Y-106372866D01*
X176561904Y-106372866D02*
X176561904Y-106134771D01*
X176561904Y-106134771D02*
X176514285Y-105944295D01*
X176514285Y-105944295D02*
X176466666Y-105849057D01*
X176466666Y-105849057D02*
X176419047Y-105801438D01*
X176419047Y-105801438D02*
X176323809Y-105753819D01*
X236759523Y-87656200D02*
X236616666Y-87703819D01*
X236616666Y-87703819D02*
X236378571Y-87703819D01*
X236378571Y-87703819D02*
X236283333Y-87656200D01*
X236283333Y-87656200D02*
X236235714Y-87608580D01*
X236235714Y-87608580D02*
X236188095Y-87513342D01*
X236188095Y-87513342D02*
X236188095Y-87418104D01*
X236188095Y-87418104D02*
X236235714Y-87322866D01*
X236235714Y-87322866D02*
X236283333Y-87275247D01*
X236283333Y-87275247D02*
X236378571Y-87227628D01*
X236378571Y-87227628D02*
X236569047Y-87180009D01*
X236569047Y-87180009D02*
X236664285Y-87132390D01*
X236664285Y-87132390D02*
X236711904Y-87084771D01*
X236711904Y-87084771D02*
X236759523Y-86989533D01*
X236759523Y-86989533D02*
X236759523Y-86894295D01*
X236759523Y-86894295D02*
X236711904Y-86799057D01*
X236711904Y-86799057D02*
X236664285Y-86751438D01*
X236664285Y-86751438D02*
X236569047Y-86703819D01*
X236569047Y-86703819D02*
X236330952Y-86703819D01*
X236330952Y-86703819D02*
X236188095Y-86751438D01*
X235854761Y-86703819D02*
X235616666Y-87703819D01*
X235616666Y-87703819D02*
X235426190Y-86989533D01*
X235426190Y-86989533D02*
X235235714Y-87703819D01*
X235235714Y-87703819D02*
X234997619Y-86703819D01*
X234092857Y-87703819D02*
X234664285Y-87703819D01*
X234378571Y-87703819D02*
X234378571Y-86703819D01*
X234378571Y-86703819D02*
X234473809Y-86846676D01*
X234473809Y-86846676D02*
X234569047Y-86941914D01*
X234569047Y-86941914D02*
X234664285Y-86989533D01*
X233235714Y-87037152D02*
X233235714Y-87703819D01*
X233473809Y-86656200D02*
X233711904Y-87370485D01*
X233711904Y-87370485D02*
X233092857Y-87370485D01*
X255809523Y-106706200D02*
X255666666Y-106753819D01*
X255666666Y-106753819D02*
X255428571Y-106753819D01*
X255428571Y-106753819D02*
X255333333Y-106706200D01*
X255333333Y-106706200D02*
X255285714Y-106658580D01*
X255285714Y-106658580D02*
X255238095Y-106563342D01*
X255238095Y-106563342D02*
X255238095Y-106468104D01*
X255238095Y-106468104D02*
X255285714Y-106372866D01*
X255285714Y-106372866D02*
X255333333Y-106325247D01*
X255333333Y-106325247D02*
X255428571Y-106277628D01*
X255428571Y-106277628D02*
X255619047Y-106230009D01*
X255619047Y-106230009D02*
X255714285Y-106182390D01*
X255714285Y-106182390D02*
X255761904Y-106134771D01*
X255761904Y-106134771D02*
X255809523Y-106039533D01*
X255809523Y-106039533D02*
X255809523Y-105944295D01*
X255809523Y-105944295D02*
X255761904Y-105849057D01*
X255761904Y-105849057D02*
X255714285Y-105801438D01*
X255714285Y-105801438D02*
X255619047Y-105753819D01*
X255619047Y-105753819D02*
X255380952Y-105753819D01*
X255380952Y-105753819D02*
X255238095Y-105801438D01*
X254904761Y-105753819D02*
X254666666Y-106753819D01*
X254666666Y-106753819D02*
X254476190Y-106039533D01*
X254476190Y-106039533D02*
X254285714Y-106753819D01*
X254285714Y-106753819D02*
X254047619Y-105753819D01*
X253714285Y-105849057D02*
X253666666Y-105801438D01*
X253666666Y-105801438D02*
X253571428Y-105753819D01*
X253571428Y-105753819D02*
X253333333Y-105753819D01*
X253333333Y-105753819D02*
X253238095Y-105801438D01*
X253238095Y-105801438D02*
X253190476Y-105849057D01*
X253190476Y-105849057D02*
X253142857Y-105944295D01*
X253142857Y-105944295D02*
X253142857Y-106039533D01*
X253142857Y-106039533D02*
X253190476Y-106182390D01*
X253190476Y-106182390D02*
X253761904Y-106753819D01*
X253761904Y-106753819D02*
X253142857Y-106753819D01*
X252285714Y-106087152D02*
X252285714Y-106753819D01*
X252523809Y-105706200D02*
X252761904Y-106420485D01*
X252761904Y-106420485D02*
X252142857Y-106420485D01*
X27209523Y-106706200D02*
X27066666Y-106753819D01*
X27066666Y-106753819D02*
X26828571Y-106753819D01*
X26828571Y-106753819D02*
X26733333Y-106706200D01*
X26733333Y-106706200D02*
X26685714Y-106658580D01*
X26685714Y-106658580D02*
X26638095Y-106563342D01*
X26638095Y-106563342D02*
X26638095Y-106468104D01*
X26638095Y-106468104D02*
X26685714Y-106372866D01*
X26685714Y-106372866D02*
X26733333Y-106325247D01*
X26733333Y-106325247D02*
X26828571Y-106277628D01*
X26828571Y-106277628D02*
X27019047Y-106230009D01*
X27019047Y-106230009D02*
X27114285Y-106182390D01*
X27114285Y-106182390D02*
X27161904Y-106134771D01*
X27161904Y-106134771D02*
X27209523Y-106039533D01*
X27209523Y-106039533D02*
X27209523Y-105944295D01*
X27209523Y-105944295D02*
X27161904Y-105849057D01*
X27161904Y-105849057D02*
X27114285Y-105801438D01*
X27114285Y-105801438D02*
X27019047Y-105753819D01*
X27019047Y-105753819D02*
X26780952Y-105753819D01*
X26780952Y-105753819D02*
X26638095Y-105801438D01*
X26304761Y-105753819D02*
X26066666Y-106753819D01*
X26066666Y-106753819D02*
X25876190Y-106039533D01*
X25876190Y-106039533D02*
X25685714Y-106753819D01*
X25685714Y-106753819D02*
X25447619Y-105753819D01*
X24542857Y-106753819D02*
X25114285Y-106753819D01*
X24828571Y-106753819D02*
X24828571Y-105753819D01*
X24828571Y-105753819D02*
X24923809Y-105896676D01*
X24923809Y-105896676D02*
X25019047Y-105991914D01*
X25019047Y-105991914D02*
X25114285Y-106039533D01*
X23685714Y-105753819D02*
X23876190Y-105753819D01*
X23876190Y-105753819D02*
X23971428Y-105801438D01*
X23971428Y-105801438D02*
X24019047Y-105849057D01*
X24019047Y-105849057D02*
X24114285Y-105991914D01*
X24114285Y-105991914D02*
X24161904Y-106182390D01*
X24161904Y-106182390D02*
X24161904Y-106563342D01*
X24161904Y-106563342D02*
X24114285Y-106658580D01*
X24114285Y-106658580D02*
X24066666Y-106706200D01*
X24066666Y-106706200D02*
X23971428Y-106753819D01*
X23971428Y-106753819D02*
X23780952Y-106753819D01*
X23780952Y-106753819D02*
X23685714Y-106706200D01*
X23685714Y-106706200D02*
X23638095Y-106658580D01*
X23638095Y-106658580D02*
X23590476Y-106563342D01*
X23590476Y-106563342D02*
X23590476Y-106325247D01*
X23590476Y-106325247D02*
X23638095Y-106230009D01*
X23638095Y-106230009D02*
X23685714Y-106182390D01*
X23685714Y-106182390D02*
X23780952Y-106134771D01*
X23780952Y-106134771D02*
X23971428Y-106134771D01*
X23971428Y-106134771D02*
X24066666Y-106182390D01*
X24066666Y-106182390D02*
X24114285Y-106230009D01*
X24114285Y-106230009D02*
X24161904Y-106325247D01*
X198659523Y-87656200D02*
X198516666Y-87703819D01*
X198516666Y-87703819D02*
X198278571Y-87703819D01*
X198278571Y-87703819D02*
X198183333Y-87656200D01*
X198183333Y-87656200D02*
X198135714Y-87608580D01*
X198135714Y-87608580D02*
X198088095Y-87513342D01*
X198088095Y-87513342D02*
X198088095Y-87418104D01*
X198088095Y-87418104D02*
X198135714Y-87322866D01*
X198135714Y-87322866D02*
X198183333Y-87275247D01*
X198183333Y-87275247D02*
X198278571Y-87227628D01*
X198278571Y-87227628D02*
X198469047Y-87180009D01*
X198469047Y-87180009D02*
X198564285Y-87132390D01*
X198564285Y-87132390D02*
X198611904Y-87084771D01*
X198611904Y-87084771D02*
X198659523Y-86989533D01*
X198659523Y-86989533D02*
X198659523Y-86894295D01*
X198659523Y-86894295D02*
X198611904Y-86799057D01*
X198611904Y-86799057D02*
X198564285Y-86751438D01*
X198564285Y-86751438D02*
X198469047Y-86703819D01*
X198469047Y-86703819D02*
X198230952Y-86703819D01*
X198230952Y-86703819D02*
X198088095Y-86751438D01*
X197754761Y-86703819D02*
X197516666Y-87703819D01*
X197516666Y-87703819D02*
X197326190Y-86989533D01*
X197326190Y-86989533D02*
X197135714Y-87703819D01*
X197135714Y-87703819D02*
X196897619Y-86703819D01*
X195992857Y-87703819D02*
X196564285Y-87703819D01*
X196278571Y-87703819D02*
X196278571Y-86703819D01*
X196278571Y-86703819D02*
X196373809Y-86846676D01*
X196373809Y-86846676D02*
X196469047Y-86941914D01*
X196469047Y-86941914D02*
X196564285Y-86989533D01*
X195611904Y-86799057D02*
X195564285Y-86751438D01*
X195564285Y-86751438D02*
X195469047Y-86703819D01*
X195469047Y-86703819D02*
X195230952Y-86703819D01*
X195230952Y-86703819D02*
X195135714Y-86751438D01*
X195135714Y-86751438D02*
X195088095Y-86799057D01*
X195088095Y-86799057D02*
X195040476Y-86894295D01*
X195040476Y-86894295D02*
X195040476Y-86989533D01*
X195040476Y-86989533D02*
X195088095Y-87132390D01*
X195088095Y-87132390D02*
X195659523Y-87703819D01*
X195659523Y-87703819D02*
X195040476Y-87703819D01*
X64833332Y-87656200D02*
X64690475Y-87703819D01*
X64690475Y-87703819D02*
X64452380Y-87703819D01*
X64452380Y-87703819D02*
X64357142Y-87656200D01*
X64357142Y-87656200D02*
X64309523Y-87608580D01*
X64309523Y-87608580D02*
X64261904Y-87513342D01*
X64261904Y-87513342D02*
X64261904Y-87418104D01*
X64261904Y-87418104D02*
X64309523Y-87322866D01*
X64309523Y-87322866D02*
X64357142Y-87275247D01*
X64357142Y-87275247D02*
X64452380Y-87227628D01*
X64452380Y-87227628D02*
X64642856Y-87180009D01*
X64642856Y-87180009D02*
X64738094Y-87132390D01*
X64738094Y-87132390D02*
X64785713Y-87084771D01*
X64785713Y-87084771D02*
X64833332Y-86989533D01*
X64833332Y-86989533D02*
X64833332Y-86894295D01*
X64833332Y-86894295D02*
X64785713Y-86799057D01*
X64785713Y-86799057D02*
X64738094Y-86751438D01*
X64738094Y-86751438D02*
X64642856Y-86703819D01*
X64642856Y-86703819D02*
X64404761Y-86703819D01*
X64404761Y-86703819D02*
X64261904Y-86751438D01*
X63928570Y-86703819D02*
X63690475Y-87703819D01*
X63690475Y-87703819D02*
X63499999Y-86989533D01*
X63499999Y-86989533D02*
X63309523Y-87703819D01*
X63309523Y-87703819D02*
X63071428Y-86703819D01*
X62785713Y-86703819D02*
X62119047Y-86703819D01*
X62119047Y-86703819D02*
X62547618Y-87703819D01*
X83883332Y-87656200D02*
X83740475Y-87703819D01*
X83740475Y-87703819D02*
X83502380Y-87703819D01*
X83502380Y-87703819D02*
X83407142Y-87656200D01*
X83407142Y-87656200D02*
X83359523Y-87608580D01*
X83359523Y-87608580D02*
X83311904Y-87513342D01*
X83311904Y-87513342D02*
X83311904Y-87418104D01*
X83311904Y-87418104D02*
X83359523Y-87322866D01*
X83359523Y-87322866D02*
X83407142Y-87275247D01*
X83407142Y-87275247D02*
X83502380Y-87227628D01*
X83502380Y-87227628D02*
X83692856Y-87180009D01*
X83692856Y-87180009D02*
X83788094Y-87132390D01*
X83788094Y-87132390D02*
X83835713Y-87084771D01*
X83835713Y-87084771D02*
X83883332Y-86989533D01*
X83883332Y-86989533D02*
X83883332Y-86894295D01*
X83883332Y-86894295D02*
X83835713Y-86799057D01*
X83835713Y-86799057D02*
X83788094Y-86751438D01*
X83788094Y-86751438D02*
X83692856Y-86703819D01*
X83692856Y-86703819D02*
X83454761Y-86703819D01*
X83454761Y-86703819D02*
X83311904Y-86751438D01*
X82978570Y-86703819D02*
X82740475Y-87703819D01*
X82740475Y-87703819D02*
X82549999Y-86989533D01*
X82549999Y-86989533D02*
X82359523Y-87703819D01*
X82359523Y-87703819D02*
X82121428Y-86703819D01*
X81597618Y-87132390D02*
X81692856Y-87084771D01*
X81692856Y-87084771D02*
X81740475Y-87037152D01*
X81740475Y-87037152D02*
X81788094Y-86941914D01*
X81788094Y-86941914D02*
X81788094Y-86894295D01*
X81788094Y-86894295D02*
X81740475Y-86799057D01*
X81740475Y-86799057D02*
X81692856Y-86751438D01*
X81692856Y-86751438D02*
X81597618Y-86703819D01*
X81597618Y-86703819D02*
X81407142Y-86703819D01*
X81407142Y-86703819D02*
X81311904Y-86751438D01*
X81311904Y-86751438D02*
X81264285Y-86799057D01*
X81264285Y-86799057D02*
X81216666Y-86894295D01*
X81216666Y-86894295D02*
X81216666Y-86941914D01*
X81216666Y-86941914D02*
X81264285Y-87037152D01*
X81264285Y-87037152D02*
X81311904Y-87084771D01*
X81311904Y-87084771D02*
X81407142Y-87132390D01*
X81407142Y-87132390D02*
X81597618Y-87132390D01*
X81597618Y-87132390D02*
X81692856Y-87180009D01*
X81692856Y-87180009D02*
X81740475Y-87227628D01*
X81740475Y-87227628D02*
X81788094Y-87322866D01*
X81788094Y-87322866D02*
X81788094Y-87513342D01*
X81788094Y-87513342D02*
X81740475Y-87608580D01*
X81740475Y-87608580D02*
X81692856Y-87656200D01*
X81692856Y-87656200D02*
X81597618Y-87703819D01*
X81597618Y-87703819D02*
X81407142Y-87703819D01*
X81407142Y-87703819D02*
X81311904Y-87656200D01*
X81311904Y-87656200D02*
X81264285Y-87608580D01*
X81264285Y-87608580D02*
X81216666Y-87513342D01*
X81216666Y-87513342D02*
X81216666Y-87322866D01*
X81216666Y-87322866D02*
X81264285Y-87227628D01*
X81264285Y-87227628D02*
X81311904Y-87180009D01*
X81311904Y-87180009D02*
X81407142Y-87132390D01*
X160559523Y-144806200D02*
X160416666Y-144853819D01*
X160416666Y-144853819D02*
X160178571Y-144853819D01*
X160178571Y-144853819D02*
X160083333Y-144806200D01*
X160083333Y-144806200D02*
X160035714Y-144758580D01*
X160035714Y-144758580D02*
X159988095Y-144663342D01*
X159988095Y-144663342D02*
X159988095Y-144568104D01*
X159988095Y-144568104D02*
X160035714Y-144472866D01*
X160035714Y-144472866D02*
X160083333Y-144425247D01*
X160083333Y-144425247D02*
X160178571Y-144377628D01*
X160178571Y-144377628D02*
X160369047Y-144330009D01*
X160369047Y-144330009D02*
X160464285Y-144282390D01*
X160464285Y-144282390D02*
X160511904Y-144234771D01*
X160511904Y-144234771D02*
X160559523Y-144139533D01*
X160559523Y-144139533D02*
X160559523Y-144044295D01*
X160559523Y-144044295D02*
X160511904Y-143949057D01*
X160511904Y-143949057D02*
X160464285Y-143901438D01*
X160464285Y-143901438D02*
X160369047Y-143853819D01*
X160369047Y-143853819D02*
X160130952Y-143853819D01*
X160130952Y-143853819D02*
X159988095Y-143901438D01*
X159654761Y-143853819D02*
X159416666Y-144853819D01*
X159416666Y-144853819D02*
X159226190Y-144139533D01*
X159226190Y-144139533D02*
X159035714Y-144853819D01*
X159035714Y-144853819D02*
X158797619Y-143853819D01*
X158464285Y-143949057D02*
X158416666Y-143901438D01*
X158416666Y-143901438D02*
X158321428Y-143853819D01*
X158321428Y-143853819D02*
X158083333Y-143853819D01*
X158083333Y-143853819D02*
X157988095Y-143901438D01*
X157988095Y-143901438D02*
X157940476Y-143949057D01*
X157940476Y-143949057D02*
X157892857Y-144044295D01*
X157892857Y-144044295D02*
X157892857Y-144139533D01*
X157892857Y-144139533D02*
X157940476Y-144282390D01*
X157940476Y-144282390D02*
X158511904Y-144853819D01*
X158511904Y-144853819D02*
X157892857Y-144853819D01*
X157559523Y-143853819D02*
X156892857Y-143853819D01*
X156892857Y-143853819D02*
X157321428Y-144853819D01*
X255809523Y-87656200D02*
X255666666Y-87703819D01*
X255666666Y-87703819D02*
X255428571Y-87703819D01*
X255428571Y-87703819D02*
X255333333Y-87656200D01*
X255333333Y-87656200D02*
X255285714Y-87608580D01*
X255285714Y-87608580D02*
X255238095Y-87513342D01*
X255238095Y-87513342D02*
X255238095Y-87418104D01*
X255238095Y-87418104D02*
X255285714Y-87322866D01*
X255285714Y-87322866D02*
X255333333Y-87275247D01*
X255333333Y-87275247D02*
X255428571Y-87227628D01*
X255428571Y-87227628D02*
X255619047Y-87180009D01*
X255619047Y-87180009D02*
X255714285Y-87132390D01*
X255714285Y-87132390D02*
X255761904Y-87084771D01*
X255761904Y-87084771D02*
X255809523Y-86989533D01*
X255809523Y-86989533D02*
X255809523Y-86894295D01*
X255809523Y-86894295D02*
X255761904Y-86799057D01*
X255761904Y-86799057D02*
X255714285Y-86751438D01*
X255714285Y-86751438D02*
X255619047Y-86703819D01*
X255619047Y-86703819D02*
X255380952Y-86703819D01*
X255380952Y-86703819D02*
X255238095Y-86751438D01*
X254904761Y-86703819D02*
X254666666Y-87703819D01*
X254666666Y-87703819D02*
X254476190Y-86989533D01*
X254476190Y-86989533D02*
X254285714Y-87703819D01*
X254285714Y-87703819D02*
X254047619Y-86703819D01*
X253142857Y-87703819D02*
X253714285Y-87703819D01*
X253428571Y-87703819D02*
X253428571Y-86703819D01*
X253428571Y-86703819D02*
X253523809Y-86846676D01*
X253523809Y-86846676D02*
X253619047Y-86941914D01*
X253619047Y-86941914D02*
X253714285Y-86989533D01*
X252238095Y-86703819D02*
X252714285Y-86703819D01*
X252714285Y-86703819D02*
X252761904Y-87180009D01*
X252761904Y-87180009D02*
X252714285Y-87132390D01*
X252714285Y-87132390D02*
X252619047Y-87084771D01*
X252619047Y-87084771D02*
X252380952Y-87084771D01*
X252380952Y-87084771D02*
X252285714Y-87132390D01*
X252285714Y-87132390D02*
X252238095Y-87180009D01*
X252238095Y-87180009D02*
X252190476Y-87275247D01*
X252190476Y-87275247D02*
X252190476Y-87513342D01*
X252190476Y-87513342D02*
X252238095Y-87608580D01*
X252238095Y-87608580D02*
X252285714Y-87656200D01*
X252285714Y-87656200D02*
X252380952Y-87703819D01*
X252380952Y-87703819D02*
X252619047Y-87703819D01*
X252619047Y-87703819D02*
X252714285Y-87656200D01*
X252714285Y-87656200D02*
X252761904Y-87608580D01*
X65309523Y-106706200D02*
X65166666Y-106753819D01*
X65166666Y-106753819D02*
X64928571Y-106753819D01*
X64928571Y-106753819D02*
X64833333Y-106706200D01*
X64833333Y-106706200D02*
X64785714Y-106658580D01*
X64785714Y-106658580D02*
X64738095Y-106563342D01*
X64738095Y-106563342D02*
X64738095Y-106468104D01*
X64738095Y-106468104D02*
X64785714Y-106372866D01*
X64785714Y-106372866D02*
X64833333Y-106325247D01*
X64833333Y-106325247D02*
X64928571Y-106277628D01*
X64928571Y-106277628D02*
X65119047Y-106230009D01*
X65119047Y-106230009D02*
X65214285Y-106182390D01*
X65214285Y-106182390D02*
X65261904Y-106134771D01*
X65261904Y-106134771D02*
X65309523Y-106039533D01*
X65309523Y-106039533D02*
X65309523Y-105944295D01*
X65309523Y-105944295D02*
X65261904Y-105849057D01*
X65261904Y-105849057D02*
X65214285Y-105801438D01*
X65214285Y-105801438D02*
X65119047Y-105753819D01*
X65119047Y-105753819D02*
X64880952Y-105753819D01*
X64880952Y-105753819D02*
X64738095Y-105801438D01*
X64404761Y-105753819D02*
X64166666Y-106753819D01*
X64166666Y-106753819D02*
X63976190Y-106039533D01*
X63976190Y-106039533D02*
X63785714Y-106753819D01*
X63785714Y-106753819D02*
X63547619Y-105753819D01*
X62642857Y-106753819D02*
X63214285Y-106753819D01*
X62928571Y-106753819D02*
X62928571Y-105753819D01*
X62928571Y-105753819D02*
X63023809Y-105896676D01*
X63023809Y-105896676D02*
X63119047Y-105991914D01*
X63119047Y-105991914D02*
X63214285Y-106039533D01*
X62071428Y-106182390D02*
X62166666Y-106134771D01*
X62166666Y-106134771D02*
X62214285Y-106087152D01*
X62214285Y-106087152D02*
X62261904Y-105991914D01*
X62261904Y-105991914D02*
X62261904Y-105944295D01*
X62261904Y-105944295D02*
X62214285Y-105849057D01*
X62214285Y-105849057D02*
X62166666Y-105801438D01*
X62166666Y-105801438D02*
X62071428Y-105753819D01*
X62071428Y-105753819D02*
X61880952Y-105753819D01*
X61880952Y-105753819D02*
X61785714Y-105801438D01*
X61785714Y-105801438D02*
X61738095Y-105849057D01*
X61738095Y-105849057D02*
X61690476Y-105944295D01*
X61690476Y-105944295D02*
X61690476Y-105991914D01*
X61690476Y-105991914D02*
X61738095Y-106087152D01*
X61738095Y-106087152D02*
X61785714Y-106134771D01*
X61785714Y-106134771D02*
X61880952Y-106182390D01*
X61880952Y-106182390D02*
X62071428Y-106182390D01*
X62071428Y-106182390D02*
X62166666Y-106230009D01*
X62166666Y-106230009D02*
X62214285Y-106277628D01*
X62214285Y-106277628D02*
X62261904Y-106372866D01*
X62261904Y-106372866D02*
X62261904Y-106563342D01*
X62261904Y-106563342D02*
X62214285Y-106658580D01*
X62214285Y-106658580D02*
X62166666Y-106706200D01*
X62166666Y-106706200D02*
X62071428Y-106753819D01*
X62071428Y-106753819D02*
X61880952Y-106753819D01*
X61880952Y-106753819D02*
X61785714Y-106706200D01*
X61785714Y-106706200D02*
X61738095Y-106658580D01*
X61738095Y-106658580D02*
X61690476Y-106563342D01*
X61690476Y-106563342D02*
X61690476Y-106372866D01*
X61690476Y-106372866D02*
X61738095Y-106277628D01*
X61738095Y-106277628D02*
X61785714Y-106230009D01*
X61785714Y-106230009D02*
X61880952Y-106182390D01*
X45783332Y-87656200D02*
X45640475Y-87703819D01*
X45640475Y-87703819D02*
X45402380Y-87703819D01*
X45402380Y-87703819D02*
X45307142Y-87656200D01*
X45307142Y-87656200D02*
X45259523Y-87608580D01*
X45259523Y-87608580D02*
X45211904Y-87513342D01*
X45211904Y-87513342D02*
X45211904Y-87418104D01*
X45211904Y-87418104D02*
X45259523Y-87322866D01*
X45259523Y-87322866D02*
X45307142Y-87275247D01*
X45307142Y-87275247D02*
X45402380Y-87227628D01*
X45402380Y-87227628D02*
X45592856Y-87180009D01*
X45592856Y-87180009D02*
X45688094Y-87132390D01*
X45688094Y-87132390D02*
X45735713Y-87084771D01*
X45735713Y-87084771D02*
X45783332Y-86989533D01*
X45783332Y-86989533D02*
X45783332Y-86894295D01*
X45783332Y-86894295D02*
X45735713Y-86799057D01*
X45735713Y-86799057D02*
X45688094Y-86751438D01*
X45688094Y-86751438D02*
X45592856Y-86703819D01*
X45592856Y-86703819D02*
X45354761Y-86703819D01*
X45354761Y-86703819D02*
X45211904Y-86751438D01*
X44878570Y-86703819D02*
X44640475Y-87703819D01*
X44640475Y-87703819D02*
X44449999Y-86989533D01*
X44449999Y-86989533D02*
X44259523Y-87703819D01*
X44259523Y-87703819D02*
X44021428Y-86703819D01*
X43211904Y-86703819D02*
X43402380Y-86703819D01*
X43402380Y-86703819D02*
X43497618Y-86751438D01*
X43497618Y-86751438D02*
X43545237Y-86799057D01*
X43545237Y-86799057D02*
X43640475Y-86941914D01*
X43640475Y-86941914D02*
X43688094Y-87132390D01*
X43688094Y-87132390D02*
X43688094Y-87513342D01*
X43688094Y-87513342D02*
X43640475Y-87608580D01*
X43640475Y-87608580D02*
X43592856Y-87656200D01*
X43592856Y-87656200D02*
X43497618Y-87703819D01*
X43497618Y-87703819D02*
X43307142Y-87703819D01*
X43307142Y-87703819D02*
X43211904Y-87656200D01*
X43211904Y-87656200D02*
X43164285Y-87608580D01*
X43164285Y-87608580D02*
X43116666Y-87513342D01*
X43116666Y-87513342D02*
X43116666Y-87275247D01*
X43116666Y-87275247D02*
X43164285Y-87180009D01*
X43164285Y-87180009D02*
X43211904Y-87132390D01*
X43211904Y-87132390D02*
X43307142Y-87084771D01*
X43307142Y-87084771D02*
X43497618Y-87084771D01*
X43497618Y-87084771D02*
X43592856Y-87132390D01*
X43592856Y-87132390D02*
X43640475Y-87180009D01*
X43640475Y-87180009D02*
X43688094Y-87275247D01*
X217709523Y-106706200D02*
X217566666Y-106753819D01*
X217566666Y-106753819D02*
X217328571Y-106753819D01*
X217328571Y-106753819D02*
X217233333Y-106706200D01*
X217233333Y-106706200D02*
X217185714Y-106658580D01*
X217185714Y-106658580D02*
X217138095Y-106563342D01*
X217138095Y-106563342D02*
X217138095Y-106468104D01*
X217138095Y-106468104D02*
X217185714Y-106372866D01*
X217185714Y-106372866D02*
X217233333Y-106325247D01*
X217233333Y-106325247D02*
X217328571Y-106277628D01*
X217328571Y-106277628D02*
X217519047Y-106230009D01*
X217519047Y-106230009D02*
X217614285Y-106182390D01*
X217614285Y-106182390D02*
X217661904Y-106134771D01*
X217661904Y-106134771D02*
X217709523Y-106039533D01*
X217709523Y-106039533D02*
X217709523Y-105944295D01*
X217709523Y-105944295D02*
X217661904Y-105849057D01*
X217661904Y-105849057D02*
X217614285Y-105801438D01*
X217614285Y-105801438D02*
X217519047Y-105753819D01*
X217519047Y-105753819D02*
X217280952Y-105753819D01*
X217280952Y-105753819D02*
X217138095Y-105801438D01*
X216804761Y-105753819D02*
X216566666Y-106753819D01*
X216566666Y-106753819D02*
X216376190Y-106039533D01*
X216376190Y-106039533D02*
X216185714Y-106753819D01*
X216185714Y-106753819D02*
X215947619Y-105753819D01*
X215614285Y-105849057D02*
X215566666Y-105801438D01*
X215566666Y-105801438D02*
X215471428Y-105753819D01*
X215471428Y-105753819D02*
X215233333Y-105753819D01*
X215233333Y-105753819D02*
X215138095Y-105801438D01*
X215138095Y-105801438D02*
X215090476Y-105849057D01*
X215090476Y-105849057D02*
X215042857Y-105944295D01*
X215042857Y-105944295D02*
X215042857Y-106039533D01*
X215042857Y-106039533D02*
X215090476Y-106182390D01*
X215090476Y-106182390D02*
X215661904Y-106753819D01*
X215661904Y-106753819D02*
X215042857Y-106753819D01*
X214661904Y-105849057D02*
X214614285Y-105801438D01*
X214614285Y-105801438D02*
X214519047Y-105753819D01*
X214519047Y-105753819D02*
X214280952Y-105753819D01*
X214280952Y-105753819D02*
X214185714Y-105801438D01*
X214185714Y-105801438D02*
X214138095Y-105849057D01*
X214138095Y-105849057D02*
X214090476Y-105944295D01*
X214090476Y-105944295D02*
X214090476Y-106039533D01*
X214090476Y-106039533D02*
X214138095Y-106182390D01*
X214138095Y-106182390D02*
X214709523Y-106753819D01*
X214709523Y-106753819D02*
X214090476Y-106753819D01*
X236759523Y-106706200D02*
X236616666Y-106753819D01*
X236616666Y-106753819D02*
X236378571Y-106753819D01*
X236378571Y-106753819D02*
X236283333Y-106706200D01*
X236283333Y-106706200D02*
X236235714Y-106658580D01*
X236235714Y-106658580D02*
X236188095Y-106563342D01*
X236188095Y-106563342D02*
X236188095Y-106468104D01*
X236188095Y-106468104D02*
X236235714Y-106372866D01*
X236235714Y-106372866D02*
X236283333Y-106325247D01*
X236283333Y-106325247D02*
X236378571Y-106277628D01*
X236378571Y-106277628D02*
X236569047Y-106230009D01*
X236569047Y-106230009D02*
X236664285Y-106182390D01*
X236664285Y-106182390D02*
X236711904Y-106134771D01*
X236711904Y-106134771D02*
X236759523Y-106039533D01*
X236759523Y-106039533D02*
X236759523Y-105944295D01*
X236759523Y-105944295D02*
X236711904Y-105849057D01*
X236711904Y-105849057D02*
X236664285Y-105801438D01*
X236664285Y-105801438D02*
X236569047Y-105753819D01*
X236569047Y-105753819D02*
X236330952Y-105753819D01*
X236330952Y-105753819D02*
X236188095Y-105801438D01*
X235854761Y-105753819D02*
X235616666Y-106753819D01*
X235616666Y-106753819D02*
X235426190Y-106039533D01*
X235426190Y-106039533D02*
X235235714Y-106753819D01*
X235235714Y-106753819D02*
X234997619Y-105753819D01*
X234664285Y-105849057D02*
X234616666Y-105801438D01*
X234616666Y-105801438D02*
X234521428Y-105753819D01*
X234521428Y-105753819D02*
X234283333Y-105753819D01*
X234283333Y-105753819D02*
X234188095Y-105801438D01*
X234188095Y-105801438D02*
X234140476Y-105849057D01*
X234140476Y-105849057D02*
X234092857Y-105944295D01*
X234092857Y-105944295D02*
X234092857Y-106039533D01*
X234092857Y-106039533D02*
X234140476Y-106182390D01*
X234140476Y-106182390D02*
X234711904Y-106753819D01*
X234711904Y-106753819D02*
X234092857Y-106753819D01*
X233759523Y-105753819D02*
X233140476Y-105753819D01*
X233140476Y-105753819D02*
X233473809Y-106134771D01*
X233473809Y-106134771D02*
X233330952Y-106134771D01*
X233330952Y-106134771D02*
X233235714Y-106182390D01*
X233235714Y-106182390D02*
X233188095Y-106230009D01*
X233188095Y-106230009D02*
X233140476Y-106325247D01*
X233140476Y-106325247D02*
X233140476Y-106563342D01*
X233140476Y-106563342D02*
X233188095Y-106658580D01*
X233188095Y-106658580D02*
X233235714Y-106706200D01*
X233235714Y-106706200D02*
X233330952Y-106753819D01*
X233330952Y-106753819D02*
X233616666Y-106753819D01*
X233616666Y-106753819D02*
X233711904Y-106706200D01*
X233711904Y-106706200D02*
X233759523Y-106658580D01*
X160559523Y-97181200D02*
X160416666Y-97228819D01*
X160416666Y-97228819D02*
X160178571Y-97228819D01*
X160178571Y-97228819D02*
X160083333Y-97181200D01*
X160083333Y-97181200D02*
X160035714Y-97133580D01*
X160035714Y-97133580D02*
X159988095Y-97038342D01*
X159988095Y-97038342D02*
X159988095Y-96943104D01*
X159988095Y-96943104D02*
X160035714Y-96847866D01*
X160035714Y-96847866D02*
X160083333Y-96800247D01*
X160083333Y-96800247D02*
X160178571Y-96752628D01*
X160178571Y-96752628D02*
X160369047Y-96705009D01*
X160369047Y-96705009D02*
X160464285Y-96657390D01*
X160464285Y-96657390D02*
X160511904Y-96609771D01*
X160511904Y-96609771D02*
X160559523Y-96514533D01*
X160559523Y-96514533D02*
X160559523Y-96419295D01*
X160559523Y-96419295D02*
X160511904Y-96324057D01*
X160511904Y-96324057D02*
X160464285Y-96276438D01*
X160464285Y-96276438D02*
X160369047Y-96228819D01*
X160369047Y-96228819D02*
X160130952Y-96228819D01*
X160130952Y-96228819D02*
X159988095Y-96276438D01*
X159654761Y-96228819D02*
X159416666Y-97228819D01*
X159416666Y-97228819D02*
X159226190Y-96514533D01*
X159226190Y-96514533D02*
X159035714Y-97228819D01*
X159035714Y-97228819D02*
X158797619Y-96228819D01*
X157892857Y-97228819D02*
X158464285Y-97228819D01*
X158178571Y-97228819D02*
X158178571Y-96228819D01*
X158178571Y-96228819D02*
X158273809Y-96371676D01*
X158273809Y-96371676D02*
X158369047Y-96466914D01*
X158369047Y-96466914D02*
X158464285Y-96514533D01*
X157273809Y-96228819D02*
X157178571Y-96228819D01*
X157178571Y-96228819D02*
X157083333Y-96276438D01*
X157083333Y-96276438D02*
X157035714Y-96324057D01*
X157035714Y-96324057D02*
X156988095Y-96419295D01*
X156988095Y-96419295D02*
X156940476Y-96609771D01*
X156940476Y-96609771D02*
X156940476Y-96847866D01*
X156940476Y-96847866D02*
X156988095Y-97038342D01*
X156988095Y-97038342D02*
X157035714Y-97133580D01*
X157035714Y-97133580D02*
X157083333Y-97181200D01*
X157083333Y-97181200D02*
X157178571Y-97228819D01*
X157178571Y-97228819D02*
X157273809Y-97228819D01*
X157273809Y-97228819D02*
X157369047Y-97181200D01*
X157369047Y-97181200D02*
X157416666Y-97133580D01*
X157416666Y-97133580D02*
X157464285Y-97038342D01*
X157464285Y-97038342D02*
X157511904Y-96847866D01*
X157511904Y-96847866D02*
X157511904Y-96609771D01*
X157511904Y-96609771D02*
X157464285Y-96419295D01*
X157464285Y-96419295D02*
X157416666Y-96324057D01*
X157416666Y-96324057D02*
X157369047Y-96276438D01*
X157369047Y-96276438D02*
X157273809Y-96228819D01*
X198659523Y-106706200D02*
X198516666Y-106753819D01*
X198516666Y-106753819D02*
X198278571Y-106753819D01*
X198278571Y-106753819D02*
X198183333Y-106706200D01*
X198183333Y-106706200D02*
X198135714Y-106658580D01*
X198135714Y-106658580D02*
X198088095Y-106563342D01*
X198088095Y-106563342D02*
X198088095Y-106468104D01*
X198088095Y-106468104D02*
X198135714Y-106372866D01*
X198135714Y-106372866D02*
X198183333Y-106325247D01*
X198183333Y-106325247D02*
X198278571Y-106277628D01*
X198278571Y-106277628D02*
X198469047Y-106230009D01*
X198469047Y-106230009D02*
X198564285Y-106182390D01*
X198564285Y-106182390D02*
X198611904Y-106134771D01*
X198611904Y-106134771D02*
X198659523Y-106039533D01*
X198659523Y-106039533D02*
X198659523Y-105944295D01*
X198659523Y-105944295D02*
X198611904Y-105849057D01*
X198611904Y-105849057D02*
X198564285Y-105801438D01*
X198564285Y-105801438D02*
X198469047Y-105753819D01*
X198469047Y-105753819D02*
X198230952Y-105753819D01*
X198230952Y-105753819D02*
X198088095Y-105801438D01*
X197754761Y-105753819D02*
X197516666Y-106753819D01*
X197516666Y-106753819D02*
X197326190Y-106039533D01*
X197326190Y-106039533D02*
X197135714Y-106753819D01*
X197135714Y-106753819D02*
X196897619Y-105753819D01*
X196564285Y-105849057D02*
X196516666Y-105801438D01*
X196516666Y-105801438D02*
X196421428Y-105753819D01*
X196421428Y-105753819D02*
X196183333Y-105753819D01*
X196183333Y-105753819D02*
X196088095Y-105801438D01*
X196088095Y-105801438D02*
X196040476Y-105849057D01*
X196040476Y-105849057D02*
X195992857Y-105944295D01*
X195992857Y-105944295D02*
X195992857Y-106039533D01*
X195992857Y-106039533D02*
X196040476Y-106182390D01*
X196040476Y-106182390D02*
X196611904Y-106753819D01*
X196611904Y-106753819D02*
X195992857Y-106753819D01*
X195040476Y-106753819D02*
X195611904Y-106753819D01*
X195326190Y-106753819D02*
X195326190Y-105753819D01*
X195326190Y-105753819D02*
X195421428Y-105896676D01*
X195421428Y-105896676D02*
X195516666Y-105991914D01*
X195516666Y-105991914D02*
X195611904Y-106039533D01*
X102933332Y-97181200D02*
X102790475Y-97228819D01*
X102790475Y-97228819D02*
X102552380Y-97228819D01*
X102552380Y-97228819D02*
X102457142Y-97181200D01*
X102457142Y-97181200D02*
X102409523Y-97133580D01*
X102409523Y-97133580D02*
X102361904Y-97038342D01*
X102361904Y-97038342D02*
X102361904Y-96943104D01*
X102361904Y-96943104D02*
X102409523Y-96847866D01*
X102409523Y-96847866D02*
X102457142Y-96800247D01*
X102457142Y-96800247D02*
X102552380Y-96752628D01*
X102552380Y-96752628D02*
X102742856Y-96705009D01*
X102742856Y-96705009D02*
X102838094Y-96657390D01*
X102838094Y-96657390D02*
X102885713Y-96609771D01*
X102885713Y-96609771D02*
X102933332Y-96514533D01*
X102933332Y-96514533D02*
X102933332Y-96419295D01*
X102933332Y-96419295D02*
X102885713Y-96324057D01*
X102885713Y-96324057D02*
X102838094Y-96276438D01*
X102838094Y-96276438D02*
X102742856Y-96228819D01*
X102742856Y-96228819D02*
X102504761Y-96228819D01*
X102504761Y-96228819D02*
X102361904Y-96276438D01*
X102028570Y-96228819D02*
X101790475Y-97228819D01*
X101790475Y-97228819D02*
X101599999Y-96514533D01*
X101599999Y-96514533D02*
X101409523Y-97228819D01*
X101409523Y-97228819D02*
X101171428Y-96228819D01*
X100742856Y-97228819D02*
X100552380Y-97228819D01*
X100552380Y-97228819D02*
X100457142Y-97181200D01*
X100457142Y-97181200D02*
X100409523Y-97133580D01*
X100409523Y-97133580D02*
X100314285Y-96990723D01*
X100314285Y-96990723D02*
X100266666Y-96800247D01*
X100266666Y-96800247D02*
X100266666Y-96419295D01*
X100266666Y-96419295D02*
X100314285Y-96324057D01*
X100314285Y-96324057D02*
X100361904Y-96276438D01*
X100361904Y-96276438D02*
X100457142Y-96228819D01*
X100457142Y-96228819D02*
X100647618Y-96228819D01*
X100647618Y-96228819D02*
X100742856Y-96276438D01*
X100742856Y-96276438D02*
X100790475Y-96324057D01*
X100790475Y-96324057D02*
X100838094Y-96419295D01*
X100838094Y-96419295D02*
X100838094Y-96657390D01*
X100838094Y-96657390D02*
X100790475Y-96752628D01*
X100790475Y-96752628D02*
X100742856Y-96800247D01*
X100742856Y-96800247D02*
X100647618Y-96847866D01*
X100647618Y-96847866D02*
X100457142Y-96847866D01*
X100457142Y-96847866D02*
X100361904Y-96800247D01*
X100361904Y-96800247D02*
X100314285Y-96752628D01*
X100314285Y-96752628D02*
X100266666Y-96657390D01*
X226758332Y-68606200D02*
X226615475Y-68653819D01*
X226615475Y-68653819D02*
X226377380Y-68653819D01*
X226377380Y-68653819D02*
X226282142Y-68606200D01*
X226282142Y-68606200D02*
X226234523Y-68558580D01*
X226234523Y-68558580D02*
X226186904Y-68463342D01*
X226186904Y-68463342D02*
X226186904Y-68368104D01*
X226186904Y-68368104D02*
X226234523Y-68272866D01*
X226234523Y-68272866D02*
X226282142Y-68225247D01*
X226282142Y-68225247D02*
X226377380Y-68177628D01*
X226377380Y-68177628D02*
X226567856Y-68130009D01*
X226567856Y-68130009D02*
X226663094Y-68082390D01*
X226663094Y-68082390D02*
X226710713Y-68034771D01*
X226710713Y-68034771D02*
X226758332Y-67939533D01*
X226758332Y-67939533D02*
X226758332Y-67844295D01*
X226758332Y-67844295D02*
X226710713Y-67749057D01*
X226710713Y-67749057D02*
X226663094Y-67701438D01*
X226663094Y-67701438D02*
X226567856Y-67653819D01*
X226567856Y-67653819D02*
X226329761Y-67653819D01*
X226329761Y-67653819D02*
X226186904Y-67701438D01*
X225853570Y-67653819D02*
X225615475Y-68653819D01*
X225615475Y-68653819D02*
X225424999Y-67939533D01*
X225424999Y-67939533D02*
X225234523Y-68653819D01*
X225234523Y-68653819D02*
X224996428Y-67653819D01*
X224186904Y-67987152D02*
X224186904Y-68653819D01*
X224424999Y-67606200D02*
X224663094Y-68320485D01*
X224663094Y-68320485D02*
X224044047Y-68320485D01*
X84359523Y-144806200D02*
X84216666Y-144853819D01*
X84216666Y-144853819D02*
X83978571Y-144853819D01*
X83978571Y-144853819D02*
X83883333Y-144806200D01*
X83883333Y-144806200D02*
X83835714Y-144758580D01*
X83835714Y-144758580D02*
X83788095Y-144663342D01*
X83788095Y-144663342D02*
X83788095Y-144568104D01*
X83788095Y-144568104D02*
X83835714Y-144472866D01*
X83835714Y-144472866D02*
X83883333Y-144425247D01*
X83883333Y-144425247D02*
X83978571Y-144377628D01*
X83978571Y-144377628D02*
X84169047Y-144330009D01*
X84169047Y-144330009D02*
X84264285Y-144282390D01*
X84264285Y-144282390D02*
X84311904Y-144234771D01*
X84311904Y-144234771D02*
X84359523Y-144139533D01*
X84359523Y-144139533D02*
X84359523Y-144044295D01*
X84359523Y-144044295D02*
X84311904Y-143949057D01*
X84311904Y-143949057D02*
X84264285Y-143901438D01*
X84264285Y-143901438D02*
X84169047Y-143853819D01*
X84169047Y-143853819D02*
X83930952Y-143853819D01*
X83930952Y-143853819D02*
X83788095Y-143901438D01*
X83454761Y-143853819D02*
X83216666Y-144853819D01*
X83216666Y-144853819D02*
X83026190Y-144139533D01*
X83026190Y-144139533D02*
X82835714Y-144853819D01*
X82835714Y-144853819D02*
X82597619Y-143853819D01*
X82264285Y-143949057D02*
X82216666Y-143901438D01*
X82216666Y-143901438D02*
X82121428Y-143853819D01*
X82121428Y-143853819D02*
X81883333Y-143853819D01*
X81883333Y-143853819D02*
X81788095Y-143901438D01*
X81788095Y-143901438D02*
X81740476Y-143949057D01*
X81740476Y-143949057D02*
X81692857Y-144044295D01*
X81692857Y-144044295D02*
X81692857Y-144139533D01*
X81692857Y-144139533D02*
X81740476Y-144282390D01*
X81740476Y-144282390D02*
X82311904Y-144853819D01*
X82311904Y-144853819D02*
X81692857Y-144853819D01*
X80788095Y-143853819D02*
X81264285Y-143853819D01*
X81264285Y-143853819D02*
X81311904Y-144330009D01*
X81311904Y-144330009D02*
X81264285Y-144282390D01*
X81264285Y-144282390D02*
X81169047Y-144234771D01*
X81169047Y-144234771D02*
X80930952Y-144234771D01*
X80930952Y-144234771D02*
X80835714Y-144282390D01*
X80835714Y-144282390D02*
X80788095Y-144330009D01*
X80788095Y-144330009D02*
X80740476Y-144425247D01*
X80740476Y-144425247D02*
X80740476Y-144663342D01*
X80740476Y-144663342D02*
X80788095Y-144758580D01*
X80788095Y-144758580D02*
X80835714Y-144806200D01*
X80835714Y-144806200D02*
X80930952Y-144853819D01*
X80930952Y-144853819D02*
X81169047Y-144853819D01*
X81169047Y-144853819D02*
X81264285Y-144806200D01*
X81264285Y-144806200D02*
X81311904Y-144758580D01*
X179609523Y-87656200D02*
X179466666Y-87703819D01*
X179466666Y-87703819D02*
X179228571Y-87703819D01*
X179228571Y-87703819D02*
X179133333Y-87656200D01*
X179133333Y-87656200D02*
X179085714Y-87608580D01*
X179085714Y-87608580D02*
X179038095Y-87513342D01*
X179038095Y-87513342D02*
X179038095Y-87418104D01*
X179038095Y-87418104D02*
X179085714Y-87322866D01*
X179085714Y-87322866D02*
X179133333Y-87275247D01*
X179133333Y-87275247D02*
X179228571Y-87227628D01*
X179228571Y-87227628D02*
X179419047Y-87180009D01*
X179419047Y-87180009D02*
X179514285Y-87132390D01*
X179514285Y-87132390D02*
X179561904Y-87084771D01*
X179561904Y-87084771D02*
X179609523Y-86989533D01*
X179609523Y-86989533D02*
X179609523Y-86894295D01*
X179609523Y-86894295D02*
X179561904Y-86799057D01*
X179561904Y-86799057D02*
X179514285Y-86751438D01*
X179514285Y-86751438D02*
X179419047Y-86703819D01*
X179419047Y-86703819D02*
X179180952Y-86703819D01*
X179180952Y-86703819D02*
X179038095Y-86751438D01*
X178704761Y-86703819D02*
X178466666Y-87703819D01*
X178466666Y-87703819D02*
X178276190Y-86989533D01*
X178276190Y-86989533D02*
X178085714Y-87703819D01*
X178085714Y-87703819D02*
X177847619Y-86703819D01*
X176942857Y-87703819D02*
X177514285Y-87703819D01*
X177228571Y-87703819D02*
X177228571Y-86703819D01*
X177228571Y-86703819D02*
X177323809Y-86846676D01*
X177323809Y-86846676D02*
X177419047Y-86941914D01*
X177419047Y-86941914D02*
X177514285Y-86989533D01*
X175990476Y-87703819D02*
X176561904Y-87703819D01*
X176276190Y-87703819D02*
X176276190Y-86703819D01*
X176276190Y-86703819D02*
X176371428Y-86846676D01*
X176371428Y-86846676D02*
X176466666Y-86941914D01*
X176466666Y-86941914D02*
X176561904Y-86989533D01*
X26733332Y-87656200D02*
X26590475Y-87703819D01*
X26590475Y-87703819D02*
X26352380Y-87703819D01*
X26352380Y-87703819D02*
X26257142Y-87656200D01*
X26257142Y-87656200D02*
X26209523Y-87608580D01*
X26209523Y-87608580D02*
X26161904Y-87513342D01*
X26161904Y-87513342D02*
X26161904Y-87418104D01*
X26161904Y-87418104D02*
X26209523Y-87322866D01*
X26209523Y-87322866D02*
X26257142Y-87275247D01*
X26257142Y-87275247D02*
X26352380Y-87227628D01*
X26352380Y-87227628D02*
X26542856Y-87180009D01*
X26542856Y-87180009D02*
X26638094Y-87132390D01*
X26638094Y-87132390D02*
X26685713Y-87084771D01*
X26685713Y-87084771D02*
X26733332Y-86989533D01*
X26733332Y-86989533D02*
X26733332Y-86894295D01*
X26733332Y-86894295D02*
X26685713Y-86799057D01*
X26685713Y-86799057D02*
X26638094Y-86751438D01*
X26638094Y-86751438D02*
X26542856Y-86703819D01*
X26542856Y-86703819D02*
X26304761Y-86703819D01*
X26304761Y-86703819D02*
X26161904Y-86751438D01*
X25828570Y-86703819D02*
X25590475Y-87703819D01*
X25590475Y-87703819D02*
X25399999Y-86989533D01*
X25399999Y-86989533D02*
X25209523Y-87703819D01*
X25209523Y-87703819D02*
X24971428Y-86703819D01*
X24114285Y-86703819D02*
X24590475Y-86703819D01*
X24590475Y-86703819D02*
X24638094Y-87180009D01*
X24638094Y-87180009D02*
X24590475Y-87132390D01*
X24590475Y-87132390D02*
X24495237Y-87084771D01*
X24495237Y-87084771D02*
X24257142Y-87084771D01*
X24257142Y-87084771D02*
X24161904Y-87132390D01*
X24161904Y-87132390D02*
X24114285Y-87180009D01*
X24114285Y-87180009D02*
X24066666Y-87275247D01*
X24066666Y-87275247D02*
X24066666Y-87513342D01*
X24066666Y-87513342D02*
X24114285Y-87608580D01*
X24114285Y-87608580D02*
X24161904Y-87656200D01*
X24161904Y-87656200D02*
X24257142Y-87703819D01*
X24257142Y-87703819D02*
X24495237Y-87703819D01*
X24495237Y-87703819D02*
X24590475Y-87656200D01*
X24590475Y-87656200D02*
X24638094Y-87608580D01*
X103409523Y-144806200D02*
X103266666Y-144853819D01*
X103266666Y-144853819D02*
X103028571Y-144853819D01*
X103028571Y-144853819D02*
X102933333Y-144806200D01*
X102933333Y-144806200D02*
X102885714Y-144758580D01*
X102885714Y-144758580D02*
X102838095Y-144663342D01*
X102838095Y-144663342D02*
X102838095Y-144568104D01*
X102838095Y-144568104D02*
X102885714Y-144472866D01*
X102885714Y-144472866D02*
X102933333Y-144425247D01*
X102933333Y-144425247D02*
X103028571Y-144377628D01*
X103028571Y-144377628D02*
X103219047Y-144330009D01*
X103219047Y-144330009D02*
X103314285Y-144282390D01*
X103314285Y-144282390D02*
X103361904Y-144234771D01*
X103361904Y-144234771D02*
X103409523Y-144139533D01*
X103409523Y-144139533D02*
X103409523Y-144044295D01*
X103409523Y-144044295D02*
X103361904Y-143949057D01*
X103361904Y-143949057D02*
X103314285Y-143901438D01*
X103314285Y-143901438D02*
X103219047Y-143853819D01*
X103219047Y-143853819D02*
X102980952Y-143853819D01*
X102980952Y-143853819D02*
X102838095Y-143901438D01*
X102504761Y-143853819D02*
X102266666Y-144853819D01*
X102266666Y-144853819D02*
X102076190Y-144139533D01*
X102076190Y-144139533D02*
X101885714Y-144853819D01*
X101885714Y-144853819D02*
X101647619Y-143853819D01*
X101314285Y-143949057D02*
X101266666Y-143901438D01*
X101266666Y-143901438D02*
X101171428Y-143853819D01*
X101171428Y-143853819D02*
X100933333Y-143853819D01*
X100933333Y-143853819D02*
X100838095Y-143901438D01*
X100838095Y-143901438D02*
X100790476Y-143949057D01*
X100790476Y-143949057D02*
X100742857Y-144044295D01*
X100742857Y-144044295D02*
X100742857Y-144139533D01*
X100742857Y-144139533D02*
X100790476Y-144282390D01*
X100790476Y-144282390D02*
X101361904Y-144853819D01*
X101361904Y-144853819D02*
X100742857Y-144853819D01*
X99885714Y-143853819D02*
X100076190Y-143853819D01*
X100076190Y-143853819D02*
X100171428Y-143901438D01*
X100171428Y-143901438D02*
X100219047Y-143949057D01*
X100219047Y-143949057D02*
X100314285Y-144091914D01*
X100314285Y-144091914D02*
X100361904Y-144282390D01*
X100361904Y-144282390D02*
X100361904Y-144663342D01*
X100361904Y-144663342D02*
X100314285Y-144758580D01*
X100314285Y-144758580D02*
X100266666Y-144806200D01*
X100266666Y-144806200D02*
X100171428Y-144853819D01*
X100171428Y-144853819D02*
X99980952Y-144853819D01*
X99980952Y-144853819D02*
X99885714Y-144806200D01*
X99885714Y-144806200D02*
X99838095Y-144758580D01*
X99838095Y-144758580D02*
X99790476Y-144663342D01*
X99790476Y-144663342D02*
X99790476Y-144425247D01*
X99790476Y-144425247D02*
X99838095Y-144330009D01*
X99838095Y-144330009D02*
X99885714Y-144282390D01*
X99885714Y-144282390D02*
X99980952Y-144234771D01*
X99980952Y-144234771D02*
X100171428Y-144234771D01*
X100171428Y-144234771D02*
X100266666Y-144282390D01*
X100266666Y-144282390D02*
X100314285Y-144330009D01*
X100314285Y-144330009D02*
X100361904Y-144425247D01*
X188658332Y-68606200D02*
X188515475Y-68653819D01*
X188515475Y-68653819D02*
X188277380Y-68653819D01*
X188277380Y-68653819D02*
X188182142Y-68606200D01*
X188182142Y-68606200D02*
X188134523Y-68558580D01*
X188134523Y-68558580D02*
X188086904Y-68463342D01*
X188086904Y-68463342D02*
X188086904Y-68368104D01*
X188086904Y-68368104D02*
X188134523Y-68272866D01*
X188134523Y-68272866D02*
X188182142Y-68225247D01*
X188182142Y-68225247D02*
X188277380Y-68177628D01*
X188277380Y-68177628D02*
X188467856Y-68130009D01*
X188467856Y-68130009D02*
X188563094Y-68082390D01*
X188563094Y-68082390D02*
X188610713Y-68034771D01*
X188610713Y-68034771D02*
X188658332Y-67939533D01*
X188658332Y-67939533D02*
X188658332Y-67844295D01*
X188658332Y-67844295D02*
X188610713Y-67749057D01*
X188610713Y-67749057D02*
X188563094Y-67701438D01*
X188563094Y-67701438D02*
X188467856Y-67653819D01*
X188467856Y-67653819D02*
X188229761Y-67653819D01*
X188229761Y-67653819D02*
X188086904Y-67701438D01*
X187753570Y-67653819D02*
X187515475Y-68653819D01*
X187515475Y-68653819D02*
X187324999Y-67939533D01*
X187324999Y-67939533D02*
X187134523Y-68653819D01*
X187134523Y-68653819D02*
X186896428Y-67653819D01*
X186610713Y-67653819D02*
X185991666Y-67653819D01*
X185991666Y-67653819D02*
X186324999Y-68034771D01*
X186324999Y-68034771D02*
X186182142Y-68034771D01*
X186182142Y-68034771D02*
X186086904Y-68082390D01*
X186086904Y-68082390D02*
X186039285Y-68130009D01*
X186039285Y-68130009D02*
X185991666Y-68225247D01*
X185991666Y-68225247D02*
X185991666Y-68463342D01*
X185991666Y-68463342D02*
X186039285Y-68558580D01*
X186039285Y-68558580D02*
X186086904Y-68606200D01*
X186086904Y-68606200D02*
X186182142Y-68653819D01*
X186182142Y-68653819D02*
X186467856Y-68653819D01*
X186467856Y-68653819D02*
X186563094Y-68606200D01*
X186563094Y-68606200D02*
X186610713Y-68558580D01*
X217709523Y-87656200D02*
X217566666Y-87703819D01*
X217566666Y-87703819D02*
X217328571Y-87703819D01*
X217328571Y-87703819D02*
X217233333Y-87656200D01*
X217233333Y-87656200D02*
X217185714Y-87608580D01*
X217185714Y-87608580D02*
X217138095Y-87513342D01*
X217138095Y-87513342D02*
X217138095Y-87418104D01*
X217138095Y-87418104D02*
X217185714Y-87322866D01*
X217185714Y-87322866D02*
X217233333Y-87275247D01*
X217233333Y-87275247D02*
X217328571Y-87227628D01*
X217328571Y-87227628D02*
X217519047Y-87180009D01*
X217519047Y-87180009D02*
X217614285Y-87132390D01*
X217614285Y-87132390D02*
X217661904Y-87084771D01*
X217661904Y-87084771D02*
X217709523Y-86989533D01*
X217709523Y-86989533D02*
X217709523Y-86894295D01*
X217709523Y-86894295D02*
X217661904Y-86799057D01*
X217661904Y-86799057D02*
X217614285Y-86751438D01*
X217614285Y-86751438D02*
X217519047Y-86703819D01*
X217519047Y-86703819D02*
X217280952Y-86703819D01*
X217280952Y-86703819D02*
X217138095Y-86751438D01*
X216804761Y-86703819D02*
X216566666Y-87703819D01*
X216566666Y-87703819D02*
X216376190Y-86989533D01*
X216376190Y-86989533D02*
X216185714Y-87703819D01*
X216185714Y-87703819D02*
X215947619Y-86703819D01*
X215042857Y-87703819D02*
X215614285Y-87703819D01*
X215328571Y-87703819D02*
X215328571Y-86703819D01*
X215328571Y-86703819D02*
X215423809Y-86846676D01*
X215423809Y-86846676D02*
X215519047Y-86941914D01*
X215519047Y-86941914D02*
X215614285Y-86989533D01*
X214709523Y-86703819D02*
X214090476Y-86703819D01*
X214090476Y-86703819D02*
X214423809Y-87084771D01*
X214423809Y-87084771D02*
X214280952Y-87084771D01*
X214280952Y-87084771D02*
X214185714Y-87132390D01*
X214185714Y-87132390D02*
X214138095Y-87180009D01*
X214138095Y-87180009D02*
X214090476Y-87275247D01*
X214090476Y-87275247D02*
X214090476Y-87513342D01*
X214090476Y-87513342D02*
X214138095Y-87608580D01*
X214138095Y-87608580D02*
X214185714Y-87656200D01*
X214185714Y-87656200D02*
X214280952Y-87703819D01*
X214280952Y-87703819D02*
X214566666Y-87703819D01*
X214566666Y-87703819D02*
X214661904Y-87656200D01*
X214661904Y-87656200D02*
X214709523Y-87608580D01*
X179609523Y-144806200D02*
X179466666Y-144853819D01*
X179466666Y-144853819D02*
X179228571Y-144853819D01*
X179228571Y-144853819D02*
X179133333Y-144806200D01*
X179133333Y-144806200D02*
X179085714Y-144758580D01*
X179085714Y-144758580D02*
X179038095Y-144663342D01*
X179038095Y-144663342D02*
X179038095Y-144568104D01*
X179038095Y-144568104D02*
X179085714Y-144472866D01*
X179085714Y-144472866D02*
X179133333Y-144425247D01*
X179133333Y-144425247D02*
X179228571Y-144377628D01*
X179228571Y-144377628D02*
X179419047Y-144330009D01*
X179419047Y-144330009D02*
X179514285Y-144282390D01*
X179514285Y-144282390D02*
X179561904Y-144234771D01*
X179561904Y-144234771D02*
X179609523Y-144139533D01*
X179609523Y-144139533D02*
X179609523Y-144044295D01*
X179609523Y-144044295D02*
X179561904Y-143949057D01*
X179561904Y-143949057D02*
X179514285Y-143901438D01*
X179514285Y-143901438D02*
X179419047Y-143853819D01*
X179419047Y-143853819D02*
X179180952Y-143853819D01*
X179180952Y-143853819D02*
X179038095Y-143901438D01*
X178704761Y-143853819D02*
X178466666Y-144853819D01*
X178466666Y-144853819D02*
X178276190Y-144139533D01*
X178276190Y-144139533D02*
X178085714Y-144853819D01*
X178085714Y-144853819D02*
X177847619Y-143853819D01*
X177514285Y-143949057D02*
X177466666Y-143901438D01*
X177466666Y-143901438D02*
X177371428Y-143853819D01*
X177371428Y-143853819D02*
X177133333Y-143853819D01*
X177133333Y-143853819D02*
X177038095Y-143901438D01*
X177038095Y-143901438D02*
X176990476Y-143949057D01*
X176990476Y-143949057D02*
X176942857Y-144044295D01*
X176942857Y-144044295D02*
X176942857Y-144139533D01*
X176942857Y-144139533D02*
X176990476Y-144282390D01*
X176990476Y-144282390D02*
X177561904Y-144853819D01*
X177561904Y-144853819D02*
X176942857Y-144853819D01*
X176371428Y-144282390D02*
X176466666Y-144234771D01*
X176466666Y-144234771D02*
X176514285Y-144187152D01*
X176514285Y-144187152D02*
X176561904Y-144091914D01*
X176561904Y-144091914D02*
X176561904Y-144044295D01*
X176561904Y-144044295D02*
X176514285Y-143949057D01*
X176514285Y-143949057D02*
X176466666Y-143901438D01*
X176466666Y-143901438D02*
X176371428Y-143853819D01*
X176371428Y-143853819D02*
X176180952Y-143853819D01*
X176180952Y-143853819D02*
X176085714Y-143901438D01*
X176085714Y-143901438D02*
X176038095Y-143949057D01*
X176038095Y-143949057D02*
X175990476Y-144044295D01*
X175990476Y-144044295D02*
X175990476Y-144091914D01*
X175990476Y-144091914D02*
X176038095Y-144187152D01*
X176038095Y-144187152D02*
X176085714Y-144234771D01*
X176085714Y-144234771D02*
X176180952Y-144282390D01*
X176180952Y-144282390D02*
X176371428Y-144282390D01*
X176371428Y-144282390D02*
X176466666Y-144330009D01*
X176466666Y-144330009D02*
X176514285Y-144377628D01*
X176514285Y-144377628D02*
X176561904Y-144472866D01*
X176561904Y-144472866D02*
X176561904Y-144663342D01*
X176561904Y-144663342D02*
X176514285Y-144758580D01*
X176514285Y-144758580D02*
X176466666Y-144806200D01*
X176466666Y-144806200D02*
X176371428Y-144853819D01*
X176371428Y-144853819D02*
X176180952Y-144853819D01*
X176180952Y-144853819D02*
X176085714Y-144806200D01*
X176085714Y-144806200D02*
X176038095Y-144758580D01*
X176038095Y-144758580D02*
X175990476Y-144663342D01*
X175990476Y-144663342D02*
X175990476Y-144472866D01*
X175990476Y-144472866D02*
X176038095Y-144377628D01*
X176038095Y-144377628D02*
X176085714Y-144330009D01*
X176085714Y-144330009D02*
X176180952Y-144282390D01*
X84359523Y-106706200D02*
X84216666Y-106753819D01*
X84216666Y-106753819D02*
X83978571Y-106753819D01*
X83978571Y-106753819D02*
X83883333Y-106706200D01*
X83883333Y-106706200D02*
X83835714Y-106658580D01*
X83835714Y-106658580D02*
X83788095Y-106563342D01*
X83788095Y-106563342D02*
X83788095Y-106468104D01*
X83788095Y-106468104D02*
X83835714Y-106372866D01*
X83835714Y-106372866D02*
X83883333Y-106325247D01*
X83883333Y-106325247D02*
X83978571Y-106277628D01*
X83978571Y-106277628D02*
X84169047Y-106230009D01*
X84169047Y-106230009D02*
X84264285Y-106182390D01*
X84264285Y-106182390D02*
X84311904Y-106134771D01*
X84311904Y-106134771D02*
X84359523Y-106039533D01*
X84359523Y-106039533D02*
X84359523Y-105944295D01*
X84359523Y-105944295D02*
X84311904Y-105849057D01*
X84311904Y-105849057D02*
X84264285Y-105801438D01*
X84264285Y-105801438D02*
X84169047Y-105753819D01*
X84169047Y-105753819D02*
X83930952Y-105753819D01*
X83930952Y-105753819D02*
X83788095Y-105801438D01*
X83454761Y-105753819D02*
X83216666Y-106753819D01*
X83216666Y-106753819D02*
X83026190Y-106039533D01*
X83026190Y-106039533D02*
X82835714Y-106753819D01*
X82835714Y-106753819D02*
X82597619Y-105753819D01*
X81692857Y-106753819D02*
X82264285Y-106753819D01*
X81978571Y-106753819D02*
X81978571Y-105753819D01*
X81978571Y-105753819D02*
X82073809Y-105896676D01*
X82073809Y-105896676D02*
X82169047Y-105991914D01*
X82169047Y-105991914D02*
X82264285Y-106039533D01*
X81216666Y-106753819D02*
X81026190Y-106753819D01*
X81026190Y-106753819D02*
X80930952Y-106706200D01*
X80930952Y-106706200D02*
X80883333Y-106658580D01*
X80883333Y-106658580D02*
X80788095Y-106515723D01*
X80788095Y-106515723D02*
X80740476Y-106325247D01*
X80740476Y-106325247D02*
X80740476Y-105944295D01*
X80740476Y-105944295D02*
X80788095Y-105849057D01*
X80788095Y-105849057D02*
X80835714Y-105801438D01*
X80835714Y-105801438D02*
X80930952Y-105753819D01*
X80930952Y-105753819D02*
X81121428Y-105753819D01*
X81121428Y-105753819D02*
X81216666Y-105801438D01*
X81216666Y-105801438D02*
X81264285Y-105849057D01*
X81264285Y-105849057D02*
X81311904Y-105944295D01*
X81311904Y-105944295D02*
X81311904Y-106182390D01*
X81311904Y-106182390D02*
X81264285Y-106277628D01*
X81264285Y-106277628D02*
X81216666Y-106325247D01*
X81216666Y-106325247D02*
X81121428Y-106372866D01*
X81121428Y-106372866D02*
X80930952Y-106372866D01*
X80930952Y-106372866D02*
X80835714Y-106325247D01*
X80835714Y-106325247D02*
X80788095Y-106277628D01*
X80788095Y-106277628D02*
X80740476Y-106182390D01*
X36258332Y-68606200D02*
X36115475Y-68653819D01*
X36115475Y-68653819D02*
X35877380Y-68653819D01*
X35877380Y-68653819D02*
X35782142Y-68606200D01*
X35782142Y-68606200D02*
X35734523Y-68558580D01*
X35734523Y-68558580D02*
X35686904Y-68463342D01*
X35686904Y-68463342D02*
X35686904Y-68368104D01*
X35686904Y-68368104D02*
X35734523Y-68272866D01*
X35734523Y-68272866D02*
X35782142Y-68225247D01*
X35782142Y-68225247D02*
X35877380Y-68177628D01*
X35877380Y-68177628D02*
X36067856Y-68130009D01*
X36067856Y-68130009D02*
X36163094Y-68082390D01*
X36163094Y-68082390D02*
X36210713Y-68034771D01*
X36210713Y-68034771D02*
X36258332Y-67939533D01*
X36258332Y-67939533D02*
X36258332Y-67844295D01*
X36258332Y-67844295D02*
X36210713Y-67749057D01*
X36210713Y-67749057D02*
X36163094Y-67701438D01*
X36163094Y-67701438D02*
X36067856Y-67653819D01*
X36067856Y-67653819D02*
X35829761Y-67653819D01*
X35829761Y-67653819D02*
X35686904Y-67701438D01*
X35353570Y-67653819D02*
X35115475Y-68653819D01*
X35115475Y-68653819D02*
X34924999Y-67939533D01*
X34924999Y-67939533D02*
X34734523Y-68653819D01*
X34734523Y-68653819D02*
X34496428Y-67653819D01*
X33591666Y-68653819D02*
X34163094Y-68653819D01*
X33877380Y-68653819D02*
X33877380Y-67653819D01*
X33877380Y-67653819D02*
X33972618Y-67796676D01*
X33972618Y-67796676D02*
X34067856Y-67891914D01*
X34067856Y-67891914D02*
X34163094Y-67939533D01*
X46259523Y-106706200D02*
X46116666Y-106753819D01*
X46116666Y-106753819D02*
X45878571Y-106753819D01*
X45878571Y-106753819D02*
X45783333Y-106706200D01*
X45783333Y-106706200D02*
X45735714Y-106658580D01*
X45735714Y-106658580D02*
X45688095Y-106563342D01*
X45688095Y-106563342D02*
X45688095Y-106468104D01*
X45688095Y-106468104D02*
X45735714Y-106372866D01*
X45735714Y-106372866D02*
X45783333Y-106325247D01*
X45783333Y-106325247D02*
X45878571Y-106277628D01*
X45878571Y-106277628D02*
X46069047Y-106230009D01*
X46069047Y-106230009D02*
X46164285Y-106182390D01*
X46164285Y-106182390D02*
X46211904Y-106134771D01*
X46211904Y-106134771D02*
X46259523Y-106039533D01*
X46259523Y-106039533D02*
X46259523Y-105944295D01*
X46259523Y-105944295D02*
X46211904Y-105849057D01*
X46211904Y-105849057D02*
X46164285Y-105801438D01*
X46164285Y-105801438D02*
X46069047Y-105753819D01*
X46069047Y-105753819D02*
X45830952Y-105753819D01*
X45830952Y-105753819D02*
X45688095Y-105801438D01*
X45354761Y-105753819D02*
X45116666Y-106753819D01*
X45116666Y-106753819D02*
X44926190Y-106039533D01*
X44926190Y-106039533D02*
X44735714Y-106753819D01*
X44735714Y-106753819D02*
X44497619Y-105753819D01*
X43592857Y-106753819D02*
X44164285Y-106753819D01*
X43878571Y-106753819D02*
X43878571Y-105753819D01*
X43878571Y-105753819D02*
X43973809Y-105896676D01*
X43973809Y-105896676D02*
X44069047Y-105991914D01*
X44069047Y-105991914D02*
X44164285Y-106039533D01*
X43259523Y-105753819D02*
X42592857Y-105753819D01*
X42592857Y-105753819D02*
X43021428Y-106753819D01*
X74358332Y-68606200D02*
X74215475Y-68653819D01*
X74215475Y-68653819D02*
X73977380Y-68653819D01*
X73977380Y-68653819D02*
X73882142Y-68606200D01*
X73882142Y-68606200D02*
X73834523Y-68558580D01*
X73834523Y-68558580D02*
X73786904Y-68463342D01*
X73786904Y-68463342D02*
X73786904Y-68368104D01*
X73786904Y-68368104D02*
X73834523Y-68272866D01*
X73834523Y-68272866D02*
X73882142Y-68225247D01*
X73882142Y-68225247D02*
X73977380Y-68177628D01*
X73977380Y-68177628D02*
X74167856Y-68130009D01*
X74167856Y-68130009D02*
X74263094Y-68082390D01*
X74263094Y-68082390D02*
X74310713Y-68034771D01*
X74310713Y-68034771D02*
X74358332Y-67939533D01*
X74358332Y-67939533D02*
X74358332Y-67844295D01*
X74358332Y-67844295D02*
X74310713Y-67749057D01*
X74310713Y-67749057D02*
X74263094Y-67701438D01*
X74263094Y-67701438D02*
X74167856Y-67653819D01*
X74167856Y-67653819D02*
X73929761Y-67653819D01*
X73929761Y-67653819D02*
X73786904Y-67701438D01*
X73453570Y-67653819D02*
X73215475Y-68653819D01*
X73215475Y-68653819D02*
X73024999Y-67939533D01*
X73024999Y-67939533D02*
X72834523Y-68653819D01*
X72834523Y-68653819D02*
X72596428Y-67653819D01*
X72263094Y-67749057D02*
X72215475Y-67701438D01*
X72215475Y-67701438D02*
X72120237Y-67653819D01*
X72120237Y-67653819D02*
X71882142Y-67653819D01*
X71882142Y-67653819D02*
X71786904Y-67701438D01*
X71786904Y-67701438D02*
X71739285Y-67749057D01*
X71739285Y-67749057D02*
X71691666Y-67844295D01*
X71691666Y-67844295D02*
X71691666Y-67939533D01*
X71691666Y-67939533D02*
X71739285Y-68082390D01*
X71739285Y-68082390D02*
X72310713Y-68653819D01*
X72310713Y-68653819D02*
X71691666Y-68653819D01*
X130889285Y-77004104D02*
X130413095Y-77004104D01*
X130984523Y-77289819D02*
X130651190Y-76289819D01*
X130651190Y-76289819D02*
X130317857Y-77289819D01*
X129460714Y-77289819D02*
X130032142Y-77289819D01*
X129746428Y-77289819D02*
X129746428Y-76289819D01*
X129746428Y-76289819D02*
X129841666Y-76432676D01*
X129841666Y-76432676D02*
X129936904Y-76527914D01*
X129936904Y-76527914D02*
X130032142Y-76575533D01*
D13*
X126782842Y-139404381D02*
X126843889Y-139423439D01*
X126919069Y-139455115D01*
X126955469Y-139472138D01*
X126981740Y-139475215D01*
X126987549Y-139451620D01*
X126987555Y-139450952D01*
X126999856Y-139428426D01*
X127042281Y-139416879D01*
X127124510Y-139413628D01*
X127261471Y-139413628D01*
X127261471Y-140608922D01*
X126987549Y-140608922D01*
X126987549Y-139784779D01*
X126919454Y-139721670D01*
X126898180Y-139703735D01*
X126834811Y-139673091D01*
X126756776Y-139671863D01*
X126650520Y-139698903D01*
X126614701Y-139700615D01*
X126572683Y-139674383D01*
X126516757Y-139612035D01*
X126489628Y-139577547D01*
X126457543Y-139528852D01*
X126452599Y-139497855D01*
X126470563Y-139471707D01*
X126525710Y-139438641D01*
X126611363Y-139412472D01*
X126704292Y-139399496D01*
X126782842Y-139404381D01*
G36*
X126782842Y-139404381D02*
G01*
X126843889Y-139423439D01*
X126919069Y-139455115D01*
X126955469Y-139472138D01*
X126981740Y-139475215D01*
X126987549Y-139451620D01*
X126987555Y-139450952D01*
X126999856Y-139428426D01*
X127042281Y-139416879D01*
X127124510Y-139413628D01*
X127261471Y-139413628D01*
X127261471Y-140608922D01*
X126987549Y-140608922D01*
X126987549Y-139784779D01*
X126919454Y-139721670D01*
X126898180Y-139703735D01*
X126834811Y-139673091D01*
X126756776Y-139671863D01*
X126650520Y-139698903D01*
X126614701Y-139700615D01*
X126572683Y-139674383D01*
X126516757Y-139612035D01*
X126489628Y-139577547D01*
X126457543Y-139528852D01*
X126452599Y-139497855D01*
X126470563Y-139471707D01*
X126525710Y-139438641D01*
X126611363Y-139412472D01*
X126704292Y-139399496D01*
X126782842Y-139404381D01*
G37*
X127145525Y-141297675D02*
X127220760Y-141332886D01*
X127286373Y-141384497D01*
X127286373Y-141332886D01*
X127288008Y-141313290D01*
X127303221Y-141292513D01*
X127344362Y-141283337D01*
X127423334Y-141281275D01*
X127560295Y-141281275D01*
X127560295Y-142501471D01*
X127286373Y-142501471D01*
X127286373Y-142104211D01*
X127286340Y-142081405D01*
X127284003Y-141921089D01*
X127278268Y-141790500D01*
X127269544Y-141696314D01*
X127258241Y-141645208D01*
X127247862Y-141625915D01*
X127183968Y-141565406D01*
X127096937Y-141538622D01*
X127001904Y-141551117D01*
X126978594Y-141559586D01*
X126928937Y-141574555D01*
X126894999Y-141569907D01*
X126860850Y-141539479D01*
X126810559Y-141477111D01*
X126728992Y-141374123D01*
X126786323Y-141327699D01*
X126840823Y-141299755D01*
X126936554Y-141280883D01*
X127044456Y-141280265D01*
X127145525Y-141297675D01*
G36*
X127145525Y-141297675D02*
G01*
X127220760Y-141332886D01*
X127286373Y-141384497D01*
X127286373Y-141332886D01*
X127288008Y-141313290D01*
X127303221Y-141292513D01*
X127344362Y-141283337D01*
X127423334Y-141281275D01*
X127560295Y-141281275D01*
X127560295Y-142501471D01*
X127286373Y-142501471D01*
X127286373Y-142104211D01*
X127286340Y-142081405D01*
X127284003Y-141921089D01*
X127278268Y-141790500D01*
X127269544Y-141696314D01*
X127258241Y-141645208D01*
X127247862Y-141625915D01*
X127183968Y-141565406D01*
X127096937Y-141538622D01*
X127001904Y-141551117D01*
X126978594Y-141559586D01*
X126928937Y-141574555D01*
X126894999Y-141569907D01*
X126860850Y-141539479D01*
X126810559Y-141477111D01*
X126728992Y-141374123D01*
X126786323Y-141327699D01*
X126840823Y-141299755D01*
X126936554Y-141280883D01*
X127044456Y-141280265D01*
X127145525Y-141297675D01*
G37*
X132341471Y-142501471D02*
X132092451Y-142501471D01*
X132092451Y-142117111D01*
X132092176Y-142027706D01*
X132089344Y-141879629D01*
X132082176Y-141770003D01*
X132069116Y-141691252D01*
X132048608Y-141635798D01*
X132019098Y-141596061D01*
X131979031Y-141564465D01*
X131935290Y-141540921D01*
X131883496Y-141534246D01*
X131809831Y-141549090D01*
X131786159Y-141555271D01*
X131727069Y-141564572D01*
X131684818Y-141551245D01*
X131635848Y-141509996D01*
X131626555Y-141501026D01*
X131575179Y-141445534D01*
X131542047Y-141400415D01*
X131537502Y-141389545D01*
X131546508Y-141349409D01*
X131592174Y-141317320D01*
X131664246Y-141294799D01*
X131752471Y-141283367D01*
X131846594Y-141284544D01*
X131936362Y-141299850D01*
X132011520Y-141330806D01*
X132035343Y-141345260D01*
X132075449Y-141366417D01*
X132090296Y-141361572D01*
X132092451Y-141330712D01*
X132092957Y-141319633D01*
X132104970Y-141295091D01*
X132142236Y-141283921D01*
X132216961Y-141281275D01*
X132341471Y-141281275D01*
X132341471Y-142501471D01*
G36*
X132341471Y-142501471D02*
G01*
X132092451Y-142501471D01*
X132092451Y-142117111D01*
X132092176Y-142027706D01*
X132089344Y-141879629D01*
X132082176Y-141770003D01*
X132069116Y-141691252D01*
X132048608Y-141635798D01*
X132019098Y-141596061D01*
X131979031Y-141564465D01*
X131935290Y-141540921D01*
X131883496Y-141534246D01*
X131809831Y-141549090D01*
X131786159Y-141555271D01*
X131727069Y-141564572D01*
X131684818Y-141551245D01*
X131635848Y-141509996D01*
X131626555Y-141501026D01*
X131575179Y-141445534D01*
X131542047Y-141400415D01*
X131537502Y-141389545D01*
X131546508Y-141349409D01*
X131592174Y-141317320D01*
X131664246Y-141294799D01*
X131752471Y-141283367D01*
X131846594Y-141284544D01*
X131936362Y-141299850D01*
X132011520Y-141330806D01*
X132035343Y-141345260D01*
X132075449Y-141366417D01*
X132090296Y-141361572D01*
X132092451Y-141330712D01*
X132092957Y-141319633D01*
X132104970Y-141295091D01*
X132142236Y-141283921D01*
X132216961Y-141281275D01*
X132341471Y-141281275D01*
X132341471Y-142501471D01*
G37*
X127759510Y-139801245D02*
X127761611Y-139975624D01*
X127769833Y-140116460D01*
X127786491Y-140218825D01*
X127813891Y-140288458D01*
X127854343Y-140331093D01*
X127910152Y-140352468D01*
X127983628Y-140358318D01*
X128053783Y-140353097D01*
X128110443Y-140332659D01*
X128151626Y-140291254D01*
X128179640Y-140223147D01*
X128196793Y-140122600D01*
X128205392Y-139983879D01*
X128207746Y-139801245D01*
X128207746Y-139413628D01*
X128456765Y-139413628D01*
X128456765Y-139880928D01*
X128456338Y-140005659D01*
X128453018Y-140166955D01*
X128444687Y-140289965D01*
X128429326Y-140381729D01*
X128404919Y-140449291D01*
X128369447Y-140499691D01*
X128320892Y-140539971D01*
X128257235Y-140577174D01*
X128123562Y-140624270D01*
X127984055Y-140627342D01*
X127852524Y-140583971D01*
X127795135Y-140555857D01*
X127766664Y-140551654D01*
X127759510Y-140571520D01*
X127747632Y-140593826D01*
X127705116Y-140605576D01*
X127622549Y-140608922D01*
X127485589Y-140608922D01*
X127485589Y-139413628D01*
X127759510Y-139413628D01*
X127759510Y-139801245D01*
G36*
X127759510Y-139801245D02*
G01*
X127761611Y-139975624D01*
X127769833Y-140116460D01*
X127786491Y-140218825D01*
X127813891Y-140288458D01*
X127854343Y-140331093D01*
X127910152Y-140352468D01*
X127983628Y-140358318D01*
X128053783Y-140353097D01*
X128110443Y-140332659D01*
X128151626Y-140291254D01*
X128179640Y-140223147D01*
X128196793Y-140122600D01*
X128205392Y-139983879D01*
X128207746Y-139801245D01*
X128207746Y-139413628D01*
X128456765Y-139413628D01*
X128456765Y-139880928D01*
X128456338Y-140005659D01*
X128453018Y-140166955D01*
X128444687Y-140289965D01*
X128429326Y-140381729D01*
X128404919Y-140449291D01*
X128369447Y-140499691D01*
X128320892Y-140539971D01*
X128257235Y-140577174D01*
X128123562Y-140624270D01*
X127984055Y-140627342D01*
X127852524Y-140583971D01*
X127795135Y-140555857D01*
X127766664Y-140551654D01*
X127759510Y-140571520D01*
X127747632Y-140593826D01*
X127705116Y-140605576D01*
X127622549Y-140608922D01*
X127485589Y-140608922D01*
X127485589Y-139413628D01*
X127759510Y-139413628D01*
X127759510Y-139801245D01*
G37*
X131922906Y-139411271D02*
X132036422Y-139446937D01*
X132086473Y-139471177D01*
X132111646Y-139473681D01*
X132117353Y-139451620D01*
X132117359Y-139450952D01*
X132129660Y-139428426D01*
X132172084Y-139416879D01*
X132254314Y-139413628D01*
X132391275Y-139413628D01*
X132391275Y-140608922D01*
X132117353Y-140608922D01*
X132117353Y-140196907D01*
X132117166Y-140057779D01*
X132115885Y-139943493D01*
X132112458Y-139863519D01*
X132105832Y-139809708D01*
X132094954Y-139773912D01*
X132078771Y-139747982D01*
X132056230Y-139723770D01*
X132025527Y-139698017D01*
X131937239Y-139663416D01*
X131844565Y-139673571D01*
X131759671Y-139728298D01*
X131735406Y-139753768D01*
X131717987Y-139779545D01*
X131706304Y-139813848D01*
X131699212Y-139864933D01*
X131695564Y-139941056D01*
X131694215Y-140050471D01*
X131694020Y-140201435D01*
X131694020Y-140608922D01*
X131420098Y-140608922D01*
X131420645Y-140166912D01*
X131420682Y-140147223D01*
X131423058Y-139959209D01*
X131430353Y-139813159D01*
X131444445Y-139701971D01*
X131467207Y-139618544D01*
X131500514Y-139555775D01*
X131546241Y-139506561D01*
X131606264Y-139463802D01*
X131668240Y-139434199D01*
X131793055Y-139407305D01*
X131922906Y-139411271D01*
G36*
X131922906Y-139411271D02*
G01*
X132036422Y-139446937D01*
X132086473Y-139471177D01*
X132111646Y-139473681D01*
X132117353Y-139451620D01*
X132117359Y-139450952D01*
X132129660Y-139428426D01*
X132172084Y-139416879D01*
X132254314Y-139413628D01*
X132391275Y-139413628D01*
X132391275Y-140608922D01*
X132117353Y-140608922D01*
X132117353Y-140196907D01*
X132117166Y-140057779D01*
X132115885Y-139943493D01*
X132112458Y-139863519D01*
X132105832Y-139809708D01*
X132094954Y-139773912D01*
X132078771Y-139747982D01*
X132056230Y-139723770D01*
X132025527Y-139698017D01*
X131937239Y-139663416D01*
X131844565Y-139673571D01*
X131759671Y-139728298D01*
X131735406Y-139753768D01*
X131717987Y-139779545D01*
X131706304Y-139813848D01*
X131699212Y-139864933D01*
X131695564Y-139941056D01*
X131694215Y-140050471D01*
X131694020Y-140201435D01*
X131694020Y-140608922D01*
X131420098Y-140608922D01*
X131420645Y-140166912D01*
X131420682Y-140147223D01*
X131423058Y-139959209D01*
X131430353Y-139813159D01*
X131444445Y-139701971D01*
X131467207Y-139618544D01*
X131500514Y-139555775D01*
X131546241Y-139506561D01*
X131606264Y-139463802D01*
X131668240Y-139434199D01*
X131793055Y-139407305D01*
X131922906Y-139411271D01*
G37*
X126082341Y-139419329D02*
X126218218Y-139472267D01*
X126333135Y-139559655D01*
X126418013Y-139679680D01*
X126423745Y-139691918D01*
X126460135Y-139811281D01*
X126478316Y-139953864D01*
X126478173Y-140102318D01*
X126459590Y-140239297D01*
X126422452Y-140347451D01*
X126376599Y-140422831D01*
X126275669Y-140529620D01*
X126149469Y-140597500D01*
X126041497Y-140624950D01*
X125877088Y-140627947D01*
X125719764Y-140586549D01*
X125580251Y-140502546D01*
X125489954Y-140428116D01*
X125571284Y-140344205D01*
X125622665Y-140294496D01*
X125669141Y-140266820D01*
X125712235Y-140272914D01*
X125767353Y-140310098D01*
X125789331Y-140324655D01*
X125882178Y-140354449D01*
X125988895Y-140354431D01*
X126088808Y-140323723D01*
X126126429Y-140299064D01*
X126181613Y-140226245D01*
X126209278Y-140119290D01*
X126211058Y-139973517D01*
X126211053Y-139973435D01*
X126190470Y-139843014D01*
X126145128Y-139752587D01*
X126070518Y-139696652D01*
X125962128Y-139669704D01*
X125893871Y-139666079D01*
X125834231Y-139680921D01*
X125773065Y-139723918D01*
X125693912Y-139790520D01*
X125593672Y-139709965D01*
X125557050Y-139679105D01*
X125511307Y-139634889D01*
X125493432Y-139608832D01*
X125499762Y-139597089D01*
X125536221Y-139561036D01*
X125594301Y-139515185D01*
X125639744Y-139485348D01*
X125784024Y-139424056D01*
X125934583Y-139402654D01*
X126082341Y-139419329D01*
G36*
X126082341Y-139419329D02*
G01*
X126218218Y-139472267D01*
X126333135Y-139559655D01*
X126418013Y-139679680D01*
X126423745Y-139691918D01*
X126460135Y-139811281D01*
X126478316Y-139953864D01*
X126478173Y-140102318D01*
X126459590Y-140239297D01*
X126422452Y-140347451D01*
X126376599Y-140422831D01*
X126275669Y-140529620D01*
X126149469Y-140597500D01*
X126041497Y-140624950D01*
X125877088Y-140627947D01*
X125719764Y-140586549D01*
X125580251Y-140502546D01*
X125489954Y-140428116D01*
X125571284Y-140344205D01*
X125622665Y-140294496D01*
X125669141Y-140266820D01*
X125712235Y-140272914D01*
X125767353Y-140310098D01*
X125789331Y-140324655D01*
X125882178Y-140354449D01*
X125988895Y-140354431D01*
X126088808Y-140323723D01*
X126126429Y-140299064D01*
X126181613Y-140226245D01*
X126209278Y-140119290D01*
X126211058Y-139973517D01*
X126211053Y-139973435D01*
X126190470Y-139843014D01*
X126145128Y-139752587D01*
X126070518Y-139696652D01*
X125962128Y-139669704D01*
X125893871Y-139666079D01*
X125834231Y-139680921D01*
X125773065Y-139723918D01*
X125693912Y-139790520D01*
X125593672Y-139709965D01*
X125557050Y-139679105D01*
X125511307Y-139634889D01*
X125493432Y-139608832D01*
X125499762Y-139597089D01*
X125536221Y-139561036D01*
X125594301Y-139515185D01*
X125639744Y-139485348D01*
X125784024Y-139424056D01*
X125934583Y-139402654D01*
X126082341Y-139419329D01*
G37*
X129645953Y-140097173D02*
X129639005Y-140175982D01*
X129608299Y-140326438D01*
X129553376Y-140441246D01*
X129469780Y-140527966D01*
X129353058Y-140594155D01*
X129307739Y-140609908D01*
X129190373Y-140629562D01*
X129066866Y-140629027D01*
X128962651Y-140607439D01*
X128960603Y-140606655D01*
X128876618Y-140557251D01*
X128791770Y-140480770D01*
X128721366Y-140393311D01*
X128680714Y-140310969D01*
X128668663Y-140250779D01*
X128658346Y-140138084D01*
X128656617Y-140037632D01*
X128907502Y-140037632D01*
X128922500Y-140158119D01*
X128957735Y-140257123D01*
X129011117Y-140321815D01*
X129031350Y-140332922D01*
X129108506Y-140353111D01*
X129197749Y-140357265D01*
X129272828Y-140343235D01*
X129302132Y-140323116D01*
X129343264Y-140252760D01*
X129369146Y-140142645D01*
X129378138Y-139998145D01*
X129377994Y-139956549D01*
X129374870Y-139872264D01*
X129364482Y-139817281D01*
X129342688Y-139776655D01*
X129305347Y-139735437D01*
X129234293Y-139685481D01*
X129141791Y-139665057D01*
X129052418Y-139684509D01*
X128978210Y-139740771D01*
X128931201Y-139830775D01*
X128914828Y-139908494D01*
X128907502Y-140037632D01*
X128656617Y-140037632D01*
X128656137Y-140009738D01*
X128661672Y-139881993D01*
X128674588Y-139771101D01*
X128694522Y-139693315D01*
X128740953Y-139605245D01*
X128839498Y-139496959D01*
X128965453Y-139428364D01*
X129115074Y-139401213D01*
X129284615Y-139417259D01*
X129312825Y-139424094D01*
X129444201Y-139483040D01*
X129543198Y-139579814D01*
X129609820Y-139714423D01*
X129644070Y-139886874D01*
X129645067Y-139998145D01*
X129645953Y-140097173D01*
G36*
X129645953Y-140097173D02*
G01*
X129639005Y-140175982D01*
X129608299Y-140326438D01*
X129553376Y-140441246D01*
X129469780Y-140527966D01*
X129353058Y-140594155D01*
X129307739Y-140609908D01*
X129190373Y-140629562D01*
X129066866Y-140629027D01*
X128962651Y-140607439D01*
X128960603Y-140606655D01*
X128876618Y-140557251D01*
X128791770Y-140480770D01*
X128721366Y-140393311D01*
X128680714Y-140310969D01*
X128668663Y-140250779D01*
X128658346Y-140138084D01*
X128656617Y-140037632D01*
X128907502Y-140037632D01*
X128922500Y-140158119D01*
X128957735Y-140257123D01*
X129011117Y-140321815D01*
X129031350Y-140332922D01*
X129108506Y-140353111D01*
X129197749Y-140357265D01*
X129272828Y-140343235D01*
X129302132Y-140323116D01*
X129343264Y-140252760D01*
X129369146Y-140142645D01*
X129378138Y-139998145D01*
X129377994Y-139956549D01*
X129374870Y-139872264D01*
X129364482Y-139817281D01*
X129342688Y-139776655D01*
X129305347Y-139735437D01*
X129234293Y-139685481D01*
X129141791Y-139665057D01*
X129052418Y-139684509D01*
X128978210Y-139740771D01*
X128931201Y-139830775D01*
X128914828Y-139908494D01*
X128907502Y-140037632D01*
X128656617Y-140037632D01*
X128656137Y-140009738D01*
X128661672Y-139881993D01*
X128674588Y-139771101D01*
X128694522Y-139693315D01*
X128740953Y-139605245D01*
X128839498Y-139496959D01*
X128965453Y-139428364D01*
X129115074Y-139401213D01*
X129284615Y-139417259D01*
X129312825Y-139424094D01*
X129444201Y-139483040D01*
X129543198Y-139579814D01*
X129609820Y-139714423D01*
X129644070Y-139886874D01*
X129645067Y-139998145D01*
X129645953Y-140097173D01*
G37*
X129844270Y-141672297D02*
X129877936Y-141772741D01*
X129917761Y-141883935D01*
X129951017Y-141968172D01*
X129974954Y-142018587D01*
X129986824Y-142028318D01*
X129989688Y-142019856D01*
X130005191Y-141967953D01*
X130029883Y-141881265D01*
X130061023Y-141769497D01*
X130095870Y-141642353D01*
X130190674Y-141293726D01*
X130335426Y-141286163D01*
X130347645Y-141285557D01*
X130425703Y-141284755D01*
X130463212Y-141292768D01*
X130467989Y-141311065D01*
X130461955Y-141328934D01*
X130442103Y-141390095D01*
X130411023Y-141486960D01*
X130370930Y-141612602D01*
X130324037Y-141760091D01*
X130272561Y-141922500D01*
X130089321Y-142501471D01*
X129860105Y-142501471D01*
X129752101Y-142134167D01*
X129732158Y-142066720D01*
X129695300Y-141944101D01*
X129663805Y-141841930D01*
X129640510Y-141769336D01*
X129628250Y-141735446D01*
X129624757Y-141732918D01*
X129607758Y-141754778D01*
X129583489Y-141812586D01*
X129555982Y-141897309D01*
X129554528Y-141902285D01*
X129517700Y-142027322D01*
X129475562Y-142168896D01*
X129436950Y-142297316D01*
X129374339Y-142504044D01*
X129143411Y-142489020D01*
X129036470Y-142152843D01*
X128989519Y-142005128D01*
X128936926Y-141839458D01*
X128886565Y-141680638D01*
X128844878Y-141548971D01*
X128760227Y-141281275D01*
X129043429Y-141281275D01*
X129112072Y-141536520D01*
X129130321Y-141603963D01*
X129164833Y-141729697D01*
X129196793Y-141844083D01*
X129221089Y-141928726D01*
X129261463Y-142065686D01*
X129390224Y-141679706D01*
X129518986Y-141293726D01*
X129617472Y-141286332D01*
X129715959Y-141278939D01*
X129844270Y-141672297D01*
G36*
X129844270Y-141672297D02*
G01*
X129877936Y-141772741D01*
X129917761Y-141883935D01*
X129951017Y-141968172D01*
X129974954Y-142018587D01*
X129986824Y-142028318D01*
X129989688Y-142019856D01*
X130005191Y-141967953D01*
X130029883Y-141881265D01*
X130061023Y-141769497D01*
X130095870Y-141642353D01*
X130190674Y-141293726D01*
X130335426Y-141286163D01*
X130347645Y-141285557D01*
X130425703Y-141284755D01*
X130463212Y-141292768D01*
X130467989Y-141311065D01*
X130461955Y-141328934D01*
X130442103Y-141390095D01*
X130411023Y-141486960D01*
X130370930Y-141612602D01*
X130324037Y-141760091D01*
X130272561Y-141922500D01*
X130089321Y-142501471D01*
X129860105Y-142501471D01*
X129752101Y-142134167D01*
X129732158Y-142066720D01*
X129695300Y-141944101D01*
X129663805Y-141841930D01*
X129640510Y-141769336D01*
X129628250Y-141735446D01*
X129624757Y-141732918D01*
X129607758Y-141754778D01*
X129583489Y-141812586D01*
X129555982Y-141897309D01*
X129554528Y-141902285D01*
X129517700Y-142027322D01*
X129475562Y-142168896D01*
X129436950Y-142297316D01*
X129374339Y-142504044D01*
X129143411Y-142489020D01*
X129036470Y-142152843D01*
X128989519Y-142005128D01*
X128936926Y-141839458D01*
X128886565Y-141680638D01*
X128844878Y-141548971D01*
X128760227Y-141281275D01*
X129043429Y-141281275D01*
X129112072Y-141536520D01*
X129130321Y-141603963D01*
X129164833Y-141729697D01*
X129196793Y-141844083D01*
X129221089Y-141928726D01*
X129261463Y-142065686D01*
X129390224Y-141679706D01*
X129518986Y-141293726D01*
X129617472Y-141286332D01*
X129715959Y-141278939D01*
X129844270Y-141672297D01*
G37*
X131542979Y-141984570D02*
X131539822Y-142091032D01*
X131533474Y-142165192D01*
X131532386Y-142171989D01*
X131489660Y-142293555D01*
X131411634Y-142396619D01*
X131309274Y-142466444D01*
X131199354Y-142495346D01*
X131064151Y-142493103D01*
X130939776Y-142454351D01*
X130907379Y-142437998D01*
X130865720Y-142420475D01*
X130849867Y-142425927D01*
X130847353Y-142454351D01*
X130846199Y-142468525D01*
X130831292Y-142489488D01*
X130789889Y-142499140D01*
X130710393Y-142501471D01*
X130573432Y-142501471D01*
X130573432Y-141903607D01*
X130847353Y-141903607D01*
X130849316Y-142007181D01*
X130857283Y-142076138D01*
X130874292Y-142123379D01*
X130903383Y-142162968D01*
X130980196Y-142221831D01*
X131070086Y-142241564D01*
X131157254Y-142217162D01*
X131230669Y-142149090D01*
X131250075Y-142099278D01*
X131264410Y-142011070D01*
X131270711Y-141904052D01*
X131268726Y-141794284D01*
X131258199Y-141697827D01*
X131238876Y-141630743D01*
X131232703Y-141619742D01*
X131173193Y-141564453D01*
X131092546Y-141539959D01*
X131005933Y-141545656D01*
X130928522Y-141580940D01*
X130875486Y-141645208D01*
X130873294Y-141650613D01*
X130860143Y-141710921D01*
X130850866Y-141801039D01*
X130847353Y-141903607D01*
X130573432Y-141903607D01*
X130573432Y-140808137D01*
X130847353Y-140808137D01*
X130847353Y-141388601D01*
X130898090Y-141342685D01*
X130946942Y-141314146D01*
X131039402Y-141290290D01*
X131147485Y-141282603D01*
X131253036Y-141292040D01*
X131337900Y-141319557D01*
X131398641Y-141358699D01*
X131461207Y-141425379D01*
X131503315Y-141515053D01*
X131528627Y-141636355D01*
X131540806Y-141797918D01*
X131542596Y-141863225D01*
X131542725Y-141904052D01*
X131542979Y-141984570D01*
G36*
X131542979Y-141984570D02*
G01*
X131539822Y-142091032D01*
X131533474Y-142165192D01*
X131532386Y-142171989D01*
X131489660Y-142293555D01*
X131411634Y-142396619D01*
X131309274Y-142466444D01*
X131199354Y-142495346D01*
X131064151Y-142493103D01*
X130939776Y-142454351D01*
X130907379Y-142437998D01*
X130865720Y-142420475D01*
X130849867Y-142425927D01*
X130847353Y-142454351D01*
X130846199Y-142468525D01*
X130831292Y-142489488D01*
X130789889Y-142499140D01*
X130710393Y-142501471D01*
X130573432Y-142501471D01*
X130573432Y-141903607D01*
X130847353Y-141903607D01*
X130849316Y-142007181D01*
X130857283Y-142076138D01*
X130874292Y-142123379D01*
X130903383Y-142162968D01*
X130980196Y-142221831D01*
X131070086Y-142241564D01*
X131157254Y-142217162D01*
X131230669Y-142149090D01*
X131250075Y-142099278D01*
X131264410Y-142011070D01*
X131270711Y-141904052D01*
X131268726Y-141794284D01*
X131258199Y-141697827D01*
X131238876Y-141630743D01*
X131232703Y-141619742D01*
X131173193Y-141564453D01*
X131092546Y-141539959D01*
X131005933Y-141545656D01*
X130928522Y-141580940D01*
X130875486Y-141645208D01*
X130873294Y-141650613D01*
X130860143Y-141710921D01*
X130850866Y-141801039D01*
X130847353Y-141903607D01*
X130573432Y-141903607D01*
X130573432Y-140808137D01*
X130847353Y-140808137D01*
X130847353Y-141388601D01*
X130898090Y-141342685D01*
X130946942Y-141314146D01*
X131039402Y-141290290D01*
X131147485Y-141282603D01*
X131253036Y-141292040D01*
X131337900Y-141319557D01*
X131398641Y-141358699D01*
X131461207Y-141425379D01*
X131503315Y-141515053D01*
X131528627Y-141636355D01*
X131540806Y-141797918D01*
X131542596Y-141863225D01*
X131542725Y-141904052D01*
X131542979Y-141984570D01*
G37*
X135848818Y-140079666D02*
X135845603Y-140157653D01*
X135838305Y-140252754D01*
X135825873Y-140320160D01*
X135805343Y-140373570D01*
X135773751Y-140426685D01*
X135772406Y-140428699D01*
X135694616Y-140514755D01*
X135599438Y-140580391D01*
X135488760Y-140619339D01*
X135343163Y-140631985D01*
X135200463Y-140607119D01*
X135072909Y-140547198D01*
X134972753Y-140454681D01*
X134943999Y-140410967D01*
X134890301Y-140275073D01*
X134863670Y-140107408D01*
X134864125Y-140064997D01*
X135131763Y-140064997D01*
X135132267Y-140144314D01*
X135140677Y-140197267D01*
X135159838Y-140237956D01*
X135192598Y-140280479D01*
X135238058Y-140322676D01*
X135328980Y-140360333D01*
X135426608Y-140353338D01*
X135519914Y-140301002D01*
X135546234Y-140276006D01*
X135574336Y-140233214D01*
X135589920Y-140173068D01*
X135598753Y-140079348D01*
X135601186Y-140008944D01*
X135587856Y-139865168D01*
X135546947Y-139762231D01*
X135478281Y-139699567D01*
X135397789Y-139669560D01*
X135301794Y-139672086D01*
X135212811Y-139722746D01*
X135191538Y-139742031D01*
X135164693Y-139775774D01*
X135148766Y-139819920D01*
X135139929Y-139887601D01*
X135134355Y-139991950D01*
X135131763Y-140064997D01*
X134864125Y-140064997D01*
X134865724Y-139916126D01*
X134868345Y-139888996D01*
X134904918Y-139715229D01*
X134972581Y-139580334D01*
X135071478Y-139484163D01*
X135201753Y-139426568D01*
X135363550Y-139407402D01*
X135424679Y-139409201D01*
X135550039Y-139431211D01*
X135652546Y-139483746D01*
X135748115Y-139573686D01*
X135763400Y-139591737D01*
X135804624Y-139652530D01*
X135831717Y-139721367D01*
X135846740Y-139808600D01*
X135851754Y-139924582D01*
X135850156Y-140008944D01*
X135848818Y-140079666D01*
G36*
X135848818Y-140079666D02*
G01*
X135845603Y-140157653D01*
X135838305Y-140252754D01*
X135825873Y-140320160D01*
X135805343Y-140373570D01*
X135773751Y-140426685D01*
X135772406Y-140428699D01*
X135694616Y-140514755D01*
X135599438Y-140580391D01*
X135488760Y-140619339D01*
X135343163Y-140631985D01*
X135200463Y-140607119D01*
X135072909Y-140547198D01*
X134972753Y-140454681D01*
X134943999Y-140410967D01*
X134890301Y-140275073D01*
X134863670Y-140107408D01*
X134864125Y-140064997D01*
X135131763Y-140064997D01*
X135132267Y-140144314D01*
X135140677Y-140197267D01*
X135159838Y-140237956D01*
X135192598Y-140280479D01*
X135238058Y-140322676D01*
X135328980Y-140360333D01*
X135426608Y-140353338D01*
X135519914Y-140301002D01*
X135546234Y-140276006D01*
X135574336Y-140233214D01*
X135589920Y-140173068D01*
X135598753Y-140079348D01*
X135601186Y-140008944D01*
X135587856Y-139865168D01*
X135546947Y-139762231D01*
X135478281Y-139699567D01*
X135397789Y-139669560D01*
X135301794Y-139672086D01*
X135212811Y-139722746D01*
X135191538Y-139742031D01*
X135164693Y-139775774D01*
X135148766Y-139819920D01*
X135139929Y-139887601D01*
X135134355Y-139991950D01*
X135131763Y-140064997D01*
X134864125Y-140064997D01*
X134865724Y-139916126D01*
X134868345Y-139888996D01*
X134904918Y-139715229D01*
X134972581Y-139580334D01*
X135071478Y-139484163D01*
X135201753Y-139426568D01*
X135363550Y-139407402D01*
X135424679Y-139409201D01*
X135550039Y-139431211D01*
X135652546Y-139483746D01*
X135748115Y-139573686D01*
X135763400Y-139591737D01*
X135804624Y-139652530D01*
X135831717Y-139721367D01*
X135846740Y-139808600D01*
X135851754Y-139924582D01*
X135850156Y-140008944D01*
X135848818Y-140079666D01*
G37*
X125460566Y-139931032D02*
X125457360Y-140121632D01*
X125456943Y-140125380D01*
X125421139Y-140300271D01*
X125356449Y-140436247D01*
X125260859Y-140536296D01*
X125132353Y-140603405D01*
X125108764Y-140611079D01*
X124962551Y-140633696D01*
X124811334Y-140621084D01*
X124670750Y-140576017D01*
X124556437Y-140501269D01*
X124470812Y-140422157D01*
X124561827Y-140350191D01*
X124652842Y-140278224D01*
X124762528Y-140331514D01*
X124889445Y-140374695D01*
X125001488Y-140375987D01*
X125093157Y-140336314D01*
X125159123Y-140256683D01*
X125182771Y-140208968D01*
X125195972Y-140168189D01*
X125188334Y-140140641D01*
X125154063Y-140123731D01*
X125087368Y-140114864D01*
X124982454Y-140111445D01*
X124833530Y-140110882D01*
X124472451Y-140110882D01*
X124472451Y-139938190D01*
X124475149Y-139862376D01*
X124729385Y-139862376D01*
X124741595Y-139876321D01*
X124777748Y-139883578D01*
X124846463Y-139886332D01*
X124956362Y-139886765D01*
X125015294Y-139886073D01*
X125108290Y-139881500D01*
X125171373Y-139873491D01*
X125194608Y-139863035D01*
X125188663Y-139824456D01*
X125146762Y-139750634D01*
X125076938Y-139689990D01*
X124993699Y-139653362D01*
X124911554Y-139651589D01*
X124849721Y-139680960D01*
X124779656Y-139747800D01*
X124735106Y-139830735D01*
X124732496Y-139839562D01*
X124729385Y-139862376D01*
X124475149Y-139862376D01*
X124475702Y-139846853D01*
X124485246Y-139756484D01*
X124498881Y-139695396D01*
X124508820Y-139672074D01*
X124581166Y-139568202D01*
X124685700Y-139481569D01*
X124807949Y-139424845D01*
X124871713Y-139409355D01*
X125023645Y-139402304D01*
X125159022Y-139438174D01*
X125274122Y-139512974D01*
X125365227Y-139622711D01*
X125428615Y-139763395D01*
X125447607Y-139863035D01*
X125460566Y-139931032D01*
G36*
X125460566Y-139931032D02*
G01*
X125457360Y-140121632D01*
X125456943Y-140125380D01*
X125421139Y-140300271D01*
X125356449Y-140436247D01*
X125260859Y-140536296D01*
X125132353Y-140603405D01*
X125108764Y-140611079D01*
X124962551Y-140633696D01*
X124811334Y-140621084D01*
X124670750Y-140576017D01*
X124556437Y-140501269D01*
X124470812Y-140422157D01*
X124561827Y-140350191D01*
X124652842Y-140278224D01*
X124762528Y-140331514D01*
X124889445Y-140374695D01*
X125001488Y-140375987D01*
X125093157Y-140336314D01*
X125159123Y-140256683D01*
X125182771Y-140208968D01*
X125195972Y-140168189D01*
X125188334Y-140140641D01*
X125154063Y-140123731D01*
X125087368Y-140114864D01*
X124982454Y-140111445D01*
X124833530Y-140110882D01*
X124472451Y-140110882D01*
X124472451Y-139938190D01*
X124475149Y-139862376D01*
X124729385Y-139862376D01*
X124741595Y-139876321D01*
X124777748Y-139883578D01*
X124846463Y-139886332D01*
X124956362Y-139886765D01*
X125015294Y-139886073D01*
X125108290Y-139881500D01*
X125171373Y-139873491D01*
X125194608Y-139863035D01*
X125188663Y-139824456D01*
X125146762Y-139750634D01*
X125076938Y-139689990D01*
X124993699Y-139653362D01*
X124911554Y-139651589D01*
X124849721Y-139680960D01*
X124779656Y-139747800D01*
X124735106Y-139830735D01*
X124732496Y-139839562D01*
X124729385Y-139862376D01*
X124475149Y-139862376D01*
X124475702Y-139846853D01*
X124485246Y-139756484D01*
X124498881Y-139695396D01*
X124508820Y-139672074D01*
X124581166Y-139568202D01*
X124685700Y-139481569D01*
X124807949Y-139424845D01*
X124871713Y-139409355D01*
X125023645Y-139402304D01*
X125159022Y-139438174D01*
X125274122Y-139512974D01*
X125365227Y-139622711D01*
X125428615Y-139763395D01*
X125447607Y-139863035D01*
X125460566Y-139931032D01*
G37*
X130370810Y-139412820D02*
X130514629Y-139448866D01*
X130619691Y-139515677D01*
X130686594Y-139613702D01*
X130715940Y-139743387D01*
X130709999Y-139867544D01*
X130667114Y-139972266D01*
X130584876Y-140049693D01*
X130461635Y-140101337D01*
X130295744Y-140128710D01*
X130187952Y-140143057D01*
X130089566Y-140174099D01*
X130038771Y-140219053D01*
X130035704Y-140277838D01*
X130056146Y-140314493D01*
X130119454Y-140357935D01*
X130209449Y-140378483D01*
X130314913Y-140375673D01*
X130424626Y-140349042D01*
X130527368Y-140298128D01*
X130629804Y-140230339D01*
X130719902Y-140321508D01*
X130810000Y-140412676D01*
X130735295Y-140473655D01*
X130706246Y-140494842D01*
X130624517Y-140542978D01*
X130536079Y-140584457D01*
X130466087Y-140608262D01*
X130363602Y-140625504D01*
X130237255Y-140625732D01*
X130082318Y-140606748D01*
X129942745Y-140558630D01*
X129843950Y-140482195D01*
X129785701Y-140377254D01*
X129767762Y-140243617D01*
X129780747Y-140126054D01*
X129822431Y-140029803D01*
X129897477Y-139960873D01*
X130010635Y-139915030D01*
X130166654Y-139888042D01*
X130184574Y-139886088D01*
X130281714Y-139873630D01*
X130360514Y-139860592D01*
X130405344Y-139849499D01*
X130420304Y-139840567D01*
X130445596Y-139794509D01*
X130441488Y-139735553D01*
X130407688Y-139684373D01*
X130389939Y-139673210D01*
X130315981Y-139655326D01*
X130220451Y-139656529D01*
X130120836Y-139675561D01*
X130034621Y-139711168D01*
X129944031Y-139764618D01*
X129873763Y-139682505D01*
X129856712Y-139661644D01*
X129818298Y-139605761D01*
X129802483Y-139567887D01*
X129819090Y-139544664D01*
X129870469Y-139508412D01*
X129944657Y-139469402D01*
X129955110Y-139464633D01*
X130052941Y-139427229D01*
X130147241Y-139409345D01*
X130264262Y-139405754D01*
X130370810Y-139412820D01*
G36*
X130370810Y-139412820D02*
G01*
X130514629Y-139448866D01*
X130619691Y-139515677D01*
X130686594Y-139613702D01*
X130715940Y-139743387D01*
X130709999Y-139867544D01*
X130667114Y-139972266D01*
X130584876Y-140049693D01*
X130461635Y-140101337D01*
X130295744Y-140128710D01*
X130187952Y-140143057D01*
X130089566Y-140174099D01*
X130038771Y-140219053D01*
X130035704Y-140277838D01*
X130056146Y-140314493D01*
X130119454Y-140357935D01*
X130209449Y-140378483D01*
X130314913Y-140375673D01*
X130424626Y-140349042D01*
X130527368Y-140298128D01*
X130629804Y-140230339D01*
X130719902Y-140321508D01*
X130810000Y-140412676D01*
X130735295Y-140473655D01*
X130706246Y-140494842D01*
X130624517Y-140542978D01*
X130536079Y-140584457D01*
X130466087Y-140608262D01*
X130363602Y-140625504D01*
X130237255Y-140625732D01*
X130082318Y-140606748D01*
X129942745Y-140558630D01*
X129843950Y-140482195D01*
X129785701Y-140377254D01*
X129767762Y-140243617D01*
X129780747Y-140126054D01*
X129822431Y-140029803D01*
X129897477Y-139960873D01*
X130010635Y-139915030D01*
X130166654Y-139888042D01*
X130184574Y-139886088D01*
X130281714Y-139873630D01*
X130360514Y-139860592D01*
X130405344Y-139849499D01*
X130420304Y-139840567D01*
X130445596Y-139794509D01*
X130441488Y-139735553D01*
X130407688Y-139684373D01*
X130389939Y-139673210D01*
X130315981Y-139655326D01*
X130220451Y-139656529D01*
X130120836Y-139675561D01*
X130034621Y-139711168D01*
X129944031Y-139764618D01*
X129873763Y-139682505D01*
X129856712Y-139661644D01*
X129818298Y-139605761D01*
X129802483Y-139567887D01*
X129819090Y-139544664D01*
X129870469Y-139508412D01*
X129944657Y-139469402D01*
X129955110Y-139464633D01*
X130052941Y-139427229D01*
X130147241Y-139409345D01*
X130264262Y-139405754D01*
X130370810Y-139412820D01*
G37*
X126737740Y-141891373D02*
X126734502Y-141984330D01*
X126705010Y-142162105D01*
X126644329Y-142301892D01*
X126551922Y-142404689D01*
X126427255Y-142471496D01*
X126386976Y-142483300D01*
X126243153Y-142499786D01*
X126091289Y-142485873D01*
X125954118Y-142442935D01*
X125905794Y-142418565D01*
X125836507Y-142376819D01*
X125794517Y-142342468D01*
X125788317Y-142334620D01*
X125776719Y-142305917D01*
X125793430Y-142274714D01*
X125844321Y-142227459D01*
X125868880Y-142206887D01*
X125917260Y-142169242D01*
X125942627Y-142153855D01*
X125949894Y-142155440D01*
X125991544Y-142172574D01*
X126053726Y-142202647D01*
X126074000Y-142212540D01*
X126193600Y-142249275D01*
X126297506Y-142239805D01*
X126388621Y-142183971D01*
X126399222Y-142173654D01*
X126449909Y-142109031D01*
X126478870Y-142047010D01*
X126494909Y-141978530D01*
X125742451Y-141978530D01*
X125742590Y-141847794D01*
X125742670Y-141834792D01*
X125752829Y-141729903D01*
X126016373Y-141729903D01*
X126019485Y-141751657D01*
X126035462Y-141766649D01*
X126073543Y-141774970D01*
X126142960Y-141778549D01*
X126252942Y-141779314D01*
X126314086Y-141778521D01*
X126404338Y-141773888D01*
X126466416Y-141766038D01*
X126489510Y-141756033D01*
X126469814Y-141673677D01*
X126412151Y-141596811D01*
X126328984Y-141543484D01*
X126232911Y-141525038D01*
X126162178Y-141545832D01*
X126091471Y-141596664D01*
X126037722Y-141662892D01*
X126016373Y-141729903D01*
X125752829Y-141729903D01*
X125758248Y-141673950D01*
X125803592Y-141543106D01*
X125882712Y-141430313D01*
X125930979Y-141382600D01*
X126030663Y-141318731D01*
X126149693Y-141287784D01*
X126300043Y-141285607D01*
X126372668Y-141294139D01*
X126506727Y-141338440D01*
X126609365Y-141419069D01*
X126681480Y-141537271D01*
X126723972Y-141694291D01*
X126728286Y-141756033D01*
X126737740Y-141891373D01*
G36*
X126737740Y-141891373D02*
G01*
X126734502Y-141984330D01*
X126705010Y-142162105D01*
X126644329Y-142301892D01*
X126551922Y-142404689D01*
X126427255Y-142471496D01*
X126386976Y-142483300D01*
X126243153Y-142499786D01*
X126091289Y-142485873D01*
X125954118Y-142442935D01*
X125905794Y-142418565D01*
X125836507Y-142376819D01*
X125794517Y-142342468D01*
X125788317Y-142334620D01*
X125776719Y-142305917D01*
X125793430Y-142274714D01*
X125844321Y-142227459D01*
X125868880Y-142206887D01*
X125917260Y-142169242D01*
X125942627Y-142153855D01*
X125949894Y-142155440D01*
X125991544Y-142172574D01*
X126053726Y-142202647D01*
X126074000Y-142212540D01*
X126193600Y-142249275D01*
X126297506Y-142239805D01*
X126388621Y-142183971D01*
X126399222Y-142173654D01*
X126449909Y-142109031D01*
X126478870Y-142047010D01*
X126494909Y-141978530D01*
X125742451Y-141978530D01*
X125742590Y-141847794D01*
X125742670Y-141834792D01*
X125752829Y-141729903D01*
X126016373Y-141729903D01*
X126019485Y-141751657D01*
X126035462Y-141766649D01*
X126073543Y-141774970D01*
X126142960Y-141778549D01*
X126252942Y-141779314D01*
X126314086Y-141778521D01*
X126404338Y-141773888D01*
X126466416Y-141766038D01*
X126489510Y-141756033D01*
X126469814Y-141673677D01*
X126412151Y-141596811D01*
X126328984Y-141543484D01*
X126232911Y-141525038D01*
X126162178Y-141545832D01*
X126091471Y-141596664D01*
X126037722Y-141662892D01*
X126016373Y-141729903D01*
X125752829Y-141729903D01*
X125758248Y-141673950D01*
X125803592Y-141543106D01*
X125882712Y-141430313D01*
X125930979Y-141382600D01*
X126030663Y-141318731D01*
X126149693Y-141287784D01*
X126300043Y-141285607D01*
X126372668Y-141294139D01*
X126506727Y-141338440D01*
X126609365Y-141419069D01*
X126681480Y-141537271D01*
X126723972Y-141694291D01*
X126728286Y-141756033D01*
X126737740Y-141891373D01*
G37*
X133555573Y-139861685D02*
X133564286Y-140036108D01*
X133562109Y-140112224D01*
X133537559Y-140278570D01*
X133483460Y-140409728D01*
X133396982Y-140511101D01*
X133275295Y-140588096D01*
X133157249Y-140624039D01*
X133009161Y-140630915D01*
X132859748Y-140604468D01*
X132726472Y-140546037D01*
X132677083Y-140513532D01*
X132622668Y-140471868D01*
X132597840Y-140444452D01*
X132599247Y-140433140D01*
X132627039Y-140394597D01*
X132679272Y-140347901D01*
X132769791Y-140278858D01*
X132875858Y-140331831D01*
X132904540Y-140344943D01*
X132988971Y-140373441D01*
X133059737Y-140384804D01*
X133111919Y-140375441D01*
X133193806Y-140330351D01*
X133262637Y-140260355D01*
X133302007Y-140179363D01*
X133318047Y-140110882D01*
X132565589Y-140110882D01*
X132565728Y-139980147D01*
X132566867Y-139938713D01*
X132575182Y-139849805D01*
X132839510Y-139849805D01*
X132839995Y-139854899D01*
X132853687Y-139870760D01*
X132892378Y-139880505D01*
X132964317Y-139885413D01*
X133077757Y-139886765D01*
X133115042Y-139886749D01*
X133211873Y-139885854D01*
X133270083Y-139881988D01*
X133298306Y-139872968D01*
X133305173Y-139856611D01*
X133299317Y-139830735D01*
X133298423Y-139827802D01*
X133247973Y-139737759D01*
X133168442Y-139675766D01*
X133073603Y-139652686D01*
X133038547Y-139654532D01*
X132973481Y-139676611D01*
X132911061Y-139732766D01*
X132894247Y-139752621D01*
X132855137Y-139809326D01*
X132839510Y-139849805D01*
X132575182Y-139849805D01*
X132576251Y-139838376D01*
X132591988Y-139755349D01*
X132609236Y-139708868D01*
X132669879Y-139607769D01*
X132751094Y-139515951D01*
X132836981Y-139453037D01*
X132861796Y-139441354D01*
X133006290Y-139402600D01*
X133153842Y-139406686D01*
X133292567Y-139451882D01*
X133410579Y-139536461D01*
X133474410Y-139614461D01*
X133526601Y-139724343D01*
X133554503Y-139856611D01*
X133555573Y-139861685D01*
G36*
X133555573Y-139861685D02*
G01*
X133564286Y-140036108D01*
X133562109Y-140112224D01*
X133537559Y-140278570D01*
X133483460Y-140409728D01*
X133396982Y-140511101D01*
X133275295Y-140588096D01*
X133157249Y-140624039D01*
X133009161Y-140630915D01*
X132859748Y-140604468D01*
X132726472Y-140546037D01*
X132677083Y-140513532D01*
X132622668Y-140471868D01*
X132597840Y-140444452D01*
X132599247Y-140433140D01*
X132627039Y-140394597D01*
X132679272Y-140347901D01*
X132769791Y-140278858D01*
X132875858Y-140331831D01*
X132904540Y-140344943D01*
X132988971Y-140373441D01*
X133059737Y-140384804D01*
X133111919Y-140375441D01*
X133193806Y-140330351D01*
X133262637Y-140260355D01*
X133302007Y-140179363D01*
X133318047Y-140110882D01*
X132565589Y-140110882D01*
X132565728Y-139980147D01*
X132566867Y-139938713D01*
X132575182Y-139849805D01*
X132839510Y-139849805D01*
X132839995Y-139854899D01*
X132853687Y-139870760D01*
X132892378Y-139880505D01*
X132964317Y-139885413D01*
X133077757Y-139886765D01*
X133115042Y-139886749D01*
X133211873Y-139885854D01*
X133270083Y-139881988D01*
X133298306Y-139872968D01*
X133305173Y-139856611D01*
X133299317Y-139830735D01*
X133298423Y-139827802D01*
X133247973Y-139737759D01*
X133168442Y-139675766D01*
X133073603Y-139652686D01*
X133038547Y-139654532D01*
X132973481Y-139676611D01*
X132911061Y-139732766D01*
X132894247Y-139752621D01*
X132855137Y-139809326D01*
X132839510Y-139849805D01*
X132575182Y-139849805D01*
X132576251Y-139838376D01*
X132591988Y-139755349D01*
X132609236Y-139708868D01*
X132669879Y-139607769D01*
X132751094Y-139515951D01*
X132836981Y-139453037D01*
X132861796Y-139441354D01*
X133006290Y-139402600D01*
X133153842Y-139406686D01*
X133292567Y-139451882D01*
X133410579Y-139536461D01*
X133474410Y-139614461D01*
X133526601Y-139724343D01*
X133554503Y-139856611D01*
X133555573Y-139861685D01*
G37*
X128767760Y-142173738D02*
X128737719Y-142286789D01*
X128672432Y-142383505D01*
X128573398Y-142453077D01*
X128563679Y-142457305D01*
X128455320Y-142487767D01*
X128333223Y-142499642D01*
X128217138Y-142492382D01*
X128126814Y-142465441D01*
X128090734Y-142447865D01*
X128064256Y-142443674D01*
X128058334Y-142465594D01*
X128047116Y-142485866D01*
X128003713Y-142497938D01*
X127919469Y-142501471D01*
X127780604Y-142501471D01*
X127788734Y-142022108D01*
X127789602Y-141978530D01*
X128058334Y-141978530D01*
X128058334Y-142065686D01*
X128067713Y-142130829D01*
X128108138Y-142202647D01*
X128123059Y-142215848D01*
X128184218Y-142243620D01*
X128276226Y-142250766D01*
X128331435Y-142247974D01*
X128434741Y-142226952D01*
X128498771Y-142187782D01*
X128520367Y-142133122D01*
X128496369Y-142065628D01*
X128482367Y-142047964D01*
X128419827Y-142008345D01*
X128320847Y-141985722D01*
X128179731Y-141978530D01*
X128058334Y-141978530D01*
X127789602Y-141978530D01*
X127790943Y-141911258D01*
X127796761Y-141745305D01*
X127806567Y-141618409D01*
X127822299Y-141523654D01*
X127845894Y-141454120D01*
X127879291Y-141402890D01*
X127924427Y-141363046D01*
X127983239Y-141327669D01*
X128013580Y-141314163D01*
X128118541Y-141288669D01*
X128245134Y-141278129D01*
X128376017Y-141282350D01*
X128493845Y-141301140D01*
X128581275Y-141334305D01*
X128611687Y-141353562D01*
X128681705Y-141410636D01*
X128705403Y-141458427D01*
X128699648Y-141467662D01*
X128663782Y-141499919D01*
X128605881Y-141542950D01*
X128576279Y-141563091D01*
X128525868Y-141591629D01*
X128493110Y-141594354D01*
X128462695Y-141574657D01*
X128386892Y-141534766D01*
X128284895Y-141518361D01*
X128180661Y-141530920D01*
X128178689Y-141531489D01*
X128105171Y-141563431D01*
X128068781Y-141613428D01*
X128058715Y-141696116D01*
X128058334Y-141774780D01*
X128318230Y-141783273D01*
X128359636Y-141784670D01*
X128464027Y-141789528D01*
X128534010Y-141797161D01*
X128581313Y-141810425D01*
X128617668Y-141832181D01*
X128654804Y-141865285D01*
X128716120Y-141941855D01*
X128761059Y-142055157D01*
X128765465Y-142133122D01*
X128767760Y-142173738D01*
G36*
X128767760Y-142173738D02*
G01*
X128737719Y-142286789D01*
X128672432Y-142383505D01*
X128573398Y-142453077D01*
X128563679Y-142457305D01*
X128455320Y-142487767D01*
X128333223Y-142499642D01*
X128217138Y-142492382D01*
X128126814Y-142465441D01*
X128090734Y-142447865D01*
X128064256Y-142443674D01*
X128058334Y-142465594D01*
X128047116Y-142485866D01*
X128003713Y-142497938D01*
X127919469Y-142501471D01*
X127780604Y-142501471D01*
X127788734Y-142022108D01*
X127789602Y-141978530D01*
X128058334Y-141978530D01*
X128058334Y-142065686D01*
X128067713Y-142130829D01*
X128108138Y-142202647D01*
X128123059Y-142215848D01*
X128184218Y-142243620D01*
X128276226Y-142250766D01*
X128331435Y-142247974D01*
X128434741Y-142226952D01*
X128498771Y-142187782D01*
X128520367Y-142133122D01*
X128496369Y-142065628D01*
X128482367Y-142047964D01*
X128419827Y-142008345D01*
X128320847Y-141985722D01*
X128179731Y-141978530D01*
X128058334Y-141978530D01*
X127789602Y-141978530D01*
X127790943Y-141911258D01*
X127796761Y-141745305D01*
X127806567Y-141618409D01*
X127822299Y-141523654D01*
X127845894Y-141454120D01*
X127879291Y-141402890D01*
X127924427Y-141363046D01*
X127983239Y-141327669D01*
X128013580Y-141314163D01*
X128118541Y-141288669D01*
X128245134Y-141278129D01*
X128376017Y-141282350D01*
X128493845Y-141301140D01*
X128581275Y-141334305D01*
X128611687Y-141353562D01*
X128681705Y-141410636D01*
X128705403Y-141458427D01*
X128699648Y-141467662D01*
X128663782Y-141499919D01*
X128605881Y-141542950D01*
X128576279Y-141563091D01*
X128525868Y-141591629D01*
X128493110Y-141594354D01*
X128462695Y-141574657D01*
X128386892Y-141534766D01*
X128284895Y-141518361D01*
X128180661Y-141530920D01*
X128178689Y-141531489D01*
X128105171Y-141563431D01*
X128068781Y-141613428D01*
X128058715Y-141696116D01*
X128058334Y-141774780D01*
X128318230Y-141783273D01*
X128359636Y-141784670D01*
X128464027Y-141789528D01*
X128534010Y-141797161D01*
X128581313Y-141810425D01*
X128617668Y-141832181D01*
X128654804Y-141865285D01*
X128716120Y-141941855D01*
X128761059Y-142055157D01*
X128765465Y-142133122D01*
X128767760Y-142173738D01*
G37*
X133556123Y-142169559D02*
X133555841Y-142172844D01*
X133525497Y-142300772D01*
X133458002Y-142396986D01*
X133350000Y-142466318D01*
X133294189Y-142483186D01*
X133198593Y-142496333D01*
X133094055Y-142499472D01*
X132999738Y-142492237D01*
X132934808Y-142474262D01*
X132895370Y-142459864D01*
X132856758Y-142474262D01*
X132842634Y-142482604D01*
X132786261Y-142496131D01*
X132710020Y-142501471D01*
X132590491Y-142501471D01*
X132590491Y-142019565D01*
X132590500Y-141978530D01*
X132864412Y-141978530D01*
X132864412Y-142074278D01*
X132873619Y-142147143D01*
X132909951Y-142211239D01*
X132930744Y-142225110D01*
X133004958Y-142246731D01*
X133097610Y-142252129D01*
X133188468Y-142241162D01*
X133257303Y-142213686D01*
X133291595Y-142177358D01*
X133312647Y-142112808D01*
X133293977Y-142061639D01*
X133232259Y-142017148D01*
X133133047Y-141988605D01*
X133002173Y-141978530D01*
X132864412Y-141978530D01*
X132590500Y-141978530D01*
X132590500Y-141977890D01*
X132590954Y-141820810D01*
X132592658Y-141704029D01*
X132596385Y-141619788D01*
X132602911Y-141560329D01*
X132613008Y-141517891D01*
X132627452Y-141484716D01*
X132647016Y-141453045D01*
X132709949Y-141378837D01*
X132799130Y-141322180D01*
X132916280Y-141290922D01*
X133070653Y-141281313D01*
X133075671Y-141281323D01*
X133182980Y-141286170D01*
X133279028Y-141298252D01*
X133344575Y-141315191D01*
X133362545Y-141323679D01*
X133419740Y-141359627D01*
X133471499Y-141402352D01*
X133505553Y-141440800D01*
X133509635Y-141463916D01*
X133501669Y-141470164D01*
X133414875Y-141536855D01*
X133356839Y-141576188D01*
X133318465Y-141592057D01*
X133290659Y-141588359D01*
X133264327Y-141568990D01*
X133215730Y-141544809D01*
X133133833Y-141528687D01*
X133041273Y-141524505D01*
X132957519Y-141533015D01*
X132902035Y-141554972D01*
X132899116Y-141557644D01*
X132874183Y-141607836D01*
X132864412Y-141682755D01*
X132864412Y-141779314D01*
X133094755Y-141779407D01*
X133200565Y-141781082D01*
X133289632Y-141788368D01*
X133353345Y-141803357D01*
X133404821Y-141828110D01*
X133416800Y-141835712D01*
X133503466Y-141919282D01*
X133549564Y-142029790D01*
X133553460Y-142112808D01*
X133556123Y-142169559D01*
G36*
X133556123Y-142169559D02*
G01*
X133555841Y-142172844D01*
X133525497Y-142300772D01*
X133458002Y-142396986D01*
X133350000Y-142466318D01*
X133294189Y-142483186D01*
X133198593Y-142496333D01*
X133094055Y-142499472D01*
X132999738Y-142492237D01*
X132934808Y-142474262D01*
X132895370Y-142459864D01*
X132856758Y-142474262D01*
X132842634Y-142482604D01*
X132786261Y-142496131D01*
X132710020Y-142501471D01*
X132590491Y-142501471D01*
X132590491Y-142019565D01*
X132590500Y-141978530D01*
X132864412Y-141978530D01*
X132864412Y-142074278D01*
X132873619Y-142147143D01*
X132909951Y-142211239D01*
X132930744Y-142225110D01*
X133004958Y-142246731D01*
X133097610Y-142252129D01*
X133188468Y-142241162D01*
X133257303Y-142213686D01*
X133291595Y-142177358D01*
X133312647Y-142112808D01*
X133293977Y-142061639D01*
X133232259Y-142017148D01*
X133133047Y-141988605D01*
X133002173Y-141978530D01*
X132864412Y-141978530D01*
X132590500Y-141978530D01*
X132590500Y-141977890D01*
X132590954Y-141820810D01*
X132592658Y-141704029D01*
X132596385Y-141619788D01*
X132602911Y-141560329D01*
X132613008Y-141517891D01*
X132627452Y-141484716D01*
X132647016Y-141453045D01*
X132709949Y-141378837D01*
X132799130Y-141322180D01*
X132916280Y-141290922D01*
X133070653Y-141281313D01*
X133075671Y-141281323D01*
X133182980Y-141286170D01*
X133279028Y-141298252D01*
X133344575Y-141315191D01*
X133362545Y-141323679D01*
X133419740Y-141359627D01*
X133471499Y-141402352D01*
X133505553Y-141440800D01*
X133509635Y-141463916D01*
X133501669Y-141470164D01*
X133414875Y-141536855D01*
X133356839Y-141576188D01*
X133318465Y-141592057D01*
X133290659Y-141588359D01*
X133264327Y-141568990D01*
X133215730Y-141544809D01*
X133133833Y-141528687D01*
X133041273Y-141524505D01*
X132957519Y-141533015D01*
X132902035Y-141554972D01*
X132899116Y-141557644D01*
X132874183Y-141607836D01*
X132864412Y-141682755D01*
X132864412Y-141779314D01*
X133094755Y-141779407D01*
X133200565Y-141781082D01*
X133289632Y-141788368D01*
X133353345Y-141803357D01*
X133404821Y-141828110D01*
X133416800Y-141835712D01*
X133503466Y-141919282D01*
X133549564Y-142029790D01*
X133553460Y-142112808D01*
X133556123Y-142169559D01*
G37*
X134682255Y-142504073D02*
X134551520Y-142496547D01*
X134420785Y-142489020D01*
X134414569Y-142090588D01*
X134412730Y-141993704D01*
X134407510Y-141848146D01*
X134398550Y-141741334D01*
X134384203Y-141666087D01*
X134362821Y-141615227D01*
X134332759Y-141581574D01*
X134292367Y-141557947D01*
X134216578Y-141533818D01*
X134141207Y-141543194D01*
X134061617Y-141594763D01*
X133985000Y-141659231D01*
X133985000Y-142501471D01*
X133711079Y-142501471D01*
X133711079Y-142044701D01*
X133711342Y-141901531D01*
X133712799Y-141774309D01*
X133716301Y-141681184D01*
X133722697Y-141613713D01*
X133732835Y-141563454D01*
X133747563Y-141521966D01*
X133767729Y-141480805D01*
X133772510Y-141472066D01*
X133836101Y-141386954D01*
X133910527Y-141327476D01*
X134000255Y-141296245D01*
X134119072Y-141282342D01*
X134238059Y-141289872D01*
X134334865Y-141319267D01*
X134408334Y-141357259D01*
X134408334Y-140535015D01*
X134307667Y-140587486D01*
X134265616Y-140606549D01*
X134132886Y-140633506D01*
X134000979Y-140614874D01*
X133878705Y-140552929D01*
X133774872Y-140449943D01*
X133758606Y-140425738D01*
X133742973Y-140390256D01*
X133732776Y-140342015D01*
X133726888Y-140271757D01*
X133724182Y-140170221D01*
X133723696Y-140064428D01*
X133986759Y-140064428D01*
X133986981Y-140152779D01*
X133993735Y-140211700D01*
X134008916Y-140253752D01*
X134034417Y-140291499D01*
X134066811Y-140326594D01*
X134118614Y-140353154D01*
X134196667Y-140359902D01*
X134265618Y-140354029D01*
X134333865Y-140324641D01*
X134377818Y-140265107D01*
X134401350Y-140169423D01*
X134408334Y-140031582D01*
X134406528Y-139958254D01*
X134388501Y-139819833D01*
X134351308Y-139726233D01*
X134295159Y-139678116D01*
X134238449Y-139664579D01*
X134139686Y-139670925D01*
X134056240Y-139710223D01*
X134036268Y-139728244D01*
X134015105Y-139759422D01*
X134002021Y-139805833D01*
X133994251Y-139879000D01*
X133989032Y-139990448D01*
X133986759Y-140064428D01*
X133723696Y-140064428D01*
X133723530Y-140028149D01*
X133723753Y-139963324D01*
X133727570Y-139812538D01*
X133738203Y-139699896D01*
X133758335Y-139616885D01*
X133790653Y-139554991D01*
X133837842Y-139505700D01*
X133902588Y-139460499D01*
X133955091Y-139434560D01*
X134079571Y-139405953D01*
X134210781Y-139409851D01*
X134327402Y-139446935D01*
X134377453Y-139471176D01*
X134402626Y-139473681D01*
X134408334Y-139451620D01*
X134408339Y-139450952D01*
X134420640Y-139428426D01*
X134463065Y-139416879D01*
X134545295Y-139413628D01*
X134682255Y-139413628D01*
X134682255Y-140031582D01*
X134682255Y-142504073D01*
G36*
X134682255Y-142504073D02*
G01*
X134551520Y-142496547D01*
X134420785Y-142489020D01*
X134414569Y-142090588D01*
X134412730Y-141993704D01*
X134407510Y-141848146D01*
X134398550Y-141741334D01*
X134384203Y-141666087D01*
X134362821Y-141615227D01*
X134332759Y-141581574D01*
X134292367Y-141557947D01*
X134216578Y-141533818D01*
X134141207Y-141543194D01*
X134061617Y-141594763D01*
X133985000Y-141659231D01*
X133985000Y-142501471D01*
X133711079Y-142501471D01*
X133711079Y-142044701D01*
X133711342Y-141901531D01*
X133712799Y-141774309D01*
X133716301Y-141681184D01*
X133722697Y-141613713D01*
X133732835Y-141563454D01*
X133747563Y-141521966D01*
X133767729Y-141480805D01*
X133772510Y-141472066D01*
X133836101Y-141386954D01*
X133910527Y-141327476D01*
X134000255Y-141296245D01*
X134119072Y-141282342D01*
X134238059Y-141289872D01*
X134334865Y-141319267D01*
X134408334Y-141357259D01*
X134408334Y-140535015D01*
X134307667Y-140587486D01*
X134265616Y-140606549D01*
X134132886Y-140633506D01*
X134000979Y-140614874D01*
X133878705Y-140552929D01*
X133774872Y-140449943D01*
X133758606Y-140425738D01*
X133742973Y-140390256D01*
X133732776Y-140342015D01*
X133726888Y-140271757D01*
X133724182Y-140170221D01*
X133723696Y-140064428D01*
X133986759Y-140064428D01*
X133986981Y-140152779D01*
X133993735Y-140211700D01*
X134008916Y-140253752D01*
X134034417Y-140291499D01*
X134066811Y-140326594D01*
X134118614Y-140353154D01*
X134196667Y-140359902D01*
X134265618Y-140354029D01*
X134333865Y-140324641D01*
X134377818Y-140265107D01*
X134401350Y-140169423D01*
X134408334Y-140031582D01*
X134406528Y-139958254D01*
X134388501Y-139819833D01*
X134351308Y-139726233D01*
X134295159Y-139678116D01*
X134238449Y-139664579D01*
X134139686Y-139670925D01*
X134056240Y-139710223D01*
X134036268Y-139728244D01*
X134015105Y-139759422D01*
X134002021Y-139805833D01*
X133994251Y-139879000D01*
X133989032Y-139990448D01*
X133986759Y-140064428D01*
X133723696Y-140064428D01*
X133723530Y-140028149D01*
X133723753Y-139963324D01*
X133727570Y-139812538D01*
X133738203Y-139699896D01*
X133758335Y-139616885D01*
X133790653Y-139554991D01*
X133837842Y-139505700D01*
X133902588Y-139460499D01*
X133955091Y-139434560D01*
X134079571Y-139405953D01*
X134210781Y-139409851D01*
X134327402Y-139446935D01*
X134377453Y-139471176D01*
X134402626Y-139473681D01*
X134408334Y-139451620D01*
X134408339Y-139450952D01*
X134420640Y-139428426D01*
X134463065Y-139416879D01*
X134545295Y-139413628D01*
X134682255Y-139413628D01*
X134682255Y-140031582D01*
X134682255Y-142504073D01*
G37*
X130896634Y-131158172D02*
X131009216Y-131755363D01*
X131424629Y-131926610D01*
X131840043Y-132097857D01*
X132338400Y-131758978D01*
X132437036Y-131692170D01*
X132567797Y-131604479D01*
X132681008Y-131529580D01*
X132770789Y-131471320D01*
X132831261Y-131433545D01*
X132856544Y-131420098D01*
X132872072Y-131429661D01*
X132918487Y-131469730D01*
X132988730Y-131535487D01*
X133076848Y-131620895D01*
X133176889Y-131719915D01*
X133282902Y-131826509D01*
X133388935Y-131934640D01*
X133489035Y-132038268D01*
X133577251Y-132131358D01*
X133647632Y-132207869D01*
X133694225Y-132261765D01*
X133711079Y-132287007D01*
X133707158Y-132297852D01*
X133680012Y-132346228D01*
X133630439Y-132425842D01*
X133562459Y-132530454D01*
X133480091Y-132653822D01*
X133387353Y-132789706D01*
X133336460Y-132863815D01*
X133248912Y-132992835D01*
X133173853Y-133105434D01*
X133115285Y-133195505D01*
X133077209Y-133256942D01*
X133063628Y-133283640D01*
X133063851Y-133285119D01*
X133075831Y-133318962D01*
X133103316Y-133388071D01*
X133142474Y-133483416D01*
X133189474Y-133595972D01*
X133240485Y-133716710D01*
X133291676Y-133836602D01*
X133339215Y-133946622D01*
X133379271Y-134037740D01*
X133408013Y-134100931D01*
X133421610Y-134127165D01*
X133429655Y-134129492D01*
X133478535Y-134139988D01*
X133565652Y-134157376D01*
X133684033Y-134180295D01*
X133826704Y-134207389D01*
X133986692Y-134237296D01*
X134071015Y-134253153D01*
X134225783Y-134283407D01*
X134361104Y-134311347D01*
X134469582Y-134335369D01*
X134543820Y-134353868D01*
X134576422Y-134365238D01*
X134582278Y-134376511D01*
X134591992Y-134431586D01*
X134599624Y-134523317D01*
X134605180Y-134643073D01*
X134608666Y-134782221D01*
X134610087Y-134932131D01*
X134609450Y-135084172D01*
X134606760Y-135229712D01*
X134602024Y-135360121D01*
X134595247Y-135466766D01*
X134586436Y-135541018D01*
X134575595Y-135574245D01*
X134569017Y-135577993D01*
X134519955Y-135594069D01*
X134434847Y-135615338D01*
X134323529Y-135639472D01*
X134195840Y-135664143D01*
X134152757Y-135672000D01*
X133953773Y-135708542D01*
X133797388Y-135737910D01*
X133678183Y-135761321D01*
X133590737Y-135779994D01*
X133529628Y-135795146D01*
X133489435Y-135807995D01*
X133464738Y-135819758D01*
X133450116Y-135831653D01*
X133448416Y-135833649D01*
X133424504Y-135875271D01*
X133389119Y-135951430D01*
X133345692Y-136053193D01*
X133297651Y-136171624D01*
X133248425Y-136297789D01*
X133201445Y-136422754D01*
X133160140Y-136537584D01*
X133127939Y-136633344D01*
X133108271Y-136701100D01*
X133104565Y-136731917D01*
X133107043Y-136735915D01*
X133132689Y-136774584D01*
X133180920Y-136845907D01*
X133247262Y-136943314D01*
X133327245Y-137060234D01*
X133416397Y-137190098D01*
X133440865Y-137225828D01*
X133526903Y-137353990D01*
X133601258Y-137468608D01*
X133659688Y-137562887D01*
X133697947Y-137630029D01*
X133711792Y-137663235D01*
X133708809Y-137671965D01*
X133677711Y-137714982D01*
X133616355Y-137785230D01*
X133529137Y-137877979D01*
X133420449Y-137988502D01*
X133294685Y-138112071D01*
X133222800Y-138181235D01*
X133109139Y-138288957D01*
X133009657Y-138381225D01*
X132929695Y-138453181D01*
X132874595Y-138499968D01*
X132849698Y-138516727D01*
X132832593Y-138510515D01*
X132779929Y-138481126D01*
X132703449Y-138433063D01*
X132613129Y-138372412D01*
X132548911Y-138328153D01*
X132420705Y-138240261D01*
X132283894Y-138146915D01*
X132158932Y-138062091D01*
X131914137Y-137896515D01*
X131708649Y-138007620D01*
X131660263Y-138033265D01*
X131572270Y-138077130D01*
X131504223Y-138107414D01*
X131467856Y-138118706D01*
X131455954Y-138104205D01*
X131426400Y-138048992D01*
X131382748Y-137957962D01*
X131327426Y-137836892D01*
X131262863Y-137691559D01*
X131191489Y-137527741D01*
X131115732Y-137351213D01*
X131038022Y-137167753D01*
X130960786Y-136983138D01*
X130886456Y-136803146D01*
X130817458Y-136633552D01*
X130756223Y-136480135D01*
X130705179Y-136348670D01*
X130666755Y-136244936D01*
X130643380Y-136174709D01*
X130637483Y-136143766D01*
X130637883Y-136142862D01*
X130665349Y-136114257D01*
X130722799Y-136069457D01*
X130798373Y-136017751D01*
X130822227Y-136001962D01*
X131003734Y-135852174D01*
X131153953Y-135673767D01*
X131269327Y-135474165D01*
X131346299Y-135260797D01*
X131381314Y-135041087D01*
X131370813Y-134822462D01*
X131328277Y-134628011D01*
X131251903Y-134431657D01*
X131140565Y-134256484D01*
X130987774Y-134090082D01*
X130927739Y-134036924D01*
X130733658Y-133905951D01*
X130523999Y-133817744D01*
X130304837Y-133771512D01*
X130082247Y-133766467D01*
X129862307Y-133801820D01*
X129651090Y-133876779D01*
X129454673Y-133990557D01*
X129279132Y-134142363D01*
X129130542Y-134331409D01*
X129101974Y-134378224D01*
X129004873Y-134592204D01*
X128953303Y-134815026D01*
X128945914Y-135040922D01*
X128981355Y-135264119D01*
X129058276Y-135478847D01*
X129175326Y-135679336D01*
X129331155Y-135859814D01*
X129524413Y-136014510D01*
X129530689Y-136018679D01*
X129605461Y-136071370D01*
X129661504Y-136116169D01*
X129687100Y-136143766D01*
X129683870Y-136165402D01*
X129663790Y-136228399D01*
X129628184Y-136326038D01*
X129579480Y-136452542D01*
X129520108Y-136602132D01*
X129452494Y-136769030D01*
X129379066Y-136947457D01*
X129302254Y-137131636D01*
X129224484Y-137315787D01*
X129148185Y-137494133D01*
X129075784Y-137660895D01*
X129009710Y-137810294D01*
X128952391Y-137936554D01*
X128906255Y-138033894D01*
X128873730Y-138096538D01*
X128857243Y-138118706D01*
X128843533Y-138115703D01*
X128789670Y-138094126D01*
X128710064Y-138056293D01*
X128616449Y-138007620D01*
X128410962Y-137896515D01*
X128166167Y-138062091D01*
X128093845Y-138111120D01*
X127959326Y-138202729D01*
X127825215Y-138294485D01*
X127711970Y-138372412D01*
X127649470Y-138414881D01*
X127568239Y-138467644D01*
X127508009Y-138503765D01*
X127478591Y-138517157D01*
X127465953Y-138511471D01*
X127420267Y-138476645D01*
X127349838Y-138415329D01*
X127260796Y-138333554D01*
X127159272Y-138237351D01*
X127051394Y-138132751D01*
X126943295Y-138025786D01*
X126841103Y-137922485D01*
X126750950Y-137828882D01*
X126678964Y-137751006D01*
X126631278Y-137694889D01*
X126614020Y-137666562D01*
X126615015Y-137661172D01*
X126635555Y-137617304D01*
X126679434Y-137541407D01*
X126742412Y-137440336D01*
X126820247Y-137320948D01*
X126908701Y-137190098D01*
X126933509Y-137154005D01*
X127020618Y-137027000D01*
X127097347Y-136914718D01*
X127159224Y-136823730D01*
X127201777Y-136760606D01*
X127220534Y-136731917D01*
X127220995Y-136730687D01*
X127215459Y-136695588D01*
X127194320Y-136624484D01*
X127161005Y-136526310D01*
X127118945Y-136410002D01*
X127071570Y-136284493D01*
X127022308Y-136158718D01*
X126974589Y-136041612D01*
X126931842Y-135942110D01*
X126897497Y-135869145D01*
X126874983Y-135831653D01*
X126872728Y-135829325D01*
X126856608Y-135817549D01*
X126829383Y-135805673D01*
X126785633Y-135792481D01*
X126719935Y-135776754D01*
X126626870Y-135757274D01*
X126501016Y-135732824D01*
X126336953Y-135702186D01*
X126129259Y-135664143D01*
X126086181Y-135656136D01*
X125962777Y-135631384D01*
X125858972Y-135607933D01*
X125784601Y-135588110D01*
X125749504Y-135574245D01*
X125743632Y-135562677D01*
X125733842Y-135507110D01*
X125726085Y-135414990D01*
X125720365Y-135294951D01*
X125716689Y-135155622D01*
X125715062Y-135005635D01*
X125715491Y-134853621D01*
X125717982Y-134708212D01*
X125722540Y-134578037D01*
X125729171Y-134471730D01*
X125737881Y-134397919D01*
X125748677Y-134365238D01*
X125759699Y-134360410D01*
X125814531Y-134345191D01*
X125907213Y-134323666D01*
X126030351Y-134297439D01*
X126176548Y-134268114D01*
X126338406Y-134237296D01*
X126426784Y-134220831D01*
X126578259Y-134192279D01*
X126708640Y-134167277D01*
X126810954Y-134147185D01*
X126878228Y-134133362D01*
X126903489Y-134127165D01*
X126904438Y-134125888D01*
X126920526Y-134093437D01*
X126951194Y-134025452D01*
X126992611Y-133930954D01*
X127040941Y-133818964D01*
X127092354Y-133698500D01*
X127143014Y-133578584D01*
X127189089Y-133468235D01*
X127226746Y-133376473D01*
X127252151Y-133312319D01*
X127261471Y-133284792D01*
X127257360Y-133275106D01*
X127230000Y-133229018D01*
X127180370Y-133151440D01*
X127112460Y-133048461D01*
X127030255Y-132926167D01*
X126937746Y-132790646D01*
X126886991Y-132716429D01*
X126799403Y-132586309D01*
X126724306Y-132472112D01*
X126665707Y-132380066D01*
X126627609Y-132316398D01*
X126614020Y-132287337D01*
X126623462Y-132271573D01*
X126662960Y-132224471D01*
X126727758Y-132153186D01*
X126811909Y-132063760D01*
X126909464Y-131962232D01*
X127014474Y-131854643D01*
X127120993Y-131747034D01*
X127223071Y-131645445D01*
X127314760Y-131555917D01*
X127390112Y-131484489D01*
X127443180Y-131437203D01*
X127468014Y-131420098D01*
X127481799Y-131426749D01*
X127532418Y-131457592D01*
X127614105Y-131510083D01*
X127720972Y-131580375D01*
X127847132Y-131664622D01*
X127986698Y-131758978D01*
X128485056Y-132097857D01*
X128900469Y-131926610D01*
X129315883Y-131755363D01*
X129428465Y-131158172D01*
X129541048Y-130560980D01*
X130784051Y-130560980D01*
X130896634Y-131158172D01*
G36*
X130896634Y-131158172D02*
G01*
X131009216Y-131755363D01*
X131424629Y-131926610D01*
X131840043Y-132097857D01*
X132338400Y-131758978D01*
X132437036Y-131692170D01*
X132567797Y-131604479D01*
X132681008Y-131529580D01*
X132770789Y-131471320D01*
X132831261Y-131433545D01*
X132856544Y-131420098D01*
X132872072Y-131429661D01*
X132918487Y-131469730D01*
X132988730Y-131535487D01*
X133076848Y-131620895D01*
X133176889Y-131719915D01*
X133282902Y-131826509D01*
X133388935Y-131934640D01*
X133489035Y-132038268D01*
X133577251Y-132131358D01*
X133647632Y-132207869D01*
X133694225Y-132261765D01*
X133711079Y-132287007D01*
X133707158Y-132297852D01*
X133680012Y-132346228D01*
X133630439Y-132425842D01*
X133562459Y-132530454D01*
X133480091Y-132653822D01*
X133387353Y-132789706D01*
X133336460Y-132863815D01*
X133248912Y-132992835D01*
X133173853Y-133105434D01*
X133115285Y-133195505D01*
X133077209Y-133256942D01*
X133063628Y-133283640D01*
X133063851Y-133285119D01*
X133075831Y-133318962D01*
X133103316Y-133388071D01*
X133142474Y-133483416D01*
X133189474Y-133595972D01*
X133240485Y-133716710D01*
X133291676Y-133836602D01*
X133339215Y-133946622D01*
X133379271Y-134037740D01*
X133408013Y-134100931D01*
X133421610Y-134127165D01*
X133429655Y-134129492D01*
X133478535Y-134139988D01*
X133565652Y-134157376D01*
X133684033Y-134180295D01*
X133826704Y-134207389D01*
X133986692Y-134237296D01*
X134071015Y-134253153D01*
X134225783Y-134283407D01*
X134361104Y-134311347D01*
X134469582Y-134335369D01*
X134543820Y-134353868D01*
X134576422Y-134365238D01*
X134582278Y-134376511D01*
X134591992Y-134431586D01*
X134599624Y-134523317D01*
X134605180Y-134643073D01*
X134608666Y-134782221D01*
X134610087Y-134932131D01*
X134609450Y-135084172D01*
X134606760Y-135229712D01*
X134602024Y-135360121D01*
X134595247Y-135466766D01*
X134586436Y-135541018D01*
X134575595Y-135574245D01*
X134569017Y-135577993D01*
X134519955Y-135594069D01*
X134434847Y-135615338D01*
X134323529Y-135639472D01*
X134195840Y-135664143D01*
X134152757Y-135672000D01*
X133953773Y-135708542D01*
X133797388Y-135737910D01*
X133678183Y-135761321D01*
X133590737Y-135779994D01*
X133529628Y-135795146D01*
X133489435Y-135807995D01*
X133464738Y-135819758D01*
X133450116Y-135831653D01*
X133448416Y-135833649D01*
X133424504Y-135875271D01*
X133389119Y-135951430D01*
X133345692Y-136053193D01*
X133297651Y-136171624D01*
X133248425Y-136297789D01*
X133201445Y-136422754D01*
X133160140Y-136537584D01*
X133127939Y-136633344D01*
X133108271Y-136701100D01*
X133104565Y-136731917D01*
X133107043Y-136735915D01*
X133132689Y-136774584D01*
X133180920Y-136845907D01*
X133247262Y-136943314D01*
X133327245Y-137060234D01*
X133416397Y-137190098D01*
X133440865Y-137225828D01*
X133526903Y-137353990D01*
X133601258Y-137468608D01*
X133659688Y-137562887D01*
X133697947Y-137630029D01*
X133711792Y-137663235D01*
X133708809Y-137671965D01*
X133677711Y-137714982D01*
X133616355Y-137785230D01*
X133529137Y-137877979D01*
X133420449Y-137988502D01*
X133294685Y-138112071D01*
X133222800Y-138181235D01*
X133109139Y-138288957D01*
X133009657Y-138381225D01*
X132929695Y-138453181D01*
X132874595Y-138499968D01*
X132849698Y-138516727D01*
X132832593Y-138510515D01*
X132779929Y-138481126D01*
X132703449Y-138433063D01*
X132613129Y-138372412D01*
X132548911Y-138328153D01*
X132420705Y-138240261D01*
X132283894Y-138146915D01*
X132158932Y-138062091D01*
X131914137Y-137896515D01*
X131708649Y-138007620D01*
X131660263Y-138033265D01*
X131572270Y-138077130D01*
X131504223Y-138107414D01*
X131467856Y-138118706D01*
X131455954Y-138104205D01*
X131426400Y-138048992D01*
X131382748Y-137957962D01*
X131327426Y-137836892D01*
X131262863Y-137691559D01*
X131191489Y-137527741D01*
X131115732Y-137351213D01*
X131038022Y-137167753D01*
X130960786Y-136983138D01*
X130886456Y-136803146D01*
X130817458Y-136633552D01*
X130756223Y-136480135D01*
X130705179Y-136348670D01*
X130666755Y-136244936D01*
X130643380Y-136174709D01*
X130637483Y-136143766D01*
X130637883Y-136142862D01*
X130665349Y-136114257D01*
X130722799Y-136069457D01*
X130798373Y-136017751D01*
X130822227Y-136001962D01*
X131003734Y-135852174D01*
X131153953Y-135673767D01*
X131269327Y-135474165D01*
X131346299Y-135260797D01*
X131381314Y-135041087D01*
X131370813Y-134822462D01*
X131328277Y-134628011D01*
X131251903Y-134431657D01*
X131140565Y-134256484D01*
X130987774Y-134090082D01*
X130927739Y-134036924D01*
X130733658Y-133905951D01*
X130523999Y-133817744D01*
X130304837Y-133771512D01*
X130082247Y-133766467D01*
X129862307Y-133801820D01*
X129651090Y-133876779D01*
X129454673Y-133990557D01*
X129279132Y-134142363D01*
X129130542Y-134331409D01*
X129101974Y-134378224D01*
X129004873Y-134592204D01*
X128953303Y-134815026D01*
X128945914Y-135040922D01*
X128981355Y-135264119D01*
X129058276Y-135478847D01*
X129175326Y-135679336D01*
X129331155Y-135859814D01*
X129524413Y-136014510D01*
X129530689Y-136018679D01*
X129605461Y-136071370D01*
X129661504Y-136116169D01*
X129687100Y-136143766D01*
X129683870Y-136165402D01*
X129663790Y-136228399D01*
X129628184Y-136326038D01*
X129579480Y-136452542D01*
X129520108Y-136602132D01*
X129452494Y-136769030D01*
X129379066Y-136947457D01*
X129302254Y-137131636D01*
X129224484Y-137315787D01*
X129148185Y-137494133D01*
X129075784Y-137660895D01*
X129009710Y-137810294D01*
X128952391Y-137936554D01*
X128906255Y-138033894D01*
X128873730Y-138096538D01*
X128857243Y-138118706D01*
X128843533Y-138115703D01*
X128789670Y-138094126D01*
X128710064Y-138056293D01*
X128616449Y-138007620D01*
X128410962Y-137896515D01*
X128166167Y-138062091D01*
X128093845Y-138111120D01*
X127959326Y-138202729D01*
X127825215Y-138294485D01*
X127711970Y-138372412D01*
X127649470Y-138414881D01*
X127568239Y-138467644D01*
X127508009Y-138503765D01*
X127478591Y-138517157D01*
X127465953Y-138511471D01*
X127420267Y-138476645D01*
X127349838Y-138415329D01*
X127260796Y-138333554D01*
X127159272Y-138237351D01*
X127051394Y-138132751D01*
X126943295Y-138025786D01*
X126841103Y-137922485D01*
X126750950Y-137828882D01*
X126678964Y-137751006D01*
X126631278Y-137694889D01*
X126614020Y-137666562D01*
X126615015Y-137661172D01*
X126635555Y-137617304D01*
X126679434Y-137541407D01*
X126742412Y-137440336D01*
X126820247Y-137320948D01*
X126908701Y-137190098D01*
X126933509Y-137154005D01*
X127020618Y-137027000D01*
X127097347Y-136914718D01*
X127159224Y-136823730D01*
X127201777Y-136760606D01*
X127220534Y-136731917D01*
X127220995Y-136730687D01*
X127215459Y-136695588D01*
X127194320Y-136624484D01*
X127161005Y-136526310D01*
X127118945Y-136410002D01*
X127071570Y-136284493D01*
X127022308Y-136158718D01*
X126974589Y-136041612D01*
X126931842Y-135942110D01*
X126897497Y-135869145D01*
X126874983Y-135831653D01*
X126872728Y-135829325D01*
X126856608Y-135817549D01*
X126829383Y-135805673D01*
X126785633Y-135792481D01*
X126719935Y-135776754D01*
X126626870Y-135757274D01*
X126501016Y-135732824D01*
X126336953Y-135702186D01*
X126129259Y-135664143D01*
X126086181Y-135656136D01*
X125962777Y-135631384D01*
X125858972Y-135607933D01*
X125784601Y-135588110D01*
X125749504Y-135574245D01*
X125743632Y-135562677D01*
X125733842Y-135507110D01*
X125726085Y-135414990D01*
X125720365Y-135294951D01*
X125716689Y-135155622D01*
X125715062Y-135005635D01*
X125715491Y-134853621D01*
X125717982Y-134708212D01*
X125722540Y-134578037D01*
X125729171Y-134471730D01*
X125737881Y-134397919D01*
X125748677Y-134365238D01*
X125759699Y-134360410D01*
X125814531Y-134345191D01*
X125907213Y-134323666D01*
X126030351Y-134297439D01*
X126176548Y-134268114D01*
X126338406Y-134237296D01*
X126426784Y-134220831D01*
X126578259Y-134192279D01*
X126708640Y-134167277D01*
X126810954Y-134147185D01*
X126878228Y-134133362D01*
X126903489Y-134127165D01*
X126904438Y-134125888D01*
X126920526Y-134093437D01*
X126951194Y-134025452D01*
X126992611Y-133930954D01*
X127040941Y-133818964D01*
X127092354Y-133698500D01*
X127143014Y-133578584D01*
X127189089Y-133468235D01*
X127226746Y-133376473D01*
X127252151Y-133312319D01*
X127261471Y-133284792D01*
X127257360Y-133275106D01*
X127230000Y-133229018D01*
X127180370Y-133151440D01*
X127112460Y-133048461D01*
X127030255Y-132926167D01*
X126937746Y-132790646D01*
X126886991Y-132716429D01*
X126799403Y-132586309D01*
X126724306Y-132472112D01*
X126665707Y-132380066D01*
X126627609Y-132316398D01*
X126614020Y-132287337D01*
X126623462Y-132271573D01*
X126662960Y-132224471D01*
X126727758Y-132153186D01*
X126811909Y-132063760D01*
X126909464Y-131962232D01*
X127014474Y-131854643D01*
X127120993Y-131747034D01*
X127223071Y-131645445D01*
X127314760Y-131555917D01*
X127390112Y-131484489D01*
X127443180Y-131437203D01*
X127468014Y-131420098D01*
X127481799Y-131426749D01*
X127532418Y-131457592D01*
X127614105Y-131510083D01*
X127720972Y-131580375D01*
X127847132Y-131664622D01*
X127986698Y-131758978D01*
X128485056Y-132097857D01*
X128900469Y-131926610D01*
X129315883Y-131755363D01*
X129428465Y-131158172D01*
X129541048Y-130560980D01*
X130784051Y-130560980D01*
X130896634Y-131158172D01*
G37*
%LPC*%
D14*
X182880000Y-98425000D03*
D15*
X177800000Y-98425000D03*
D14*
X172720000Y-98425000D03*
D16*
X175260000Y-103505000D03*
X181610000Y-100965000D03*
D14*
X240030000Y-79375000D03*
D15*
X234950000Y-79375000D03*
D14*
X229870000Y-79375000D03*
D16*
X232410000Y-84455000D03*
X238760000Y-81915000D03*
D14*
X259080000Y-98425000D03*
D15*
X254000000Y-98425000D03*
D14*
X248920000Y-98425000D03*
D16*
X251460000Y-103505000D03*
X257810000Y-100965000D03*
D14*
X30480000Y-98425000D03*
D15*
X25400000Y-98425000D03*
D14*
X20320000Y-98425000D03*
D16*
X22860000Y-103505000D03*
X29210000Y-100965000D03*
D14*
X201930000Y-79375000D03*
D15*
X196850000Y-79375000D03*
D14*
X191770000Y-79375000D03*
D16*
X194310000Y-84455000D03*
X200660000Y-81915000D03*
D14*
X68580000Y-79375000D03*
D15*
X63500000Y-79375000D03*
D14*
X58420000Y-79375000D03*
D16*
X60960000Y-84455000D03*
X67310000Y-81915000D03*
D14*
X87630000Y-79375000D03*
D15*
X82550000Y-79375000D03*
D14*
X77470000Y-79375000D03*
D16*
X80010000Y-84455000D03*
X86360000Y-81915000D03*
D14*
X163830000Y-136525000D03*
D15*
X158750000Y-136525000D03*
D14*
X153670000Y-136525000D03*
D16*
X156210000Y-141605000D03*
X162560000Y-139065000D03*
D14*
X259080000Y-79375000D03*
D15*
X254000000Y-79375000D03*
D14*
X248920000Y-79375000D03*
D16*
X251460000Y-84455000D03*
X257810000Y-81915000D03*
D14*
X68580000Y-98425000D03*
D15*
X63500000Y-98425000D03*
D14*
X58420000Y-98425000D03*
D16*
X60960000Y-103505000D03*
X67310000Y-100965000D03*
D14*
X49530000Y-79375000D03*
D15*
X44450000Y-79375000D03*
D14*
X39370000Y-79375000D03*
D16*
X41910000Y-84455000D03*
X48260000Y-81915000D03*
D14*
X220980000Y-98425000D03*
D15*
X215900000Y-98425000D03*
D14*
X210820000Y-98425000D03*
D16*
X213360000Y-103505000D03*
X219710000Y-100965000D03*
D14*
X240030000Y-98425000D03*
D15*
X234950000Y-98425000D03*
D14*
X229870000Y-98425000D03*
D16*
X232410000Y-103505000D03*
X238760000Y-100965000D03*
D14*
X158750000Y-83820000D03*
D15*
X158750000Y-88900000D03*
D14*
X158750000Y-93980000D03*
D16*
X163830000Y-91440000D03*
X161290000Y-85090000D03*
D14*
X201930000Y-98425000D03*
D15*
X196850000Y-98425000D03*
D14*
X191770000Y-98425000D03*
D16*
X194310000Y-103505000D03*
X200660000Y-100965000D03*
D14*
X101600000Y-93980000D03*
D15*
X101600000Y-88900000D03*
D14*
X101600000Y-83820000D03*
D16*
X96520000Y-86360000D03*
X99060000Y-92710000D03*
D14*
X230505000Y-60325000D03*
D15*
X225425000Y-60325000D03*
D14*
X220345000Y-60325000D03*
D16*
X222885000Y-65405000D03*
X229235000Y-62865000D03*
D14*
X87630000Y-136525000D03*
D15*
X82550000Y-136525000D03*
D14*
X77470000Y-136525000D03*
D16*
X80010000Y-141605000D03*
X86360000Y-139065000D03*
D14*
X182880000Y-79375000D03*
D15*
X177800000Y-79375000D03*
D14*
X172720000Y-79375000D03*
D16*
X175260000Y-84455000D03*
X181610000Y-81915000D03*
D14*
X30480000Y-79375000D03*
D15*
X25400000Y-79375000D03*
D14*
X20320000Y-79375000D03*
D16*
X22860000Y-84455000D03*
X29210000Y-81915000D03*
D14*
X106680000Y-136525000D03*
D15*
X101600000Y-136525000D03*
D14*
X96520000Y-136525000D03*
D16*
X99060000Y-141605000D03*
X105410000Y-139065000D03*
D14*
X192405000Y-60325000D03*
D15*
X187325000Y-60325000D03*
D14*
X182245000Y-60325000D03*
D16*
X184785000Y-65405000D03*
X191135000Y-62865000D03*
D14*
X220980000Y-79375000D03*
D15*
X215900000Y-79375000D03*
D14*
X210820000Y-79375000D03*
D16*
X213360000Y-84455000D03*
X219710000Y-81915000D03*
D14*
X182880000Y-136525000D03*
D15*
X177800000Y-136525000D03*
D14*
X172720000Y-136525000D03*
D16*
X175260000Y-141605000D03*
X181610000Y-139065000D03*
D14*
X87630000Y-98425000D03*
D15*
X82550000Y-98425000D03*
D14*
X77470000Y-98425000D03*
D16*
X80010000Y-103505000D03*
X86360000Y-100965000D03*
D14*
X40005000Y-60325000D03*
D15*
X34925000Y-60325000D03*
D14*
X29845000Y-60325000D03*
D16*
X32385000Y-65405000D03*
X38735000Y-62865000D03*
D14*
X49530000Y-98425000D03*
D15*
X44450000Y-98425000D03*
D14*
X39370000Y-98425000D03*
D16*
X41910000Y-103505000D03*
X48260000Y-100965000D03*
D14*
X78105000Y-60325000D03*
D15*
X73025000Y-60325000D03*
D14*
X67945000Y-60325000D03*
D16*
X70485000Y-65405000D03*
X76835000Y-62865000D03*
D17*
X254000000Y-136525000D03*
D18*
X254000000Y-136525000D03*
D17*
X22225000Y-60325000D03*
D18*
X22225000Y-60325000D03*
D17*
X196850000Y-136525000D03*
D18*
X196850000Y-136525000D03*
D17*
X254000000Y-60325000D03*
D18*
X254000000Y-60325000D03*
D17*
X158750000Y-60325000D03*
D18*
X158750000Y-60325000D03*
D17*
X25400000Y-136525000D03*
D18*
X25400000Y-136525000D03*
D16*
X127450000Y-52835000D03*
D19*
X127750000Y-55865000D03*
X132600000Y-55865000D03*
D16*
X132900000Y-52835000D03*
D20*
X121285000Y-52705000D03*
D21*
X121285000Y-55245000D03*
D22*
X121285000Y-57785000D03*
D21*
X121285000Y-60325000D03*
X121285000Y-62865000D03*
X121285000Y-65405000D03*
X121285000Y-67945000D03*
D22*
X121285000Y-70485000D03*
D21*
X121285000Y-73025000D03*
X121285000Y-75565000D03*
X121285000Y-78105000D03*
X121285000Y-80645000D03*
D22*
X121285000Y-83185000D03*
D21*
X121285000Y-85725000D03*
X121285000Y-88265000D03*
X121285000Y-90805000D03*
X121285000Y-93345000D03*
D22*
X121285000Y-95885000D03*
D21*
X121285000Y-98425000D03*
X121285000Y-100965000D03*
X139065000Y-100965000D03*
X139065000Y-98425000D03*
D23*
X139065000Y-95885000D03*
D21*
X139065000Y-93345000D03*
X139065000Y-90805000D03*
X139065000Y-88265000D03*
X139065000Y-85725000D03*
D23*
X139065000Y-83185000D03*
D21*
X139065000Y-80645000D03*
X139065000Y-78105000D03*
X139065000Y-75565000D03*
X139065000Y-73025000D03*
D23*
X139065000Y-70485000D03*
D21*
X139065000Y-67945000D03*
X139065000Y-65405000D03*
X139065000Y-62865000D03*
X139065000Y-60325000D03*
D23*
X139065000Y-57785000D03*
D21*
X139065000Y-55245000D03*
X139065000Y-52705000D03*
D17*
X117475000Y-136525000D03*
D18*
X117475000Y-136525000D03*
D17*
X101600000Y-60325000D03*
D18*
X101600000Y-60325000D03*
D17*
X63500000Y-136525000D03*
D18*
X63500000Y-136525000D03*
D17*
X142875000Y-136525000D03*
D18*
X142875000Y-136525000D03*
%LPD*%
M02*
